<?xml version="1.0" encoding="UTF-8"?>
<svg id="Layer_1" xmlns="http://www.w3.org/2000/svg" version="1.1" viewBox="0 0 1721.98 582.24">
  <!-- Generator: Adobe Illustrator 29.8.2, SVG Export Plug-In . SVG Version: 2.1.1 Build 3)  -->
  <defs>
    <style>
      .st0 {
        fill: #1d2126;
      }

      .st1 {
        fill: none;
        stroke: #f2f4f9;
        stroke-miterlimit: 10;
        stroke-width: .77px;
      }

      .st2 {
        fill: #f2f4f9;
      }

      .st3 {
        fill: #18bcf2;
      }
    </style>
  </defs>
  <rect class="st2" x="158.3" y="387.88" width="107.04" height="107.04"/>
  <g>
    <path class="st2" d="M534.07,284.41v27.72h-107.19v-172.68h107.19v27.94h-77.84v44.7h69.54v26h-69.54v46.32h77.84Z"/>
    <path class="st2" d="M617.95,136.32c15.79,0,28.9,3.84,39.38,11.56,10.47,7.69,16.9,17.99,19.29,30.85l-27.6,7.52c-1.55-7.39-5.15-13.08-10.79-17.1-5.67-3.99-12.64-6.01-20.97-6.01-8.94,0-16.02,2.14-21.24,6.41-5.25,4.26-7.86,9.95-7.86,17.03,0,11.16,6.92,18.41,20.8,21.71l28.19,7.05c14.56,3.77,25.45,9.76,32.7,17.96,7.24,8.21,10.87,18.31,10.87,30.31,0,15.4-5.59,27.84-16.76,37.35-11.16,9.51-26.09,14.27-44.82,14.27-16.85,0-31.12-3.97-42.73-11.9-11.48-8.23-18.26-19.1-20.33-32.57l27.6-7.17c1.01,7.61,4.8,13.6,11.38,17.91s14.96,6.46,25.13,6.46,17.47-2.07,23.04-6.18c5.59-4.11,8.38-9.71,8.38-16.8,0-11.09-6.92-18.41-20.8-21.95l-28.19-6.83c-14.49-3.3-25.35-9.19-32.62-17.62s-10.92-18.73-10.92-30.9c0-15.25,5.42-27.62,16.24-37.13,10.82-9.51,25.03-14.27,42.68-14.27l-.05.07v-.03Z"/>
    <path class="st2" d="M833.58,195.7c0,16.95-5.15,30.65-15.42,41.12-10.28,10.47-24.12,15.72-41.52,15.72h-38.81v59.61h-29.35v-172.7h68.38c17.54,0,31.39,5.08,41.52,15.18,10.13,10.13,15.18,23.8,15.18,41.05l.02.02h0ZM802.85,195.01c0-8.7-2.71-15.77-8.13-21.19s-13.11-8.13-23.04-8.13h-33.83v61.11h33.39c10.15,0,17.99-2.88,23.46-8.67,5.47-5.77,8.21-13.48,8.21-23.11h-.06Z"/>
    <path class="st2" d="M859.8,139.45h29.35v72.2l76.11.22v-72.42h29.57v172.68h-29.57v-74.27l-76.11-.22v74.49h-29.35v-172.68h0Z"/>
  </g>
  <g>
    <path class="st2" d="M1074.36,205.45c15.77,0,28.63,5.07,38.55,15.18,9.92,10.14,14.88,23.15,14.88,39.05s-4.96,28.82-14.88,38.96c-9.92,10.14-22.78,15.18-38.55,15.18s-28.82-5.07-38.74-15.18c-9.92-10.14-14.88-23.1-14.88-38.96s4.96-29.02,14.88-39.11,22.84-15.14,38.74-15.14v.02ZM1074.36,291.62c8.42,0,15.27-2.98,20.56-8.92,5.26-5.94,7.9-13.68,7.9-23.19s-2.63-17.21-7.9-23.1c-5.26-5.87-12.12-8.81-20.56-8.81s-15.6,2.94-20.91,8.81-7.96,13.57-7.96,23.1,2.65,17.25,7.96,23.19c5.31,5.94,12.27,8.92,20.91,8.92Z"/>
    <path class="st2" d="M1306.04,245.74v65.57h-23.97v-61.8c0-7.14-1.83-12.7-5.5-16.73-3.68-4-8.66-6.03-14.99-6.03-6.72,0-12.1,2.2-16.12,6.57-4,4.39-6.03,10.53-6.03,18.4v59.56h-24.28v-61.8c0-7.14-1.78-12.7-5.35-16.73-3.57-4-8.51-6.03-14.84-6.03-6.72,0-12.14,2.2-16.21,6.57-4.07,4.37-6.11,10.53-6.11,18.4v59.56h-24.67v-102.98h22.95l.83,9.9c5.98-8.77,15.73-13.16,29.26-13.16,7.88,0,14.73,1.63,20.49,4.89,5.79,3.26,10.16,8.03,13.16,14.27,2.52-5.98,6.68-10.68,12.49-14.07,5.81-3.39,12.73-5.09,20.75-5.09,11.68,0,20.97,3.61,27.85,10.81,6.87,7.2,10.29,17.16,10.29,29.87v.04h0Z"/>
    <path class="st2" d="M1427.8,268.89h-78.92c.83,7.74,3.74,13.66,8.77,17.75s11.42,6.11,19.17,6.11c12.57,0,21.38-5.24,26.41-15.71l20.6,8.16c-3.87,9.05-9.99,16.12-18.3,21.21-8.33,5.09-17.9,7.66-28.72,7.66-15.23,0-27.58-4.98-37.07-14.95-9.48-9.96-14.23-23.04-14.23-39.2s4.79-29.32,14.34-39.46c9.55-10.14,22.04-15.18,37.48-15.18s27.37,5,36.61,14.99c9.25,9.99,13.88,23.15,13.88,39.46v9.18l-.02-.02ZM1349.29,251.55h53.43c-.48-8.35-3-14.73-7.59-19.12s-10.77-6.57-18.51-6.57-13.94,2.22-18.75,6.68c-4.83,4.46-7.68,10.79-8.57,19.01h-.01Z"/>
  </g>
  <g>
    <path class="st3" d="M265.34,521.68c14.72,0,26.76-12.04,26.76-26.76v-107.04h13.38v-53.52l-53.52-53.52v-26.76h-80.28v26.76l-53.52,53.52v53.52h13.38v107.04c0,14.72,11.91,26.76,26.76,26.76M265.34,494.92h-107.04v-107.04h107.04M251.96,454.78v-26.76h-26.76v26.76M198.44,454.78v-26.76h-26.76v26.76h26.76Z"/>
    <path class="st3" d="M367.49,345.36c0,10.69-8.77,19.46-19.46,19.46H75.61c-10.69,0-19.46-8.77-19.46-19.46v-116.76c0-10.69,6.2-25.66,13.75-33.21L198.07,67.25c7.58-7.58,19.95-7.58,27.53,0l128.15,128.15c7.58,7.58,13.75,22.52,13.75,33.21v116.76h-.01Z"/>
    <path class="st2" d="M263.71,163.3h-103.78c-4.31,0-7.78,3.48-7.78,7.78v193.74h15.57v-185.95h88.22v15.57h-64.86c-4.31,0-7.78,3.48-7.78,7.78v31.13c0,4.31,3.48,7.78,7.78,7.78h64.86v15.57h-64.86c-4.31,0-7.78,3.48-7.78,7.78v31.13c0,4.31,3.48,7.78,7.78,7.78h64.86v15.57h-64.86c-4.31,0-7.78,3.48-7.78,7.78s3.48,7.78,7.78,7.78h72.65c4.31,0,7.78-3.48,7.78-7.78v-31.13c0-4.31-3.48-7.78-7.78-7.78h-64.86v-15.57h64.86c4.31,0,7.78-3.48,7.78-7.78v-31.13c0-4.31-3.48-7.78-7.78-7.78h-64.86v-15.57h64.86c4.31,0,7.78-3.48,7.78-7.78v-31.13c0-4.31-3.48-7.78-7.78-7.78h-.02Z"/>
  </g>
  <g>
    <path class="st2" d="M475.76,354.6c11.3,0,20.96,1.71,28.96,5.13,8,3.42,14.13,8.34,18.38,14.76s6.38,14.13,6.38,23.13h-29.91c0-4.2-.95-7.77-2.86-10.71-1.91-2.94-4.64-5.22-8.19-6.84-3.56-1.62-7.81-2.43-12.76-2.43s-8.7.6-12,1.8c-3.3,1.2-5.88,2.91-7.72,5.13s-2.76,4.95-2.76,8.19c0,2.88,1.08,5.22,3.24,7.02s5.11,3.33,8.86,4.59c3.74,1.26,7.94,2.43,12.57,3.51,4.63,1.08,9.43,2.22,14.38,3.42s9.75,2.7,14.38,4.5,8.83,4.08,12.57,6.84,6.73,6.18,8.95,10.26c2.22,4.08,3.33,9.06,3.33,14.94,0,8.28-2.13,15.42-6.38,21.42-4.26,6-10.35,10.56-18.29,13.68-7.94,3.12-17.56,4.68-28.86,4.68-12.57,0-23.37-1.86-32.38-5.58-9.02-3.72-15.94-9.12-20.76-16.2-4.83-7.08-7.24-15.48-7.24-25.2h29.91c0,4.92,1.21,9.18,3.62,12.78s5.94,6.36,10.57,8.28,10.19,2.88,16.67,2.88c4.95,0,9.14-.66,12.57-1.98s6.06-3.21,7.91-5.67c1.84-2.46,2.76-5.37,2.76-8.73,0-3-1.11-5.43-3.33-7.29-2.22-1.86-5.18-3.42-8.86-4.68-3.69-1.26-7.84-2.37-12.48-3.33s-9.46-2.04-14.48-3.24c-5.02-1.2-9.84-2.7-14.48-4.5s-8.8-4.08-12.48-6.84c-3.69-2.76-6.64-6.21-8.86-10.35-2.22-4.14-3.33-9.15-3.33-15.03,0-8.04,2.06-14.94,6.19-20.7s10.13-10.14,18-13.14,17.27-4.5,28.19-4.5h.02Z"/>
    <path class="st2" d="M579.96,485.28h-28.19v-93.6h27.05l-2.48,10.8h.57c2.41-4.08,6.16-7.26,11.24-9.54s11.05-3.42,17.91-3.42c5.97,0,11.36,1.11,16.19,3.33,4.82,2.22,8.57,5.31,11.24,9.27h.38c2.79-3.96,6.79-7.05,12-9.27s11.05-3.33,17.53-3.33c7.62,0,14.13,1.47,19.53,4.41s9.52,7.17,12.38,12.69,4.29,12.18,4.29,19.98v58.68h-28.19v-55.98c0-5.64-1.33-10.02-4-13.14-2.67-3.12-6.41-4.68-11.24-4.68-5.08,0-9.08,1.62-12,4.86s-4.38,7.74-4.38,13.5v55.44h-28.19v-55.98c0-5.64-1.33-10.02-4-13.14-2.67-3.12-6.35-4.68-11.05-4.68-3.43,0-6.38.81-8.86,2.43s-4.38,3.96-5.71,7.02-2,6.81-2,11.25v53.1h-.02Z"/>
    <path class="st2" d="M763.59,487.62c-9.78,0-18.16-1.95-25.15-5.85-6.99-3.9-12.32-9.54-16-16.92-3.69-7.38-5.52-16.23-5.52-26.55s1.87-18.93,5.62-26.19,9.14-12.84,16.19-16.74,15.46-5.85,25.24-5.85c3.81,0,7.36.42,10.67,1.26,3.3.84,6.32,2.04,9.05,3.6s5.05,3.42,6.95,5.58h.38l-.95-8.28h28.19v93.6h-30.1l1.91-9.54h-.38c-2.79,3.72-6.48,6.63-11.05,8.73s-9.59,3.15-15.05,3.15h0ZM746.26,438.3c0,5.76.89,10.68,2.67,14.76,1.78,4.08,4.32,7.17,7.62,9.27,3.3,2.1,7.17,3.15,11.62,3.15,4.7,0,8.64-1.05,11.81-3.15s5.65-5.19,7.43-9.27c1.78-4.08,2.67-9,2.67-14.76s-.89-10.68-2.67-14.76c-1.78-4.08-4.26-7.2-7.43-9.36-3.18-2.16-7.05-3.24-11.62-3.24s-8.54,1.08-11.91,3.24-5.91,5.28-7.62,9.36-2.57,9-2.57,14.76Z"/>
    <path class="st2" d="M866.65,485.28h-28.19v-93.6h30.1l-3.43,9.54h.76c2.29-3.72,5.74-6.63,10.38-8.73,4.63-2.1,9.81-3.15,15.53-3.15,3.17,0,6.19.18,9.05.54,2.86.36,5.3.9,7.33,1.62l-3.81,22.14c-1.91-.72-3.97-1.29-6.19-1.71-2.22-.42-4.41-.63-6.57-.63-5.21,0-9.69,1.14-13.43,3.42-3.75,2.28-6.61,5.58-8.57,9.9-1.97,4.32-2.95,9.48-2.95,15.48v45.18h-.01Z"/>
    <path class="st2" d="M939.8,456.48v-44.28h-15.24v-21.06l15.24.9v-19.98h28.19v19.62h21.72v20.52h-21.72v41.76c0,4.08.95,7.11,2.86,9.09s4.83,2.97,8.76,2.97c2.54,0,4.98-.18,7.33-.54,2.35-.36,4.41-.96,6.19-1.8v21.78c-1.65.72-3.71,1.26-6.19,1.62s-5.3.54-8.48.54c-8.26,0-15.27-1.2-21.05-3.6-5.78-2.4-10.16-5.91-13.14-10.53-2.99-4.62-4.48-10.29-4.48-17.01h0Z"/>
  </g>
  <g>
    <path class="st3" d="M1470.36,310.81v-66.1c-4.06.88-11.66,1.17-14.92.98v-17.37c9.54-1.31,18.67-6.17,23.88-11.61h19.4v94.1h-28.36Z"/>
    <path class="st3" d="M1581,310.81l-16.2-30.63h-.29l-16.52,30.63h-30.14l29.98-46.89-29.34-47.21h32.64l15.03,29.06h.39l15.49-29.06h29.67l-29.3,44.39,31.09,49.71h-32.5Z"/>
    <path class="st3" d="M1641.16,310.81v-66.1c-4.06.88-11.66,1.17-14.92.98v-17.37c9.54-1.31,18.67-6.17,23.88-11.61h19.4v94.1h-28.36Z"/>
  </g>
  <g>
    <path class="st2" d="M1044.55,485.28v-128.52h49.4c12.98,0,24.15,2.58,33.48,7.74s16.52,12.57,21.57,22.23c5.04,9.66,7.57,21.09,7.57,34.29s-2.52,24.63-7.57,34.29c-5.04,9.66-12.24,17.07-21.57,22.23-9.34,5.16-20.5,7.74-33.48,7.74h-49.4ZM1071.86,462.24h22.09c7.07,0,13.16-1.68,18.26-5.04,5.1-3.36,9.04-8.1,11.83-14.22,2.78-6.12,4.17-13.38,4.17-21.78s-1.39-15.87-4.17-22.05-6.73-10.95-11.83-14.31-11.19-5.04-18.26-5.04h-22.09v82.44Z"/>
    <path class="st2" d="M1174.99,360h25.74v21.06h-25.74v-21.06ZM1200.74,391.68v93.6h-25.74v-93.6h25.74Z"/>
    <path class="st2" d="M1246.3,485.28h-25.74v-93.6h24.7l-2.26,10.8h.52c2.2-4.08,5.62-7.26,10.26-9.54s10.09-3.42,16.35-3.42c5.45,0,10.38,1.11,14.78,3.33,4.41,2.22,7.83,5.31,10.26,9.27h.35c2.55-3.96,6.2-7.05,10.96-9.27,4.75-2.22,10.09-3.33,16-3.33,6.96,0,12.9,1.47,17.83,4.41,4.93,2.94,8.7,7.17,11.3,12.69,2.61,5.52,3.91,12.18,3.91,19.98v58.68h-25.74v-55.98c0-5.64-1.22-10.02-3.65-13.14-2.43-3.12-5.86-4.68-10.26-4.68-4.64,0-8.29,1.62-10.96,4.86-2.67,3.24-4,7.74-4,13.5v55.44h-25.74v-55.98c0-5.64-1.22-10.02-3.65-13.14-2.43-3.12-5.8-4.68-10.09-4.68-3.13,0-5.83.81-8.09,2.43s-4,3.96-5.22,7.02-1.83,6.81-1.83,11.25v53.1h0Z"/>
    <path class="st2" d="M1399.88,485.28h-25.74v-93.6h24.7l-2.26,10.8h.52c2.2-4.08,5.62-7.26,10.26-9.54s10.09-3.42,16.35-3.42c5.45,0,10.38,1.11,14.78,3.33,4.41,2.22,7.83,5.31,10.26,9.27h.35c2.55-3.96,6.2-7.05,10.96-9.27,4.75-2.22,10.09-3.33,16-3.33,6.96,0,12.9,1.47,17.83,4.41,4.93,2.94,8.7,7.17,11.31,12.69,2.61,5.52,3.91,12.18,3.91,19.98v58.68h-25.74v-55.98c0-5.64-1.22-10.02-3.65-13.14-2.44-3.12-5.86-4.68-10.26-4.68-4.64,0-8.29,1.62-10.96,4.86-2.67,3.24-4,7.74-4,13.5v55.44h-25.74v-55.98c0-5.64-1.22-10.02-3.65-13.14-2.43-3.12-5.8-4.68-10.09-4.68-3.13,0-5.83.81-8.09,2.43s-4,3.96-5.22,7.02-1.83,6.81-1.83,11.25v53.1h0Z"/>
    <path class="st2" d="M1615.73,454.68c-1.28,6.6-4,12.36-8.17,17.28s-9.42,8.76-15.74,11.52c-6.32,2.76-13.37,4.14-21.13,4.14-9.04,0-17.02-2.04-23.92-6.12s-12.26-9.81-16.09-17.19-5.74-15.99-5.74-25.83,1.94-18.42,5.83-25.74c3.88-7.32,9.33-13.02,16.35-17.1,7.01-4.08,15.1-6.12,24.26-6.12s16.52,2.04,23.13,6.12,11.74,9.75,15.39,17.01,5.48,15.81,5.48,25.65v4.68h-62.61c0,5.16.81,9.69,2.43,13.59s3.91,6.9,6.87,9,6.41,3.15,10.35,3.15c4.41,0,8.2-1.29,11.39-3.87,3.19-2.58,5.25-5.97,6.17-10.17h25.75ZM1553.29,428.58h34.96c0-4.2-.7-7.77-2.09-10.71s-3.37-5.25-5.91-6.93c-2.55-1.68-5.63-2.52-9.22-2.52-5.22,0-9.39,1.8-12.52,5.4s-4.87,8.52-5.22,14.76h0Z"/>
    <path class="st2" d="M1657.29,485.28h-25.74v-93.6h27.48l-3.13,9.54h.7c2.09-3.72,5.24-6.63,9.48-8.73,4.23-2.1,8.96-3.15,14.18-3.15,2.9,0,5.65.18,8.26.54,2.61.36,4.84.9,6.7,1.62l-3.48,22.14c-1.74-.72-3.63-1.29-5.65-1.71-2.03-.42-4.03-.63-6-.63-4.76,0-8.84,1.14-12.26,3.42s-6.03,5.58-7.83,9.9c-1.8,4.32-2.7,9.48-2.7,15.48v45.18h-.01Z"/>
  </g>
  <g id="Layer_1-2">
    <g>
      <g>
        <rect class="st0" x="1178.49" y="20.39" width="520.87" height="153.72" rx="30.96" ry="30.96"/>
        <rect class="st1" x="1178.49" y="20.39" width="520.87" height="153.72" rx="30.96" ry="30.96"/>
      </g>
      <g>
        <path class="st3" d="M1358.72,52.97v20.29h-4.05v-11.09l-4.34,11.09h-3.89l-4.29-11.01v11.01h-3.92v-20.29h3.92l6.24,15.5,6.28-15.5h4.05,0Z"/>
        <path class="st3" d="M1376.62,68.83h-6.91l-1.55,4.44h-4.28l7.27-20.29h4.08l7.24,20.29h-4.36l-1.51-4.44h0ZM1375.45,65.39l-2.26-6.65-2.29,6.65h4.54Z"/>
        <path class="st3" d="M1405.22,63.15c.02,1.45-.23,2.8-.75,4.06s-1.23,2.34-2.14,3.23-2,1.58-3.26,2.09-2.6.75-4.02.73h-7.38v-20.29h7.38c1.86-.03,3.56.4,5.13,1.29s2.81,2.11,3.72,3.69,1.36,3.31,1.33,5.21h0ZM1400.88,63.15c0-1.88-.54-3.41-1.62-4.58s-2.5-1.75-4.27-1.75h-3.23v12.64h3.23c1.79,0,3.22-.57,4.29-1.73s1.6-2.68,1.6-4.58h0Z"/>
        <path class="st3" d="M1423.92,69.4v3.86h-12.77v-20.29h12.77v3.9h-8.67v4.33h7.7v3.63h-7.7v4.57h8.67Z"/>
        <path class="st3" d="M1444.55,56.84v4.67h7.33l-.03,3.69h-7.3v8.07h-4.1v-20.29h12.8l-.03,3.87h-8.67,0Z"/>
        <path class="st3" d="M1467.71,52.61c1.45,0,2.8.26,4.03.79s2.29,1.25,3.14,2.17,1.53,2.03,2.01,3.33.72,2.69.72,4.2c.02,1.49-.21,2.88-.7,4.19s-1.16,2.42-2.03,3.36-1.93,1.66-3.17,2.19-2.59.79-4.03.76c-1.91.03-3.63-.41-5.14-1.32s-2.69-2.16-3.52-3.76-1.22-3.4-1.19-5.39c-.02-1.49.21-2.88.7-4.19s1.15-2.43,2.03-3.36,1.92-1.66,3.16-2.2,2.58-.79,4-.76h0ZM1467.73,69.58c1.71,0,3.07-.58,4.07-1.74s1.5-2.74,1.5-4.74-.5-3.6-1.49-4.76-2.36-1.74-4.08-1.74-3.08.58-4.08,1.74-1.49,2.75-1.49,4.76.5,3.6,1.49,4.75c.99,1.15,2.36,1.73,4.08,1.73h0Z"/>
        <path class="st3" d="M1498.98,73.27h-4.6l-3.12-7.33h-3.74v7.33h-4.1v-20.29h7.81c2.51,0,4.41.57,5.69,1.68s1.92,2.72,1.92,4.82c0,1.37-.3,2.55-.89,3.56s-1.45,1.74-2.55,2.23l3.58,8.02ZM1494.49,59.47c0-.88-.28-1.57-.82-2.08s-1.36-.76-2.43-.76h-3.71v5.73h3.71c1.08,0,1.89-.26,2.43-.77s.82-1.22.82-2.12Z"/>
      </g>
      <g>
        <path class="st2" d="M1370.79,132.31v8.61h-33.27v-53.6h33.27v8.67h-24.16v13.88h21.59v8.07h-21.59v14.38h24.16Z"/>
        <path class="st2" d="M1396.1,86.35c4.9,0,8.97,1.19,12.22,3.59,3.25,2.39,5.25,5.58,5.99,9.58l-8.57,2.33c-.47-2.29-1.6-4.06-3.35-5.31-1.76-1.24-3.92-1.87-6.51-1.87-2.77,0-4.97.67-6.59,1.99s-2.44,3.09-2.44,5.29c0,3.46,2.15,5.71,6.46,6.74l8.75,2.19c4.52,1.17,7.9,3.03,10.15,5.58,2.25,2.55,3.37,5.68,3.37,9.41,0,4.78-1.74,8.64-5.2,11.6s-8.1,4.43-13.91,4.43c-5.23,0-9.65-1.23-13.26-3.69-3.56-2.55-5.67-5.93-6.31-10.11l8.57-2.23c.31,2.36,1.49,4.22,3.53,5.56,2.04,1.34,4.64,2,7.8,2s5.42-.64,7.15-1.92c1.74-1.28,2.6-3.01,2.6-5.22,0-3.44-2.15-5.71-6.46-6.82l-8.75-2.12c-4.5-1.02-7.87-2.85-10.13-5.47s-3.39-5.81-3.39-9.59c0-4.73,1.68-8.57,5.04-11.53,3.36-2.95,7.77-4.43,13.25-4.43l-.02.02Z"/>
        <path class="st2" d="M1462.3,104.77c0,5.26-1.6,9.52-4.79,12.77s-7.49,4.88-12.89,4.88h-12.05v18.5h-9.11v-53.6h21.23c5.45,0,9.74,1.58,12.89,4.71,3.14,3.14,4.71,7.39,4.71,12.74h0ZM1452.76,104.56c0-2.7-.84-4.9-2.52-6.58s-4.07-2.52-7.15-2.52h-10.5v18.97h10.36c3.15,0,5.58-.89,7.28-2.69s2.55-4.18,2.55-7.17h-.02Z"/>
        <path class="st2" d="M1469.7,87.31h9.11v22.41l23.63.07v-22.48h9.18v53.6h-9.18v-23.05l-23.63-.07v23.12h-9.11v-53.6Z"/>
        <path class="st2" d="M1538.28,103.7c5.55,0,10.07,1.78,13.55,5.34,3.49,3.56,5.23,8.14,5.23,13.73s-1.74,10.13-5.23,13.7-8.01,5.34-13.55,5.34-10.13-1.78-13.62-5.34c-3.49-3.56-5.23-8.12-5.23-13.7s1.74-10.2,5.23-13.75c3.49-3.55,8.03-5.32,13.62-5.32h0ZM1538.28,134c2.97,0,5.37-1.05,7.23-3.14,1.85-2.09,2.78-4.81,2.78-8.15s-.93-6.05-2.78-8.12c-1.85-2.07-4.26-3.1-7.23-3.1s-5.48,1.03-7.35,3.1c-1.87,2.07-2.8,4.77-2.8,8.12s.93,6.07,2.8,8.15c1.87,2.09,4.31,3.14,7.35,3.14Z"/>
        <path class="st2" d="M1619,117.86v23.05h-8.43v-21.73c0-2.51-.64-4.47-1.94-5.88-1.29-1.41-3.04-2.12-5.27-2.12-2.36,0-4.25.77-5.67,2.31s-2.12,3.7-2.12,6.47v20.94h-8.54v-21.73c0-2.51-.63-4.47-1.88-5.88-1.25-1.41-2.99-2.12-5.22-2.12-2.36,0-4.27.77-5.7,2.31s-2.15,3.7-2.15,6.47v20.94h-8.67v-36.21h8.07l.29,3.48c2.1-3.08,5.53-4.63,10.29-4.63,2.77,0,5.18.57,7.21,1.72s3.57,2.82,4.63,5.02c.89-2.1,2.35-3.76,4.39-4.95s4.47-1.79,7.3-1.79c4.12,0,7.37,1.27,9.79,3.8s3.62,6.03,3.62,10.5v.02Z"/>
        <path class="st2" d="M1661.08,126h-27.75c.29,2.72,1.32,4.8,3.08,6.24s4.02,2.15,6.74,2.15c4.42,0,7.52-1.84,9.29-5.52l7.24,2.87c-1.36,3.18-3.51,5.67-6.43,7.46s-6.3,2.69-10.1,2.69c-5.35,0-9.7-1.75-13.03-5.25-3.33-3.5-5-8.1-5-13.78s1.68-10.31,5.04-13.88,7.75-5.34,13.18-5.34,9.62,1.76,12.87,5.27c3.25,3.51,4.88,8.14,4.88,13.88v3.23h0ZM1633.47,119.9h18.79c-.17-2.94-1.06-5.18-2.67-6.72s-3.79-2.31-6.51-2.31-4.9.78-6.59,2.35c-1.7,1.57-2.7,3.79-3.01,6.69Z"/>
      </g>
      <g>
        <path class="st3" d="M1308.56,137.4c0,3.15-2.59,5.74-5.74,5.74h-80.31c-3.15,0-5.74-2.59-5.74-5.74v-34.42c0-3.15,1.83-7.56,4.05-9.79l37.78-37.78c2.23-2.23,5.88-2.23,8.12,0l37.78,37.78c2.23,2.23,4.05,6.64,4.05,9.79v34.42h0Z"/>
        <path class="st2" d="M1277.96,83.73h-30.6c-1.27,0-2.29,1.02-2.29,2.29v57.11h4.59v-54.82h26.01v4.59h-19.12c-1.27,0-2.29,1.02-2.29,2.29v9.18c0,1.27,1.02,2.29,2.29,2.29h19.12v4.59h-19.12c-1.27,0-2.29,1.02-2.29,2.29v9.18c0,1.27,1.02,2.29,2.29,2.29h19.12v4.59h-19.12c-1.27,0-2.29,1.02-2.29,2.29s1.02,2.29,2.29,2.29h21.42c1.27,0,2.29-1.02,2.29-2.29v-9.18c0-1.27-1.02-2.29-2.29-2.29h-19.12v-4.59h19.12c1.27,0,2.29-1.02,2.29-2.29v-9.18c0-1.27-1.02-2.29-2.29-2.29h-19.12v-4.59h19.12c1.27,0,2.29-1.02,2.29-2.29v-9.18c0-1.27-1.02-2.29-2.29-2.29Z"/>
      </g>
    </g>
  </g>
</svg>