M48
; DRILL file KiCad 10.0.1 date 2026-06-17T19:14:15
; FORMAT={-:-/ absolute / metric / decimal}
; #@! TF.CreationDate,2026-06-17T19:14:15+08:00
; #@! TF.GenerationSoftware,Kicad,Pcbnew,10.0.1
; #@! TF.FileFunction,Plated,1,2,PTH
FMAT,2
METRIC
; #@! TA.AperFunction,Plated,PTH,ViaDrill
T1C0.300
; #@! TA.AperFunction,Plated,PTH,ComponentDrill
T2C0.840
; #@! TA.AperFunction,Plated,PTH,ComponentDrill
T3C0.900
; #@! TA.AperFunction,Plated,PTH,ComponentDrill
T4C0.920
; #@! TA.AperFunction,Plated,PTH,ComponentDrill
T5C1.100
; #@! TA.AperFunction,Plated,PTH,ComponentDrill
T6C1.200
; #@! TA.AperFunction,Plated,PTH,ComponentDrill
T7C2.300
%
G90
G05
T1
X119.0Y-115.25
X119.0Y-116.25
X119.0Y-117.25
X119.0Y-118.25
X119.0Y-119.25
X119.0Y-120.25
X119.0Y-121.25
X119.0Y-122.25
X119.0Y-123.25
X119.0Y-124.25
X119.0Y-125.25
X119.0Y-126.25
X120.0Y-115.25
X120.0Y-116.25
X120.0Y-117.25
X120.0Y-118.25
X120.0Y-119.25
X120.0Y-120.25
X120.0Y-121.25
X120.0Y-122.25
X120.0Y-123.25
X120.0Y-124.25
X120.0Y-125.25
X120.0Y-126.25
X121.0Y-115.25
X121.0Y-116.25
X121.0Y-117.25
X121.0Y-118.25
X121.0Y-119.25
X121.0Y-120.25
X121.0Y-121.25
X121.0Y-122.25
X121.0Y-123.25
X121.0Y-124.25
X121.0Y-125.25
X121.0Y-126.25
X122.0Y-115.25
X122.0Y-116.25
X122.0Y-117.25
X122.0Y-118.25
X122.0Y-119.25
X122.0Y-120.25
X122.0Y-121.25
X122.0Y-122.25
X122.0Y-123.25
X122.0Y-124.25
X122.0Y-125.25
X122.0Y-126.25
X123.0Y-115.25
X123.0Y-116.25
X123.0Y-117.25
X123.0Y-118.25
X123.0Y-119.25
X123.0Y-120.25
X123.0Y-121.25
X123.0Y-122.25
X123.0Y-123.25
X123.0Y-124.25
X123.0Y-125.25
X123.0Y-126.25
X124.0Y-115.25
X124.0Y-116.25
X124.0Y-117.25
X124.0Y-118.25
X124.0Y-119.25
X124.0Y-120.25
X124.0Y-121.25
X124.0Y-122.25
X124.0Y-123.25
X124.0Y-124.25
X124.0Y-125.25
X124.0Y-126.25
X125.0Y-115.25
X125.0Y-116.25
X125.0Y-117.25
X125.0Y-118.25
X125.0Y-119.25
X125.0Y-120.25
X125.0Y-121.25
X125.0Y-122.25
X125.0Y-123.25
X125.0Y-124.25
X125.0Y-125.25
X125.0Y-126.25
X126.0Y-115.25
X126.0Y-116.25
X126.0Y-117.25
X126.0Y-118.25
X126.0Y-119.25
X126.0Y-120.25
X126.0Y-121.25
X126.0Y-122.25
X126.0Y-123.25
X126.0Y-124.25
X126.0Y-125.25
X126.0Y-126.25
X127.0Y-115.25
X127.0Y-116.25
X127.0Y-117.25
X127.0Y-118.25
X127.0Y-119.25
X127.0Y-120.25
X127.0Y-121.25
X127.0Y-122.25
X127.0Y-123.25
X127.0Y-124.25
X127.0Y-125.25
X127.0Y-126.25
X128.0Y-115.25
X128.0Y-116.25
X128.0Y-117.25
X128.0Y-118.25
X128.0Y-119.25
X128.0Y-120.25
X128.0Y-121.25
X128.0Y-122.25
X128.0Y-123.25
X128.0Y-124.25
X128.0Y-125.25
X128.0Y-126.25
X129.0Y-115.25
X129.0Y-116.25
X129.0Y-117.25
X129.0Y-118.25
X129.0Y-119.25
X129.0Y-120.25
X129.0Y-121.25
X129.0Y-122.25
X129.0Y-123.25
X129.0Y-124.25
X129.0Y-125.25
X129.0Y-126.25
X130.0Y-115.25
X130.0Y-116.25
X130.0Y-117.25
X130.0Y-118.25
X130.0Y-119.25
X130.0Y-120.25
X130.0Y-121.25
X130.0Y-122.25
X130.0Y-123.25
X130.0Y-124.25
X130.0Y-125.25
X130.0Y-126.25
X131.0Y-115.25
X131.0Y-116.25
X131.0Y-117.25
X131.0Y-118.25
X131.0Y-119.25
X131.0Y-120.25
X131.0Y-121.25
X131.0Y-122.25
X131.0Y-123.25
X131.0Y-124.25
X131.0Y-125.25
X131.0Y-126.25
X132.0Y-115.25
X132.0Y-116.25
X132.0Y-117.25
X132.0Y-118.25
X132.0Y-119.25
X132.0Y-120.25
X132.0Y-121.25
X132.0Y-122.25
X132.0Y-123.25
X132.0Y-124.25
X132.0Y-125.25
X132.0Y-126.25
X133.0Y-115.25
X133.0Y-116.25
X133.0Y-117.25
X133.0Y-118.25
X133.0Y-119.25
X133.0Y-120.25
X133.0Y-121.25
X133.0Y-122.25
X133.0Y-123.25
X133.0Y-124.25
X133.0Y-125.25
X133.0Y-126.25
X134.0Y-115.25
X134.0Y-116.25
X134.0Y-117.25
X134.0Y-118.25
X134.0Y-119.25
X134.0Y-120.25
X134.0Y-121.25
X134.0Y-122.25
X134.0Y-123.25
X134.0Y-124.25
X134.0Y-125.25
X134.0Y-126.25
X135.0Y-115.25
X135.0Y-116.25
X135.0Y-117.25
X135.0Y-118.25
X135.0Y-119.25
X135.0Y-120.25
X135.0Y-121.25
X135.0Y-122.25
X135.0Y-123.25
X135.0Y-124.25
X135.0Y-125.25
X135.0Y-126.25
X136.0Y-115.25
X136.0Y-116.25
X136.0Y-117.25
X136.0Y-118.25
X136.0Y-119.25
X136.0Y-120.25
X136.0Y-121.25
X136.0Y-122.25
X136.0Y-123.25
X136.0Y-124.25
X136.0Y-125.25
X136.0Y-126.25
X137.0Y-115.25
X137.0Y-116.25
X137.0Y-117.25
X137.0Y-118.25
X137.0Y-119.25
X137.0Y-120.25
X137.0Y-121.25
X137.0Y-122.25
X137.0Y-123.25
X137.0Y-124.25
X137.0Y-125.25
X137.0Y-126.25
X138.0Y-115.25
X138.0Y-116.25
X138.0Y-117.25
X138.0Y-118.25
X138.0Y-119.25
X138.0Y-120.25
X138.0Y-121.25
X138.0Y-122.25
X138.0Y-123.25
X138.0Y-124.25
X138.0Y-125.25
X138.0Y-126.25
X141.8Y-119.5
T2
X119.12Y-113.16
X119.12Y-128.4
X121.66Y-113.16
X121.66Y-128.4
X124.2Y-113.16
X124.2Y-128.4
X126.74Y-113.16
X126.74Y-128.4
X129.28Y-113.16
X129.28Y-128.4
X131.82Y-113.16
X131.82Y-128.4
X134.36Y-113.16
X134.36Y-128.4
X136.9Y-113.16
X136.9Y-128.4
T4
X127.38Y-139.287
X129.88Y-139.287
X131.88Y-139.287
X134.38Y-139.287
T5
X144.06Y-118.46
X144.06Y-121.0
X144.06Y-123.54
T6
X117.22Y-133.46
X137.54Y-133.46
T7
X124.31Y-141.998
X137.45Y-141.998
T3
G00X125.18Y-107.8
M15
G01X125.18Y-106.2
M16
G05
G00X136.58Y-107.8
M15
G01X136.58Y-106.2
M16
G05
M30
