%TF.GenerationSoftware,KiCad,Pcbnew,10.0.1*%
%TF.CreationDate,2026-06-17T19:14:18+08:00*%
%TF.ProjectId,esphome-smart-dimmer-1x1,65737068-6f6d-4652-9d73-6d6172742d64,rev?*%
%TF.SameCoordinates,Original*%
%TF.FileFunction,Copper,L1,Top*%
%TF.FilePolarity,Positive*%
%FSLAX46Y46*%
G04 Gerber Fmt 4.6, Leading zero omitted, Abs format (unit mm)*
G04 Created by KiCad (PCBNEW 10.0.1) date 2026-06-17 19:14:18*
%MOMM*%
%LPD*%
G01*
G04 APERTURE LIST*
G04 Aperture macros list*
%AMRoundRect*
0 Rectangle with rounded corners*
0 $1 Rounding radius*
0 $2 $3 $4 $5 $6 $7 $8 $9 X,Y pos of 4 corners*
0 Add a 4 corners polygon primitive as box body*
4,1,4,$2,$3,$4,$5,$6,$7,$8,$9,$2,$3,0*
0 Add four circle primitives for the rounded corners*
1,1,$1+$1,$2,$3*
1,1,$1+$1,$4,$5*
1,1,$1+$1,$6,$7*
1,1,$1+$1,$8,$9*
0 Add four rect primitives between the rounded corners*
20,1,$1+$1,$2,$3,$4,$5,0*
20,1,$1+$1,$4,$5,$6,$7,0*
20,1,$1+$1,$6,$7,$8,$9,0*
20,1,$1+$1,$8,$9,$2,$3,0*%
G04 Aperture macros list end*
%TA.AperFunction,Conductor*%
%ADD10C,0.200000*%
%TD*%
%ADD11C,0.300000*%
%TA.AperFunction,ComponentPad*%
%ADD12C,2.400000*%
%TD*%
%TA.AperFunction,ComponentPad*%
%ADD13C,1.348000*%
%TD*%
%TA.AperFunction,ComponentPad*%
%ADD14RoundRect,0.250000X-0.512000X-0.512000X0.512000X-0.512000X0.512000X0.512000X-0.512000X0.512000X0*%
%TD*%
%TA.AperFunction,ComponentPad*%
%ADD15C,1.524000*%
%TD*%
%TA.AperFunction,ComponentPad*%
%ADD16C,3.500000*%
%TD*%
%TA.AperFunction,SMDPad,CuDef*%
%ADD17RoundRect,0.250000X0.300000X-1.000000X0.300000X1.000000X-0.300000X1.000000X-0.300000X-1.000000X0*%
%TD*%
%TA.AperFunction,ComponentPad*%
%ADD18O,1.900000X3.500000*%
%TD*%
%TA.AperFunction,ComponentPad*%
%ADD19R,2.000000X1.905000*%
%TD*%
%TA.AperFunction,ComponentPad*%
%ADD20O,2.000000X1.905000*%
%TD*%
%TA.AperFunction,ViaPad*%
%ADD21C,0.600000*%
%TD*%
%TA.AperFunction,Conductor*%
%ADD22C,0.500000*%
%TD*%
G04 APERTURE END LIST*
%TO.N,Out GND*%
D10*
X118070000Y-114410000D02*
X138900000Y-114410000D01*
X138900000Y-127040000D01*
X118070000Y-127040000D01*
X118070000Y-114410000D01*
%TA.AperFunction,Conductor*%
G36*
X118070000Y-114410000D02*
G01*
X138900000Y-114410000D01*
X138900000Y-127040000D01*
X118070000Y-127040000D01*
X118070000Y-114410000D01*
G37*
%TD.AperFunction*%
D11*
G36*
X122501827Y-146050892D02*
G01*
X122650937Y-145868168D01*
X123547614Y-145868168D01*
X123547614Y-147468447D01*
X122636283Y-147468447D01*
X122501827Y-147287921D01*
X122501827Y-147468447D01*
X122086095Y-147468447D01*
X122086095Y-147254307D01*
X122501827Y-147254307D01*
X123127669Y-147254307D01*
X123127669Y-146084506D01*
X122501827Y-146084506D01*
X122501827Y-147254307D01*
X122086095Y-147254307D01*
X122086095Y-145868168D01*
X122501827Y-145868168D01*
X122501827Y-146050892D01*
G37*
G36*
X124884477Y-147040533D02*
G01*
X124231433Y-147040533D01*
X124115936Y-146870449D01*
X124115936Y-147271068D01*
X124932837Y-147271068D01*
X124848756Y-147468447D01*
X123712752Y-147468447D01*
X123712752Y-146836926D01*
X124115936Y-146836926D01*
X124483400Y-146836926D01*
X124483400Y-146550246D01*
X124115936Y-146550246D01*
X124115936Y-146836926D01*
X123712752Y-146836926D01*
X123712752Y-146346548D01*
X124884477Y-146346548D01*
X124884477Y-147040533D01*
G37*
G36*
X126259534Y-146540446D02*
G01*
X126259534Y-146342976D01*
X125081489Y-146342976D01*
X125081489Y-147001882D01*
X125860563Y-147001882D01*
X125860563Y-147273175D01*
X125043662Y-147273175D01*
X125121423Y-147468447D01*
X126255412Y-147468447D01*
X126255412Y-146800198D01*
X125486780Y-146800198D01*
X125486780Y-146540446D01*
X126259534Y-146540446D01*
G37*
G36*
X126903602Y-146216855D02*
G01*
X126903602Y-145868168D01*
X126502525Y-145868168D01*
X126502525Y-146216855D01*
X126903602Y-146216855D01*
G37*
G36*
X126903602Y-147470462D02*
G01*
X126903602Y-146347006D01*
X126502525Y-146347006D01*
X126502525Y-147470462D01*
X126903602Y-147470462D01*
G37*
G36*
X127940688Y-146506832D02*
G01*
X127940688Y-146342976D01*
X128341765Y-146342976D01*
X128341765Y-147902222D01*
X127201548Y-147902222D01*
X127094386Y-147706950D01*
X127940688Y-147706950D01*
X127940688Y-147300469D01*
X127829405Y-147468447D01*
X127144853Y-147468447D01*
X127144853Y-147266855D01*
X127548037Y-147266855D01*
X127940688Y-147266855D01*
X127940688Y-146542553D01*
X127548037Y-146542553D01*
X127548037Y-147266855D01*
X127144853Y-147266855D01*
X127144853Y-146342976D01*
X127814658Y-146342976D01*
X127940688Y-146506832D01*
G37*
G36*
X129695664Y-147470279D02*
G01*
X129695664Y-146348838D01*
X129025767Y-146348838D01*
X128910271Y-146514801D01*
X128910271Y-146348838D01*
X128509193Y-146348838D01*
X128509193Y-147470279D01*
X128910271Y-147470279D01*
X128910271Y-146548415D01*
X129296602Y-146548415D01*
X129296602Y-147470279D01*
X129695664Y-147470279D01*
G37*
G36*
X130872976Y-146045671D02*
G01*
X130988472Y-145865054D01*
X131893575Y-145865054D01*
X131893575Y-146471112D01*
X131673024Y-146628465D01*
X131920869Y-146794520D01*
X131920869Y-147468447D01*
X130996898Y-147468447D01*
X130872976Y-147290027D01*
X130872976Y-147468447D01*
X130450924Y-147468447D01*
X130450924Y-147254307D01*
X130872976Y-147254307D01*
X131496711Y-147254307D01*
X131496711Y-146754403D01*
X130872976Y-146754403D01*
X130872976Y-147254307D01*
X130450924Y-147254307D01*
X130450924Y-146542278D01*
X130872976Y-146542278D01*
X131477752Y-146542278D01*
X131477752Y-146079193D01*
X130872976Y-146079193D01*
X130872976Y-146542278D01*
X130450924Y-146542278D01*
X130450924Y-145865054D01*
X130872976Y-145865054D01*
X130872976Y-146045671D01*
G37*
G36*
X133350148Y-146345907D02*
G01*
X132936431Y-146345907D01*
X132669718Y-146959109D01*
X132417751Y-146345907D01*
X131997714Y-146345907D01*
X132457593Y-147458921D01*
X132344203Y-147708782D01*
X132041861Y-147708782D01*
X132121637Y-147904146D01*
X132671824Y-147904146D01*
X133350148Y-146345907D01*
G37*
G36*
X134447226Y-146042557D02*
G01*
X134573255Y-145868168D01*
X135327141Y-145868168D01*
X135327141Y-146802946D01*
X135104483Y-146802946D01*
X135446851Y-147470737D01*
X134995307Y-147470737D01*
X134650924Y-146802946D01*
X134545961Y-146802946D01*
X134447226Y-146624435D01*
X134447226Y-147470737D01*
X134025174Y-147470737D01*
X134025174Y-146595034D01*
X134447226Y-146595034D01*
X134909211Y-146595034D01*
X134909211Y-146078186D01*
X134447226Y-146078186D01*
X134447226Y-146595034D01*
X134025174Y-146595034D01*
X134025174Y-145868168D01*
X134447226Y-145868168D01*
X134447226Y-146042557D01*
G37*
G36*
X136050985Y-146216855D02*
G01*
X136050985Y-145868168D01*
X135649908Y-145868168D01*
X135649908Y-146216855D01*
X136050985Y-146216855D01*
G37*
G36*
X136050985Y-147470462D02*
G01*
X136050985Y-146347006D01*
X135649908Y-146347006D01*
X135649908Y-147470462D01*
X136050985Y-147470462D01*
G37*
G36*
X137474494Y-147468447D02*
G01*
X136292236Y-147468447D01*
X136292236Y-147273175D01*
X136693313Y-147273175D01*
X137075523Y-147273175D01*
X137075523Y-146542553D01*
X136693313Y-146542553D01*
X136693313Y-147273175D01*
X136292236Y-147273175D01*
X136292236Y-146342976D01*
X137474494Y-146342976D01*
X137474494Y-147468447D01*
G37*
G36*
X138839017Y-147258520D02*
G01*
X138068370Y-147258520D01*
X138068370Y-145866244D01*
X137646318Y-145866244D01*
X137646318Y-147468447D01*
X138750907Y-147468447D01*
X138839017Y-147258520D01*
G37*
G36*
X139450846Y-146216855D02*
G01*
X139450846Y-145868168D01*
X139049768Y-145868168D01*
X139049768Y-146216855D01*
X139450846Y-146216855D01*
G37*
G36*
X139450846Y-147470462D02*
G01*
X139450846Y-146347006D01*
X139049768Y-146347006D01*
X139049768Y-147470462D01*
X139450846Y-147470462D01*
G37*
%TD*%
D12*
%TO.P,R1,1*%
%TO.N,Net-(Q1-G)*%
X137540000Y-133460000D03*
%TO.P,R1,2*%
%TO.N,GPIO4*%
X117220000Y-133460000D03*
%TD*%
D13*
%TO.P,U1,0,GPIO0_0*%
%TO.N,unconnected-(U1-GPIO0-Pad0)*%
X136900000Y-113160000D03*
%TO.P,U1,1,GPIO1_1*%
%TO.N,unconnected-(U1-GPIO1-Pad1)*%
X134360000Y-113160000D03*
%TO.P,U1,2,GPIO2_2*%
%TO.N,unconnected-(U1-GPIO2-Pad2)*%
X131820000Y-113160000D03*
%TO.P,U1,3,GPIO3_3*%
%TO.N,unconnected-(U1-GPIO3-Pad3)*%
X129280000Y-113160000D03*
%TO.P,U1,3.3,3V3_3.3*%
%TO.N,unconnected-(U1-3V3-Pad3.3)*%
X124200000Y-113160000D03*
%TO.P,U1,4,GPIO4_4*%
%TO.N,GPIO4*%
X126740000Y-113160000D03*
%TO.P,U1,5,GPIO5_5*%
%TO.N,unconnected-(U1-GPIO5-Pad5)*%
X119120000Y-128400000D03*
%TO.P,U1,5V,5V_5V*%
%TO.N,VBUS*%
X119120000Y-113160000D03*
%TO.P,U1,6,GPIO6_6*%
%TO.N,unconnected-(U1-GPIO6-Pad6)*%
X121660000Y-128400000D03*
%TO.P,U1,7,GPIO7_7*%
%TO.N,unconnected-(U1-GPIO7-Pad7)*%
X124200000Y-128400000D03*
%TO.P,U1,8,GPIO8_8*%
%TO.N,unconnected-(U1-GPIO8-Pad8)*%
X126740000Y-128400000D03*
%TO.P,U1,9,GPIO9_9*%
%TO.N,unconnected-(U1-GPIO9-Pad9)*%
X129280000Y-128400000D03*
%TO.P,U1,10,GPIO10_10*%
%TO.N,unconnected-(U1-GPIO10-Pad10)*%
X131820000Y-128400000D03*
%TO.P,U1,20,GPIO20_20*%
%TO.N,unconnected-(U1-GPIO20-Pad20)*%
X134360000Y-128400000D03*
%TO.P,U1,21,GPIO21_21*%
%TO.N,unconnected-(U1-GPIO21-Pad21)*%
X136900000Y-128400000D03*
%TO.P,U1,G,GND_G*%
%TO.N,GND*%
X121660000Y-113160000D03*
%TD*%
D14*
%TO.P,J2,1,VBUS_1*%
%TO.N,VBUS*%
X127380000Y-139287500D03*
D15*
%TO.P,J2,2,D-_2*%
%TO.N,unconnected-(J2-D--Pad2)*%
X129880000Y-139287500D03*
%TO.P,J2,3,D+_3*%
%TO.N,unconnected-(J2-D+-Pad3)*%
X131880000Y-139287500D03*
%TO.P,J2,4,GND_4*%
%TO.N,Out GND*%
X134380000Y-139287500D03*
D16*
%TO.P,J2,SH,Shield_SH*%
%TO.N,GND*%
X124310000Y-141997500D03*
X137450000Y-141997500D03*
%TD*%
D17*
%TO.P,J1,1,VBUS_1*%
%TO.N,VBUS*%
X127380000Y-109750000D03*
%TO.P,J1,2,D-_2*%
%TO.N,unconnected-(J1-D--Pad2)*%
X129880000Y-109750000D03*
%TO.P,J1,3,D+_3*%
%TO.N,unconnected-(J1-D+-Pad3)*%
X131880000Y-109750000D03*
%TO.P,J1,4,GND_4*%
%TO.N,GND*%
X134380000Y-109750000D03*
D18*
%TO.P,J1,SH,Shield_SH*%
X125180000Y-107000000D03*
X136580000Y-107000000D03*
%TD*%
D19*
%TO.P,Q1,1,G_1*%
%TO.N,Net-(Q1-G)*%
X144060000Y-118460000D03*
D20*
%TO.P,Q1,2,D_2*%
%TO.N,Out GND*%
X144060000Y-121000000D03*
%TO.P,Q1,3,S_3*%
%TO.N,GND*%
X144060000Y-123540000D03*
%TD*%
D21*
%TO.N,Out GND*%
X131000000Y-124250000D03*
X133000000Y-124250000D03*
X136000000Y-119250000D03*
X135000000Y-122250000D03*
X132000000Y-119250000D03*
X122000000Y-124250000D03*
X136000000Y-122250000D03*
X138000000Y-120250000D03*
X120000000Y-121250000D03*
X128000000Y-119250000D03*
X128000000Y-122250000D03*
X129000000Y-116250000D03*
X128000000Y-123250000D03*
X132000000Y-120250000D03*
X135000000Y-120250000D03*
X138000000Y-119250000D03*
X121000000Y-118250000D03*
X120000000Y-120250000D03*
X123000000Y-115250000D03*
X126000000Y-122250000D03*
X121000000Y-121250000D03*
X123000000Y-118250000D03*
X130000000Y-122250000D03*
X123000000Y-126250000D03*
X133000000Y-118250000D03*
X135000000Y-118250000D03*
X125000000Y-117250000D03*
X137000000Y-119250000D03*
X129000000Y-123250000D03*
X128000000Y-124250000D03*
X136000000Y-120250000D03*
X138000000Y-116250000D03*
X132000000Y-125250000D03*
X131000000Y-116250000D03*
X130000000Y-124250000D03*
X127000000Y-120250000D03*
X126000000Y-120250000D03*
X119000000Y-122250000D03*
X124000000Y-124250000D03*
X120000000Y-122250000D03*
X138000000Y-121250000D03*
X137000000Y-122250000D03*
X138000000Y-124250000D03*
X124000000Y-126250000D03*
X133000000Y-120250000D03*
X119000000Y-125250000D03*
X137000000Y-123250000D03*
X120000000Y-117250000D03*
X134000000Y-116250000D03*
X136000000Y-123250000D03*
X130000000Y-119250000D03*
X126000000Y-117250000D03*
X126000000Y-115250000D03*
X131000000Y-120250000D03*
X123000000Y-116250000D03*
X124000000Y-116250000D03*
X137000000Y-121250000D03*
X124000000Y-118250000D03*
X137000000Y-117250000D03*
X120000000Y-126250000D03*
X133000000Y-122250000D03*
X137000000Y-115250000D03*
X131000000Y-121250000D03*
X125000000Y-118250000D03*
X135000000Y-117250000D03*
X128000000Y-120250000D03*
X124000000Y-125250000D03*
X135000000Y-126250000D03*
X124000000Y-120250000D03*
X136000000Y-118250000D03*
X119000000Y-126250000D03*
X127000000Y-116250000D03*
X131000000Y-126250000D03*
X134000000Y-119250000D03*
X126000000Y-118250000D03*
X136000000Y-116250000D03*
X129000000Y-117250000D03*
X138000000Y-126250000D03*
X121000000Y-125250000D03*
X128000000Y-126250000D03*
X137000000Y-118250000D03*
X131000000Y-123250000D03*
X131000000Y-122250000D03*
X124000000Y-122250000D03*
X128000000Y-117250000D03*
X128000000Y-118250000D03*
X125000000Y-119250000D03*
X138000000Y-118250000D03*
X126000000Y-116250000D03*
X130000000Y-115250000D03*
X133000000Y-116250000D03*
X137000000Y-120250000D03*
X125000000Y-123250000D03*
X133000000Y-121250000D03*
X130000000Y-123250000D03*
X131000000Y-117250000D03*
X120000000Y-119250000D03*
X133000000Y-117250000D03*
X134000000Y-118250000D03*
X131000000Y-115250000D03*
X119000000Y-117250000D03*
X135000000Y-115250000D03*
X124000000Y-119250000D03*
X122000000Y-118250000D03*
X132000000Y-122250000D03*
X127000000Y-118250000D03*
X135000000Y-119250000D03*
X125000000Y-121250000D03*
X133000000Y-125250000D03*
X138000000Y-117250000D03*
X141800000Y-119500000D03*
X127000000Y-122250000D03*
X136000000Y-125250000D03*
X129000000Y-120250000D03*
X136000000Y-124250000D03*
X121000000Y-120250000D03*
X129000000Y-125250000D03*
X133000000Y-119250000D03*
X129000000Y-126250000D03*
X122000000Y-116250000D03*
X131000000Y-125250000D03*
X122000000Y-122250000D03*
X129000000Y-121250000D03*
X126000000Y-119250000D03*
X138000000Y-125250000D03*
X124000000Y-115250000D03*
X120000000Y-115250000D03*
X119000000Y-123250000D03*
X122000000Y-115250000D03*
X120000000Y-125250000D03*
X129000000Y-124250000D03*
X137000000Y-116250000D03*
X119000000Y-118250000D03*
X127000000Y-125250000D03*
X132000000Y-117250000D03*
X127000000Y-121250000D03*
X126000000Y-124250000D03*
X123000000Y-125250000D03*
X121000000Y-115250000D03*
X134000000Y-115250000D03*
X135000000Y-125250000D03*
X138000000Y-122250000D03*
X130000000Y-120250000D03*
X128000000Y-116250000D03*
X123000000Y-123250000D03*
X122000000Y-120250000D03*
X126000000Y-121250000D03*
X119000000Y-124250000D03*
X121000000Y-126250000D03*
X119000000Y-121250000D03*
X120000000Y-118250000D03*
X128000000Y-125250000D03*
X132000000Y-121250000D03*
X135000000Y-124250000D03*
X121000000Y-116250000D03*
X123000000Y-117250000D03*
X131000000Y-118250000D03*
X124000000Y-117250000D03*
X137000000Y-126250000D03*
X124000000Y-121250000D03*
X132000000Y-118250000D03*
X121000000Y-119250000D03*
X130000000Y-118250000D03*
X134000000Y-123250000D03*
X133000000Y-123250000D03*
X122000000Y-117250000D03*
X124000000Y-123250000D03*
X125000000Y-116250000D03*
X129000000Y-122250000D03*
X122000000Y-125250000D03*
X129000000Y-118250000D03*
X126000000Y-126250000D03*
X126000000Y-123250000D03*
X138000000Y-123250000D03*
X130000000Y-121250000D03*
X134000000Y-122250000D03*
X121000000Y-117250000D03*
X132000000Y-124250000D03*
X128000000Y-115250000D03*
X129000000Y-115250000D03*
X137000000Y-125250000D03*
X123000000Y-119250000D03*
X127000000Y-126250000D03*
X136000000Y-121250000D03*
X119000000Y-116250000D03*
X122000000Y-119250000D03*
X135000000Y-116250000D03*
X119000000Y-115250000D03*
X129000000Y-119250000D03*
X136000000Y-126250000D03*
X132000000Y-123250000D03*
X130000000Y-117250000D03*
X125000000Y-126250000D03*
X134000000Y-125250000D03*
X125000000Y-120250000D03*
X125000000Y-115250000D03*
X119000000Y-120250000D03*
X127000000Y-124250000D03*
X137000000Y-124250000D03*
X121000000Y-123250000D03*
X123000000Y-120250000D03*
X120000000Y-124250000D03*
X122000000Y-126250000D03*
X121000000Y-122250000D03*
X130000000Y-116250000D03*
X122000000Y-123250000D03*
X127000000Y-115250000D03*
X132000000Y-116250000D03*
X121000000Y-124250000D03*
X122000000Y-121250000D03*
X119000000Y-119250000D03*
X123000000Y-121250000D03*
X125000000Y-122250000D03*
X125000000Y-125250000D03*
X136000000Y-117250000D03*
X127000000Y-123250000D03*
X123000000Y-122250000D03*
X134000000Y-126250000D03*
X134000000Y-124250000D03*
X132000000Y-115250000D03*
X135000000Y-123250000D03*
X138000000Y-115250000D03*
X128000000Y-121250000D03*
X131000000Y-119250000D03*
X134000000Y-117250000D03*
X130000000Y-126250000D03*
X130000000Y-125250000D03*
X133000000Y-115250000D03*
X125000000Y-124250000D03*
X123000000Y-124250000D03*
X126000000Y-125250000D03*
X135000000Y-121250000D03*
X134000000Y-121250000D03*
X132000000Y-126250000D03*
X134000000Y-120250000D03*
X120000000Y-116250000D03*
X127000000Y-119250000D03*
X133000000Y-126250000D03*
X136000000Y-115250000D03*
X120000000Y-123250000D03*
X127000000Y-117250000D03*
%TD*%
%TO.N,VBUS*%
D22*
X120779857Y-112379856D02*
X121359713Y-111800000D01*
X119900144Y-112379856D02*
X120779857Y-112379856D01*
X119120000Y-113160000D02*
X119900144Y-112379856D01*
X124150000Y-110150000D02*
X127380000Y-110150000D01*
X127380000Y-139287500D02*
X127380000Y-138690000D01*
X122609340Y-111150000D02*
X123150000Y-111150000D01*
X119020000Y-113060000D02*
X119120000Y-113160000D01*
X117220000Y-128530000D02*
X117220000Y-113060000D01*
X127380000Y-138690000D02*
X117220000Y-128530000D01*
X121359713Y-111800000D02*
X121959340Y-111800000D01*
X117220000Y-113060000D02*
X119020000Y-113060000D01*
X121959340Y-111800000D02*
X122609340Y-111150000D01*
X123150000Y-111150000D02*
X124150000Y-110150000D01*
%TO.N,GND*%
X134380000Y-110150000D02*
X132630000Y-111900000D01*
X126230000Y-105950000D02*
X135530000Y-105950000D01*
X134380000Y-110150000D02*
X134380000Y-109600000D01*
X124310000Y-141997500D02*
X137450000Y-141997500D01*
X125180000Y-107000000D02*
X126230000Y-105950000D01*
X141000000Y-114990000D02*
X136160000Y-110150000D01*
X134250000Y-110150000D02*
X134250000Y-109600000D01*
X135530000Y-105950000D02*
X136580000Y-107000000D01*
X136580000Y-107950000D02*
X134380000Y-110150000D01*
X144060000Y-123540000D02*
X144060000Y-135387500D01*
X134380000Y-110150000D02*
X136160000Y-110150000D01*
X122920000Y-111900000D02*
X121660000Y-113160000D01*
X136580000Y-107400000D02*
X136580000Y-107950000D01*
X132630000Y-111900000D02*
X122920000Y-111900000D01*
X144060000Y-135387500D02*
X137450000Y-141997500D01*
X141000000Y-120480000D02*
X144060000Y-123540000D01*
X141000000Y-114990000D02*
X141000000Y-120480000D01*
%TO.N,Out GND*%
X144060000Y-121000000D02*
X143300000Y-121000000D01*
X143300000Y-121000000D02*
X141800000Y-119500000D01*
%TD*%
%TA.AperFunction,NonConductor*%
G36*
X126257813Y-108888217D02*
G01*
X126310290Y-108934347D01*
X126329500Y-109000642D01*
X126329500Y-109275500D01*
X126309815Y-109342539D01*
X126257011Y-109388294D01*
X126205500Y-109399500D01*
X125734067Y-109399500D01*
X125667028Y-109379815D01*
X125621273Y-109327011D01*
X125611329Y-109257853D01*
X125640354Y-109194297D01*
X125695747Y-109157569D01*
X125736799Y-109144231D01*
X125940228Y-109040579D01*
X126124937Y-108906379D01*
X126124945Y-108906370D01*
X126124966Y-108906354D01*
X126124977Y-108906348D01*
X126128878Y-108903515D01*
X126129473Y-108904334D01*
X126188727Y-108877782D01*
X126257813Y-108888217D01*
G37*
%TD.AperFunction*%
%TA.AperFunction,NonConductor*%
G36*
X127739336Y-106720185D02*
G01*
X127785091Y-106772989D01*
X127795035Y-106842147D01*
X127793914Y-106848691D01*
X127779500Y-106921153D01*
X127779500Y-107078846D01*
X127810261Y-107233489D01*
X127810264Y-107233501D01*
X127870602Y-107379172D01*
X127870609Y-107379185D01*
X127958210Y-107510288D01*
X127958213Y-107510292D01*
X128069707Y-107621786D01*
X128069711Y-107621789D01*
X128200814Y-107709390D01*
X128200827Y-107709397D01*
X128346498Y-107769735D01*
X128346503Y-107769737D01*
X128501153Y-107800499D01*
X128501156Y-107800500D01*
X128501158Y-107800500D01*
X128658844Y-107800500D01*
X128658845Y-107800499D01*
X128813497Y-107769737D01*
X128959179Y-107709394D01*
X129090289Y-107621789D01*
X129201789Y-107510289D01*
X129289394Y-107379179D01*
X129349737Y-107233497D01*
X129380500Y-107078842D01*
X129380500Y-106921158D01*
X129380500Y-106921155D01*
X129380499Y-106921153D01*
X129366086Y-106848691D01*
X129372313Y-106779100D01*
X129415176Y-106723922D01*
X129481066Y-106700678D01*
X129487703Y-106700500D01*
X132272297Y-106700500D01*
X132339336Y-106720185D01*
X132385091Y-106772989D01*
X132395035Y-106842147D01*
X132393914Y-106848691D01*
X132379500Y-106921153D01*
X132379500Y-107078846D01*
X132410261Y-107233489D01*
X132410264Y-107233501D01*
X132470602Y-107379172D01*
X132470609Y-107379185D01*
X132558210Y-107510288D01*
X132558213Y-107510292D01*
X132669707Y-107621786D01*
X132669711Y-107621789D01*
X132800814Y-107709390D01*
X132800827Y-107709397D01*
X132946498Y-107769735D01*
X132946503Y-107769737D01*
X133101153Y-107800499D01*
X133101156Y-107800500D01*
X133101158Y-107800500D01*
X133258844Y-107800500D01*
X133258845Y-107800499D01*
X133413497Y-107769737D01*
X133559179Y-107709394D01*
X133690289Y-107621789D01*
X133801789Y-107510289D01*
X133889394Y-107379179D01*
X133949737Y-107233497D01*
X133980500Y-107078842D01*
X133980500Y-106921158D01*
X133980500Y-106921155D01*
X133980499Y-106921153D01*
X133966086Y-106848691D01*
X133972313Y-106779100D01*
X134015176Y-106723922D01*
X134081066Y-106700678D01*
X134087703Y-106700500D01*
X135005500Y-106700500D01*
X135072539Y-106720185D01*
X135118294Y-106772989D01*
X135129500Y-106824500D01*
X135129500Y-107914163D01*
X135130093Y-107917909D01*
X135121135Y-107987202D01*
X135076136Y-108040652D01*
X135009383Y-108061288D01*
X134968616Y-108055007D01*
X134832797Y-108010001D01*
X134832795Y-108010000D01*
X134730010Y-107999500D01*
X134029998Y-107999500D01*
X134029980Y-107999501D01*
X133927203Y-108010000D01*
X133927200Y-108010001D01*
X133760668Y-108065185D01*
X133760663Y-108065187D01*
X133611342Y-108157289D01*
X133487289Y-108281342D01*
X133395187Y-108430663D01*
X133395186Y-108430666D01*
X133340001Y-108597203D01*
X133340001Y-108597204D01*
X133340000Y-108597204D01*
X133329500Y-108699983D01*
X133329500Y-110087769D01*
X133320855Y-110117209D01*
X133314332Y-110147196D01*
X133310577Y-110152211D01*
X133309815Y-110154808D01*
X133293181Y-110175450D01*
X133142180Y-110326451D01*
X133080857Y-110359936D01*
X133011165Y-110354952D01*
X132955232Y-110313080D01*
X132930815Y-110247616D01*
X132930499Y-110238770D01*
X132930499Y-108699998D01*
X132930498Y-108699981D01*
X132919999Y-108597203D01*
X132919998Y-108597200D01*
X132919635Y-108596104D01*
X132864814Y-108430666D01*
X132772712Y-108281344D01*
X132648656Y-108157288D01*
X132499334Y-108065186D01*
X132332797Y-108010001D01*
X132332795Y-108010000D01*
X132230010Y-107999500D01*
X131529998Y-107999500D01*
X131529980Y-107999501D01*
X131427203Y-108010000D01*
X131427200Y-108010001D01*
X131260668Y-108065185D01*
X131260663Y-108065187D01*
X131111342Y-108157289D01*
X130987285Y-108281346D01*
X130985537Y-108284182D01*
X130983829Y-108285717D01*
X130982807Y-108287011D01*
X130982585Y-108286836D01*
X130933589Y-108330905D01*
X130864626Y-108342126D01*
X130800544Y-108314282D01*
X130774463Y-108284182D01*
X130772714Y-108281346D01*
X130648657Y-108157289D01*
X130648656Y-108157288D01*
X130499334Y-108065186D01*
X130332797Y-108010001D01*
X130332795Y-108010000D01*
X130230010Y-107999500D01*
X129529998Y-107999500D01*
X129529980Y-107999501D01*
X129427203Y-108010000D01*
X129427200Y-108010001D01*
X129260668Y-108065185D01*
X129260663Y-108065187D01*
X129111342Y-108157289D01*
X128987289Y-108281342D01*
X128895187Y-108430663D01*
X128895186Y-108430666D01*
X128840001Y-108597203D01*
X128840001Y-108597204D01*
X128840000Y-108597204D01*
X128829500Y-108699983D01*
X128829500Y-110800001D01*
X128829501Y-110800018D01*
X128840000Y-110902796D01*
X128840001Y-110902799D01*
X128867736Y-110986496D01*
X128868715Y-111014960D01*
X128872768Y-111043147D01*
X128869900Y-111049425D01*
X128870138Y-111056324D01*
X128855574Y-111080795D01*
X128843743Y-111106703D01*
X128837935Y-111110435D01*
X128834406Y-111116366D01*
X128808923Y-111129079D01*
X128784965Y-111144477D01*
X128775269Y-111145871D01*
X128771886Y-111147559D01*
X128750030Y-111149500D01*
X128509969Y-111149500D01*
X128442930Y-111129815D01*
X128397175Y-111077011D01*
X128387231Y-111007853D01*
X128392260Y-110986507D01*
X128419999Y-110902797D01*
X128430500Y-110800009D01*
X128430499Y-108699992D01*
X128419999Y-108597203D01*
X128364814Y-108430666D01*
X128272712Y-108281344D01*
X128148656Y-108157288D01*
X127999334Y-108065186D01*
X127832797Y-108010001D01*
X127832795Y-108010000D01*
X127730010Y-107999500D01*
X127029998Y-107999500D01*
X127029980Y-107999501D01*
X126927203Y-108010000D01*
X126927200Y-108010001D01*
X126791384Y-108055007D01*
X126721556Y-108057409D01*
X126661514Y-108021677D01*
X126630321Y-107959157D01*
X126629908Y-107917896D01*
X126630500Y-107914159D01*
X126630500Y-106824500D01*
X126650185Y-106757461D01*
X126702989Y-106711706D01*
X126754500Y-106700500D01*
X127672297Y-106700500D01*
X127739336Y-106720185D01*
G37*
%TD.AperFunction*%
%TA.AperFunction,NonConductor*%
G36*
X126273095Y-110907369D02*
G01*
X126297341Y-110910017D01*
X126306026Y-110917039D01*
X126316738Y-110920185D01*
X126332704Y-110938611D01*
X126351672Y-110953948D01*
X126359363Y-110969377D01*
X126362493Y-110972989D01*
X126367418Y-110985535D01*
X126367749Y-110986535D01*
X126370127Y-111056364D01*
X126334376Y-111116394D01*
X126271845Y-111147566D01*
X126250030Y-111149500D01*
X124511229Y-111149500D01*
X124444190Y-111129815D01*
X124398435Y-111077011D01*
X124388491Y-111007853D01*
X124417516Y-110944297D01*
X124423548Y-110937819D01*
X124424548Y-110936819D01*
X124485871Y-110903334D01*
X124512229Y-110900500D01*
X126249699Y-110900500D01*
X126273095Y-110907369D01*
G37*
%TD.AperFunction*%
%TA.AperFunction,NonConductor*%
G36*
X135864809Y-110920185D02*
G01*
X135885451Y-110936819D01*
X136744742Y-111796110D01*
X136778227Y-111857433D01*
X136773243Y-111927125D01*
X136731371Y-111983058D01*
X136676461Y-112006264D01*
X136624968Y-112014420D01*
X136449150Y-112071546D01*
X136449147Y-112071547D01*
X136284424Y-112155479D01*
X136134870Y-112264135D01*
X136134865Y-112264139D01*
X136004139Y-112394865D01*
X136004135Y-112394870D01*
X135895479Y-112544424D01*
X135811547Y-112709147D01*
X135811546Y-112709150D01*
X135754420Y-112884969D01*
X135752473Y-112897263D01*
X135722543Y-112960397D01*
X135663231Y-112997328D01*
X135593369Y-112996330D01*
X135535136Y-112957719D01*
X135507527Y-112897263D01*
X135507192Y-112895150D01*
X135505580Y-112884971D01*
X135448452Y-112709148D01*
X135448452Y-112709147D01*
X135417017Y-112647453D01*
X135364523Y-112544428D01*
X135319859Y-112482953D01*
X135255864Y-112394870D01*
X135255860Y-112394865D01*
X135125134Y-112264139D01*
X135125129Y-112264135D01*
X134975575Y-112155479D01*
X134975574Y-112155478D01*
X134975572Y-112155477D01*
X134922799Y-112128588D01*
X134810852Y-112071547D01*
X134810849Y-112071546D01*
X134635030Y-112014419D01*
X134452440Y-111985500D01*
X134452435Y-111985500D01*
X134267565Y-111985500D01*
X134267560Y-111985500D01*
X134084969Y-112014419D01*
X133909150Y-112071546D01*
X133909141Y-112071550D01*
X133812941Y-112120566D01*
X133744271Y-112133462D01*
X133679531Y-112107185D01*
X133639275Y-112050078D01*
X133636283Y-111980272D01*
X133668964Y-111922403D01*
X134054549Y-111536817D01*
X134115872Y-111503333D01*
X134142230Y-111500499D01*
X134730002Y-111500499D01*
X134730008Y-111500499D01*
X134832797Y-111489999D01*
X134999334Y-111434814D01*
X135148656Y-111342712D01*
X135272712Y-111218656D01*
X135364814Y-111069334D01*
X135392595Y-110985495D01*
X135432368Y-110928051D01*
X135496884Y-110901228D01*
X135510301Y-110900500D01*
X135797770Y-110900500D01*
X135864809Y-110920185D01*
G37*
%TD.AperFunction*%
%TA.AperFunction,NonConductor*%
G36*
X133253410Y-112440467D02*
G01*
X133309345Y-112482337D01*
X133333764Y-112547801D01*
X133320565Y-112612944D01*
X133271550Y-112709142D01*
X133271546Y-112709150D01*
X133214420Y-112884969D01*
X133212473Y-112897263D01*
X133209290Y-112903976D01*
X133209377Y-112911406D01*
X133194528Y-112935115D01*
X133182543Y-112960397D01*
X133176235Y-112964324D01*
X133172292Y-112970621D01*
X133146982Y-112982539D01*
X133123231Y-112997328D01*
X133115801Y-112997221D01*
X133109080Y-113000387D01*
X133081343Y-112996729D01*
X133053369Y-112996330D01*
X133047176Y-112992224D01*
X133039810Y-112991253D01*
X133018451Y-112973177D01*
X132995136Y-112957719D01*
X132990824Y-112949798D01*
X132986475Y-112946118D01*
X132980661Y-112931129D01*
X132971439Y-112914187D01*
X132968889Y-112905864D01*
X132965580Y-112884971D01*
X132911429Y-112718311D01*
X132911125Y-112717318D01*
X132910728Y-112683382D01*
X132909760Y-112649472D01*
X132910321Y-112648540D01*
X132910309Y-112647453D01*
X132928303Y-112618720D01*
X132945840Y-112589639D01*
X132946966Y-112588920D01*
X132947394Y-112588238D01*
X132949855Y-112587078D01*
X132982241Y-112566431D01*
X132985495Y-112565084D01*
X133050487Y-112521658D01*
X133050487Y-112521657D01*
X133050489Y-112521657D01*
X133079451Y-112502305D01*
X133108416Y-112482952D01*
X133122398Y-112468969D01*
X133183719Y-112435485D01*
X133253410Y-112440467D01*
G37*
%TD.AperFunction*%
%TA.AperFunction,NonConductor*%
G36*
X138212837Y-113284471D02*
G01*
X138263889Y-113315256D01*
X138546452Y-113597819D01*
X138579937Y-113659142D01*
X138574953Y-113728834D01*
X138533081Y-113784767D01*
X138467617Y-113809184D01*
X138458771Y-113809500D01*
X138089586Y-113809500D01*
X138022547Y-113789815D01*
X137976792Y-113737011D01*
X137966848Y-113667853D01*
X137979101Y-113629206D01*
X137988449Y-113610857D01*
X137988452Y-113610852D01*
X138045580Y-113435029D01*
X138053735Y-113383539D01*
X138083664Y-113320405D01*
X138142975Y-113283473D01*
X138212837Y-113284471D01*
G37*
%TD.AperFunction*%
%TA.AperFunction,NonConductor*%
G36*
X145461921Y-121848776D02*
G01*
X145496278Y-121909615D01*
X145499500Y-121937700D01*
X145499500Y-122602299D01*
X145479815Y-122669338D01*
X145427011Y-122715093D01*
X145357853Y-122725037D01*
X145294297Y-122696012D01*
X145275183Y-122675185D01*
X145215790Y-122593440D01*
X145215786Y-122593434D01*
X145054066Y-122431714D01*
X144969559Y-122370316D01*
X144926896Y-122314988D01*
X144920917Y-122245375D01*
X144953523Y-122183580D01*
X144969556Y-122169685D01*
X145054066Y-122108286D01*
X145215786Y-121946566D01*
X145275182Y-121864813D01*
X145330512Y-121822149D01*
X145400126Y-121816170D01*
X145461921Y-121848776D01*
G37*
%TD.AperFunction*%
%TA.AperFunction,NonConductor*%
G36*
X135833501Y-127660185D02*
G01*
X135879256Y-127712989D01*
X135889200Y-127782147D01*
X135876947Y-127820795D01*
X135811547Y-127949147D01*
X135811546Y-127949150D01*
X135754420Y-128124969D01*
X135752473Y-128137263D01*
X135722543Y-128200397D01*
X135663231Y-128237328D01*
X135593369Y-128236330D01*
X135535136Y-128197719D01*
X135507527Y-128137263D01*
X135507192Y-128135150D01*
X135505580Y-128124971D01*
X135448452Y-127949148D01*
X135448452Y-127949147D01*
X135383053Y-127820795D01*
X135370157Y-127752126D01*
X135396433Y-127687385D01*
X135453540Y-127647128D01*
X135493538Y-127640500D01*
X135766462Y-127640500D01*
X135833501Y-127660185D01*
G37*
%TD.AperFunction*%
%TA.AperFunction,NonConductor*%
G36*
X133293501Y-127660185D02*
G01*
X133339256Y-127712989D01*
X133349200Y-127782147D01*
X133336947Y-127820795D01*
X133271547Y-127949147D01*
X133271546Y-127949150D01*
X133214420Y-128124969D01*
X133212473Y-128137263D01*
X133182543Y-128200397D01*
X133123231Y-128237328D01*
X133053369Y-128236330D01*
X132995136Y-128197719D01*
X132967527Y-128137263D01*
X132967192Y-128135150D01*
X132965580Y-128124971D01*
X132908452Y-127949148D01*
X132908452Y-127949147D01*
X132843053Y-127820795D01*
X132830157Y-127752126D01*
X132856433Y-127687385D01*
X132913540Y-127647128D01*
X132953538Y-127640500D01*
X133226462Y-127640500D01*
X133293501Y-127660185D01*
G37*
%TD.AperFunction*%
%TA.AperFunction,NonConductor*%
G36*
X130753501Y-127660185D02*
G01*
X130799256Y-127712989D01*
X130809200Y-127782147D01*
X130796947Y-127820795D01*
X130731547Y-127949147D01*
X130731546Y-127949150D01*
X130674420Y-128124969D01*
X130672473Y-128137263D01*
X130642543Y-128200397D01*
X130583231Y-128237328D01*
X130513369Y-128236330D01*
X130455136Y-128197719D01*
X130427527Y-128137263D01*
X130427192Y-128135150D01*
X130425580Y-128124971D01*
X130368452Y-127949148D01*
X130368452Y-127949147D01*
X130303053Y-127820795D01*
X130290157Y-127752126D01*
X130316433Y-127687385D01*
X130373540Y-127647128D01*
X130413538Y-127640500D01*
X130686462Y-127640500D01*
X130753501Y-127660185D01*
G37*
%TD.AperFunction*%
%TA.AperFunction,NonConductor*%
G36*
X128213501Y-127660185D02*
G01*
X128259256Y-127712989D01*
X128269200Y-127782147D01*
X128256947Y-127820795D01*
X128191547Y-127949147D01*
X128191546Y-127949150D01*
X128134420Y-128124969D01*
X128132473Y-128137263D01*
X128102543Y-128200397D01*
X128043231Y-128237328D01*
X127973369Y-128236330D01*
X127915136Y-128197719D01*
X127887527Y-128137263D01*
X127887192Y-128135150D01*
X127885580Y-128124971D01*
X127828452Y-127949148D01*
X127828452Y-127949147D01*
X127763053Y-127820795D01*
X127750157Y-127752126D01*
X127776433Y-127687385D01*
X127833540Y-127647128D01*
X127873538Y-127640500D01*
X128146462Y-127640500D01*
X128213501Y-127660185D01*
G37*
%TD.AperFunction*%
%TA.AperFunction,NonConductor*%
G36*
X125673501Y-127660185D02*
G01*
X125719256Y-127712989D01*
X125729200Y-127782147D01*
X125716947Y-127820795D01*
X125651547Y-127949147D01*
X125651546Y-127949150D01*
X125594420Y-128124969D01*
X125592473Y-128137263D01*
X125562543Y-128200397D01*
X125503231Y-128237328D01*
X125433369Y-128236330D01*
X125375136Y-128197719D01*
X125347527Y-128137263D01*
X125347192Y-128135150D01*
X125345580Y-128124971D01*
X125288452Y-127949148D01*
X125288452Y-127949147D01*
X125223053Y-127820795D01*
X125210157Y-127752126D01*
X125236433Y-127687385D01*
X125293540Y-127647128D01*
X125333538Y-127640500D01*
X125606462Y-127640500D01*
X125673501Y-127660185D01*
G37*
%TD.AperFunction*%
%TA.AperFunction,NonConductor*%
G36*
X123133501Y-127660185D02*
G01*
X123179256Y-127712989D01*
X123189200Y-127782147D01*
X123176947Y-127820795D01*
X123111547Y-127949147D01*
X123111546Y-127949150D01*
X123054420Y-128124969D01*
X123052473Y-128137263D01*
X123022543Y-128200397D01*
X122963231Y-128237328D01*
X122893369Y-128236330D01*
X122835136Y-128197719D01*
X122807527Y-128137263D01*
X122807192Y-128135150D01*
X122805580Y-128124971D01*
X122748452Y-127949148D01*
X122748452Y-127949147D01*
X122683053Y-127820795D01*
X122670157Y-127752126D01*
X122696433Y-127687385D01*
X122753540Y-127647128D01*
X122793538Y-127640500D01*
X123066462Y-127640500D01*
X123133501Y-127660185D01*
G37*
%TD.AperFunction*%
%TA.AperFunction,NonConductor*%
G36*
X120593501Y-127660185D02*
G01*
X120639256Y-127712989D01*
X120649200Y-127782147D01*
X120636947Y-127820795D01*
X120571547Y-127949147D01*
X120571546Y-127949150D01*
X120514420Y-128124969D01*
X120512473Y-128137263D01*
X120482543Y-128200397D01*
X120423231Y-128237328D01*
X120353369Y-128236330D01*
X120295136Y-128197719D01*
X120267527Y-128137263D01*
X120267192Y-128135150D01*
X120265580Y-128124971D01*
X120208452Y-127949148D01*
X120208452Y-127949147D01*
X120143053Y-127820795D01*
X120130157Y-127752126D01*
X120156433Y-127687385D01*
X120213540Y-127647128D01*
X120253538Y-127640500D01*
X120526462Y-127640500D01*
X120593501Y-127660185D01*
G37*
%TD.AperFunction*%
%TA.AperFunction,NonConductor*%
G36*
X144004418Y-104400816D02*
G01*
X144204561Y-104415130D01*
X144222063Y-104417647D01*
X144413795Y-104459355D01*
X144430760Y-104464336D01*
X144614611Y-104532909D01*
X144630694Y-104540253D01*
X144747495Y-104604032D01*
X144802908Y-104634290D01*
X144817791Y-104643855D01*
X144974864Y-104761438D01*
X144988235Y-104773024D01*
X145126975Y-104911764D01*
X145138561Y-104925135D01*
X145256144Y-105082208D01*
X145265709Y-105097091D01*
X145359743Y-105269300D01*
X145367093Y-105285394D01*
X145435661Y-105469234D01*
X145440645Y-105486209D01*
X145482351Y-105677931D01*
X145484869Y-105695442D01*
X145499184Y-105895580D01*
X145499500Y-105904427D01*
X145499500Y-116963582D01*
X145479815Y-117030621D01*
X145427011Y-117076376D01*
X145357853Y-117086320D01*
X145310741Y-117066805D01*
X145310114Y-117067954D01*
X145302328Y-117063702D01*
X145167482Y-117013408D01*
X145167483Y-117013408D01*
X145107883Y-117007001D01*
X145107881Y-117007000D01*
X145107873Y-117007000D01*
X145107864Y-117007000D01*
X143012129Y-117007000D01*
X143012123Y-117007001D01*
X142952516Y-117013408D01*
X142817671Y-117063702D01*
X142817664Y-117063706D01*
X142702455Y-117149952D01*
X142702452Y-117149955D01*
X142616206Y-117265164D01*
X142616202Y-117265171D01*
X142565908Y-117400017D01*
X142559501Y-117459616D01*
X142559500Y-117459635D01*
X142559500Y-118828059D01*
X142539815Y-118895098D01*
X142487011Y-118940853D01*
X142417853Y-118950797D01*
X142354297Y-118921772D01*
X142347819Y-118915740D01*
X142310292Y-118878213D01*
X142310288Y-118878210D01*
X142179185Y-118790609D01*
X142179172Y-118790602D01*
X142033501Y-118730264D01*
X142033489Y-118730261D01*
X141878845Y-118699500D01*
X141878842Y-118699500D01*
X141874500Y-118699500D01*
X141807461Y-118679815D01*
X141761706Y-118627011D01*
X141750500Y-118575500D01*
X141750500Y-114916080D01*
X141741497Y-114870823D01*
X141741497Y-114870821D01*
X141721659Y-114771088D01*
X141667408Y-114640117D01*
X141665764Y-114635522D01*
X141582954Y-114511588D01*
X141582953Y-114511587D01*
X141582951Y-114511584D01*
X141478416Y-114407049D01*
X140323802Y-113252435D01*
X136638421Y-109567052D01*
X136638414Y-109567046D01*
X136564729Y-109517812D01*
X136564729Y-109517813D01*
X136515495Y-109484916D01*
X136515494Y-109484915D01*
X136515489Y-109484912D01*
X136513513Y-109483856D01*
X136512672Y-109483030D01*
X136510430Y-109481532D01*
X136510714Y-109481106D01*
X136463670Y-109434892D01*
X136448212Y-109366754D01*
X136472046Y-109301075D01*
X136527605Y-109258708D01*
X136571970Y-109250500D01*
X136694162Y-109250500D01*
X136919660Y-109214784D01*
X137136799Y-109144231D01*
X137340228Y-109040579D01*
X137524937Y-108906379D01*
X137686379Y-108744937D01*
X137820579Y-108560228D01*
X137924231Y-108356799D01*
X137994784Y-108139660D01*
X137997694Y-108121288D01*
X138030500Y-107914162D01*
X138030500Y-107878711D01*
X140349500Y-107878711D01*
X140349500Y-108121288D01*
X140381161Y-108361785D01*
X140443947Y-108596104D01*
X140536773Y-108820205D01*
X140536776Y-108820212D01*
X140658064Y-109030289D01*
X140658066Y-109030292D01*
X140658067Y-109030293D01*
X140805733Y-109222736D01*
X140805739Y-109222743D01*
X140977256Y-109394260D01*
X140977263Y-109394266D01*
X141021668Y-109428339D01*
X141169711Y-109541936D01*
X141379788Y-109663224D01*
X141603900Y-109756054D01*
X141838211Y-109818838D01*
X142018586Y-109842584D01*
X142078711Y-109850500D01*
X142078712Y-109850500D01*
X142321289Y-109850500D01*
X142369388Y-109844167D01*
X142561789Y-109818838D01*
X142796100Y-109756054D01*
X143020212Y-109663224D01*
X143230289Y-109541936D01*
X143422738Y-109394265D01*
X143594265Y-109222738D01*
X143741936Y-109030289D01*
X143863224Y-108820212D01*
X143956054Y-108596100D01*
X144018838Y-108361789D01*
X144050500Y-108121288D01*
X144050500Y-107878712D01*
X144018838Y-107638211D01*
X143956054Y-107403900D01*
X143863224Y-107179788D01*
X143741936Y-106969711D01*
X143630512Y-106824500D01*
X143594266Y-106777263D01*
X143594260Y-106777256D01*
X143422743Y-106605739D01*
X143422736Y-106605733D01*
X143230293Y-106458067D01*
X143230292Y-106458066D01*
X143230289Y-106458064D01*
X143020212Y-106336776D01*
X143020205Y-106336773D01*
X142796104Y-106243947D01*
X142561785Y-106181161D01*
X142321289Y-106149500D01*
X142321288Y-106149500D01*
X142078712Y-106149500D01*
X142078711Y-106149500D01*
X141838214Y-106181161D01*
X141603895Y-106243947D01*
X141379794Y-106336773D01*
X141379785Y-106336777D01*
X141169706Y-106458067D01*
X140977263Y-106605733D01*
X140977256Y-106605739D01*
X140805739Y-106777256D01*
X140805733Y-106777263D01*
X140658067Y-106969706D01*
X140536777Y-107179785D01*
X140536773Y-107179794D01*
X140443947Y-107403895D01*
X140381161Y-107638214D01*
X140349500Y-107878711D01*
X138030500Y-107878711D01*
X138030500Y-106085837D01*
X137994784Y-105860339D01*
X137958525Y-105748748D01*
X137924231Y-105643201D01*
X137924229Y-105643198D01*
X137924229Y-105643196D01*
X137844240Y-105486209D01*
X137820579Y-105439772D01*
X137686379Y-105255063D01*
X137524937Y-105093621D01*
X137340228Y-104959421D01*
X137272938Y-104925135D01*
X137136803Y-104855770D01*
X136919660Y-104785215D01*
X136694162Y-104749500D01*
X136694157Y-104749500D01*
X136465843Y-104749500D01*
X136465838Y-104749500D01*
X136240339Y-104785215D01*
X136023196Y-104855770D01*
X135819771Y-104959421D01*
X135635061Y-105093622D01*
X135635060Y-105093623D01*
X135565503Y-105163181D01*
X135504180Y-105196666D01*
X135477822Y-105199500D01*
X126282178Y-105199500D01*
X126215139Y-105179815D01*
X126194497Y-105163181D01*
X126124938Y-105093622D01*
X125940228Y-104959421D01*
X125736803Y-104855770D01*
X125519660Y-104785215D01*
X125294162Y-104749500D01*
X125294157Y-104749500D01*
X125065843Y-104749500D01*
X125065838Y-104749500D01*
X124840339Y-104785215D01*
X124623196Y-104855770D01*
X124419771Y-104959421D01*
X124235061Y-105093622D01*
X124073622Y-105255061D01*
X123939421Y-105439771D01*
X123835770Y-105643196D01*
X123765215Y-105860339D01*
X123729500Y-106085837D01*
X123729500Y-107914162D01*
X123765215Y-108139660D01*
X123835770Y-108356803D01*
X123939421Y-108560228D01*
X124073621Y-108744937D01*
X124235063Y-108906379D01*
X124419772Y-109040579D01*
X124515884Y-109089550D01*
X124623196Y-109144229D01*
X124623198Y-109144229D01*
X124623201Y-109144231D01*
X124664252Y-109157569D01*
X124721927Y-109197007D01*
X124749125Y-109261366D01*
X124737210Y-109330212D01*
X124689966Y-109381688D01*
X124625933Y-109399500D01*
X124076076Y-109399500D01*
X124047242Y-109405234D01*
X124047243Y-109405235D01*
X123931093Y-109428339D01*
X123931083Y-109428342D01*
X123851081Y-109461479D01*
X123851082Y-109461480D01*
X123794515Y-109484912D01*
X123794505Y-109484916D01*
X123745273Y-109517812D01*
X123732896Y-109526082D01*
X123671582Y-109567049D01*
X123671579Y-109567052D01*
X122875451Y-110363181D01*
X122814128Y-110396666D01*
X122787770Y-110399500D01*
X122535420Y-110399500D01*
X122390432Y-110428340D01*
X122390426Y-110428342D01*
X122253848Y-110484914D01*
X122253836Y-110484921D01*
X122204609Y-110517813D01*
X122130928Y-110567044D01*
X122130920Y-110567050D01*
X121684791Y-111013181D01*
X121623468Y-111046666D01*
X121597110Y-111049500D01*
X121285793Y-111049500D01*
X121140805Y-111078340D01*
X121140795Y-111078343D01*
X121004224Y-111134912D01*
X121004211Y-111134919D01*
X120881297Y-111217048D01*
X120881293Y-111217051D01*
X120505308Y-111593037D01*
X120443985Y-111626522D01*
X120417627Y-111629356D01*
X119826224Y-111629356D01*
X119681236Y-111658196D01*
X119681226Y-111658199D01*
X119544655Y-111714768D01*
X119544642Y-111714775D01*
X119421731Y-111796902D01*
X119421728Y-111796905D01*
X119269448Y-111949182D01*
X119208126Y-111982666D01*
X119181769Y-111985500D01*
X119027560Y-111985500D01*
X118844969Y-112014419D01*
X118669150Y-112071546D01*
X118669147Y-112071547D01*
X118504424Y-112155479D01*
X118354870Y-112264135D01*
X118354865Y-112264139D01*
X118345824Y-112273181D01*
X118284501Y-112306666D01*
X118258143Y-112309500D01*
X117146080Y-112309500D01*
X117001092Y-112338340D01*
X117001082Y-112338343D01*
X116864511Y-112394912D01*
X116864498Y-112394919D01*
X116741584Y-112477048D01*
X116741580Y-112477051D01*
X116637051Y-112581580D01*
X116637048Y-112581584D01*
X116554919Y-112704498D01*
X116554912Y-112704511D01*
X116498343Y-112841082D01*
X116498340Y-112841092D01*
X116469500Y-112986079D01*
X116469500Y-112986082D01*
X116469500Y-128603918D01*
X116469500Y-128603920D01*
X116469499Y-128603920D01*
X116498340Y-128748907D01*
X116498343Y-128748917D01*
X116554914Y-128885492D01*
X116587812Y-128934727D01*
X116587813Y-128934730D01*
X116637046Y-129008414D01*
X116637052Y-129008421D01*
X126104614Y-138475982D01*
X126138099Y-138537305D01*
X126134641Y-138602662D01*
X126128001Y-138622703D01*
X126117500Y-138725483D01*
X126117500Y-139849501D01*
X126117501Y-139849518D01*
X126128000Y-139952296D01*
X126128001Y-139952299D01*
X126180247Y-140109964D01*
X126183186Y-140118834D01*
X126275288Y-140268156D01*
X126399344Y-140392212D01*
X126548666Y-140484314D01*
X126715203Y-140539499D01*
X126817991Y-140550000D01*
X127942008Y-140549999D01*
X128044797Y-140539499D01*
X128211334Y-140484314D01*
X128360656Y-140392212D01*
X128484712Y-140268156D01*
X128576814Y-140118834D01*
X128609393Y-140020515D01*
X128649164Y-139963073D01*
X128713680Y-139936250D01*
X128782456Y-139948565D01*
X128827416Y-139986636D01*
X128917019Y-140109964D01*
X129057536Y-140250481D01*
X129218306Y-140367287D01*
X129267220Y-140392210D01*
X129395367Y-140457505D01*
X129395370Y-140457506D01*
X129477872Y-140484312D01*
X129584364Y-140518913D01*
X129780639Y-140550000D01*
X129780640Y-140550000D01*
X129979360Y-140550000D01*
X129979361Y-140550000D01*
X130175636Y-140518913D01*
X130364632Y-140457505D01*
X130541694Y-140367287D01*
X130702464Y-140250481D01*
X130792319Y-140160626D01*
X130853642Y-140127141D01*
X130923334Y-140132125D01*
X130967681Y-140160626D01*
X131057536Y-140250481D01*
X131218306Y-140367287D01*
X131267220Y-140392210D01*
X131395367Y-140457505D01*
X131395370Y-140457506D01*
X131477872Y-140484312D01*
X131584364Y-140518913D01*
X131780639Y-140550000D01*
X131780640Y-140550000D01*
X131979360Y-140550000D01*
X131979361Y-140550000D01*
X132175636Y-140518913D01*
X132364632Y-140457505D01*
X132541694Y-140367287D01*
X132702464Y-140250481D01*
X132842981Y-140109964D01*
X132959787Y-139949194D01*
X133019515Y-139831970D01*
X133067490Y-139781175D01*
X133135311Y-139764380D01*
X133201445Y-139786917D01*
X133240484Y-139831969D01*
X133300213Y-139949194D01*
X133417019Y-140109964D01*
X133557536Y-140250481D01*
X133718306Y-140367287D01*
X133767220Y-140392210D01*
X133895367Y-140457505D01*
X133895370Y-140457506D01*
X133977872Y-140484312D01*
X134084364Y-140518913D01*
X134280639Y-140550000D01*
X134280640Y-140550000D01*
X134479360Y-140550000D01*
X134479361Y-140550000D01*
X134675636Y-140518913D01*
X134864632Y-140457505D01*
X135041694Y-140367287D01*
X135202464Y-140250481D01*
X135342981Y-140109964D01*
X135459787Y-139949194D01*
X135550005Y-139772132D01*
X135611413Y-139583136D01*
X135642500Y-139386861D01*
X135642500Y-139188139D01*
X135611413Y-138991864D01*
X135580709Y-138897366D01*
X135550006Y-138802870D01*
X135550005Y-138802867D01*
X135465494Y-138637007D01*
X135459787Y-138625806D01*
X135342981Y-138465036D01*
X135202464Y-138324519D01*
X135041694Y-138207713D01*
X134864632Y-138117494D01*
X134864629Y-138117493D01*
X134675637Y-138056087D01*
X134577498Y-138040543D01*
X134479361Y-138025000D01*
X134280639Y-138025000D01*
X134215214Y-138035362D01*
X134084362Y-138056087D01*
X133895370Y-138117493D01*
X133895367Y-138117494D01*
X133718305Y-138207713D01*
X133557533Y-138324521D01*
X133417021Y-138465033D01*
X133300213Y-138625805D01*
X133240485Y-138743028D01*
X133192510Y-138793824D01*
X133124689Y-138810619D01*
X133058554Y-138788081D01*
X133019515Y-138743028D01*
X132965494Y-138637007D01*
X132959787Y-138625806D01*
X132842981Y-138465036D01*
X132702464Y-138324519D01*
X132541694Y-138207713D01*
X132364632Y-138117494D01*
X132364629Y-138117493D01*
X132175637Y-138056087D01*
X132077498Y-138040543D01*
X131979361Y-138025000D01*
X131780639Y-138025000D01*
X131715214Y-138035362D01*
X131584362Y-138056087D01*
X131395370Y-138117493D01*
X131395367Y-138117494D01*
X131218305Y-138207713D01*
X131057533Y-138324521D01*
X130967681Y-138414374D01*
X130906358Y-138447859D01*
X130836666Y-138442875D01*
X130792319Y-138414374D01*
X130702466Y-138324521D01*
X130702464Y-138324519D01*
X130541694Y-138207713D01*
X130364632Y-138117494D01*
X130364629Y-138117493D01*
X130175637Y-138056087D01*
X130077498Y-138040543D01*
X129979361Y-138025000D01*
X129780639Y-138025000D01*
X129715214Y-138035362D01*
X129584362Y-138056087D01*
X129395370Y-138117493D01*
X129395367Y-138117494D01*
X129218305Y-138207713D01*
X129057533Y-138324521D01*
X128917020Y-138465034D01*
X128827416Y-138588363D01*
X128772085Y-138631028D01*
X128702472Y-138637007D01*
X128640677Y-138604401D01*
X128609392Y-138554481D01*
X128576814Y-138456166D01*
X128484712Y-138306844D01*
X128360656Y-138182788D01*
X128211334Y-138090686D01*
X128044797Y-138035501D01*
X128044795Y-138035500D01*
X127942016Y-138025000D01*
X127942009Y-138025000D01*
X127827730Y-138025000D01*
X127760691Y-138005315D01*
X127740049Y-137988681D01*
X123099917Y-133348549D01*
X135839500Y-133348549D01*
X135839500Y-133571450D01*
X135839501Y-133571466D01*
X135868594Y-133792452D01*
X135868595Y-133792457D01*
X135868596Y-133792463D01*
X135868597Y-133792465D01*
X135926290Y-134007780D01*
X135926293Y-134007790D01*
X136011593Y-134213722D01*
X136011595Y-134213726D01*
X136123052Y-134406774D01*
X136123057Y-134406780D01*
X136123058Y-134406782D01*
X136258751Y-134583622D01*
X136258757Y-134583629D01*
X136416370Y-134741242D01*
X136416376Y-134741247D01*
X136593226Y-134876948D01*
X136786274Y-134988405D01*
X136992219Y-135073710D01*
X137207537Y-135131404D01*
X137428543Y-135160500D01*
X137428550Y-135160500D01*
X137651450Y-135160500D01*
X137651457Y-135160500D01*
X137872463Y-135131404D01*
X138087781Y-135073710D01*
X138293726Y-134988405D01*
X138486774Y-134876948D01*
X138663624Y-134741247D01*
X138821247Y-134583624D01*
X138956948Y-134406774D01*
X139068405Y-134213726D01*
X139153710Y-134007781D01*
X139211404Y-133792463D01*
X139240500Y-133571457D01*
X139240500Y-133348543D01*
X139211404Y-133127537D01*
X139153710Y-132912219D01*
X139068405Y-132706274D01*
X138956948Y-132513226D01*
X138845675Y-132368211D01*
X138821248Y-132336377D01*
X138821242Y-132336370D01*
X138663629Y-132178757D01*
X138663622Y-132178751D01*
X138486782Y-132043058D01*
X138486780Y-132043057D01*
X138486774Y-132043052D01*
X138293726Y-131931595D01*
X138293722Y-131931593D01*
X138087790Y-131846293D01*
X138087783Y-131846291D01*
X138087781Y-131846290D01*
X137872463Y-131788596D01*
X137872457Y-131788595D01*
X137872452Y-131788594D01*
X137651466Y-131759501D01*
X137651463Y-131759500D01*
X137651457Y-131759500D01*
X137428543Y-131759500D01*
X137428537Y-131759500D01*
X137428533Y-131759501D01*
X137207547Y-131788594D01*
X137207540Y-131788595D01*
X137207537Y-131788596D01*
X136992219Y-131846290D01*
X136992209Y-131846293D01*
X136786277Y-131931593D01*
X136786273Y-131931595D01*
X136593226Y-132043052D01*
X136593217Y-132043058D01*
X136416377Y-132178751D01*
X136416370Y-132178757D01*
X136258757Y-132336370D01*
X136258751Y-132336377D01*
X136123058Y-132513217D01*
X136123052Y-132513226D01*
X136011595Y-132706273D01*
X136011593Y-132706277D01*
X135926293Y-132912209D01*
X135926290Y-132912219D01*
X135868597Y-133127534D01*
X135868594Y-133127547D01*
X135839501Y-133348533D01*
X135839500Y-133348549D01*
X123099917Y-133348549D01*
X119464084Y-129712716D01*
X119430599Y-129651393D01*
X119435583Y-129581701D01*
X119477455Y-129525768D01*
X119513448Y-129507104D01*
X119570846Y-129488454D01*
X119570852Y-129488452D01*
X119735572Y-129404523D01*
X119885136Y-129295859D01*
X120015859Y-129165136D01*
X120124523Y-129015572D01*
X120208452Y-128850852D01*
X120265580Y-128675029D01*
X120267527Y-128662737D01*
X120297456Y-128599602D01*
X120356768Y-128562671D01*
X120426630Y-128563669D01*
X120484863Y-128602279D01*
X120512473Y-128662737D01*
X120514420Y-128675030D01*
X120571546Y-128850849D01*
X120571547Y-128850852D01*
X120589199Y-128885495D01*
X120651833Y-129008421D01*
X120655479Y-129015575D01*
X120764135Y-129165129D01*
X120764139Y-129165134D01*
X120894865Y-129295860D01*
X120894870Y-129295864D01*
X121025318Y-129390639D01*
X121044428Y-129404523D01*
X121152106Y-129459388D01*
X121209147Y-129488452D01*
X121209150Y-129488453D01*
X121384969Y-129545580D01*
X121567560Y-129574500D01*
X121567565Y-129574500D01*
X121752440Y-129574500D01*
X121935030Y-129545580D01*
X122110849Y-129488453D01*
X122110852Y-129488452D01*
X122275572Y-129404523D01*
X122425136Y-129295859D01*
X122555859Y-129165136D01*
X122664523Y-129015572D01*
X122748452Y-128850852D01*
X122805580Y-128675029D01*
X122807527Y-128662737D01*
X122837456Y-128599602D01*
X122896768Y-128562671D01*
X122966630Y-128563669D01*
X123024863Y-128602279D01*
X123052473Y-128662737D01*
X123054420Y-128675030D01*
X123111546Y-128850849D01*
X123111547Y-128850852D01*
X123129199Y-128885495D01*
X123191833Y-129008421D01*
X123195479Y-129015575D01*
X123304135Y-129165129D01*
X123304139Y-129165134D01*
X123434865Y-129295860D01*
X123434870Y-129295864D01*
X123565318Y-129390639D01*
X123584428Y-129404523D01*
X123692106Y-129459388D01*
X123749147Y-129488452D01*
X123749150Y-129488453D01*
X123924969Y-129545580D01*
X124107560Y-129574500D01*
X124107565Y-129574500D01*
X124292440Y-129574500D01*
X124475030Y-129545580D01*
X124650849Y-129488453D01*
X124650852Y-129488452D01*
X124815572Y-129404523D01*
X124965136Y-129295859D01*
X125095859Y-129165136D01*
X125204523Y-129015572D01*
X125288452Y-128850852D01*
X125345580Y-128675029D01*
X125347527Y-128662737D01*
X125377456Y-128599602D01*
X125436768Y-128562671D01*
X125506630Y-128563669D01*
X125564863Y-128602279D01*
X125592473Y-128662737D01*
X125594420Y-128675030D01*
X125651546Y-128850849D01*
X125651547Y-128850852D01*
X125669199Y-128885495D01*
X125731833Y-129008421D01*
X125735479Y-129015575D01*
X125844135Y-129165129D01*
X125844139Y-129165134D01*
X125974865Y-129295860D01*
X125974870Y-129295864D01*
X126105318Y-129390639D01*
X126124428Y-129404523D01*
X126232106Y-129459388D01*
X126289147Y-129488452D01*
X126289150Y-129488453D01*
X126464969Y-129545580D01*
X126647560Y-129574500D01*
X126647565Y-129574500D01*
X126832440Y-129574500D01*
X127015030Y-129545580D01*
X127190849Y-129488453D01*
X127190852Y-129488452D01*
X127355572Y-129404523D01*
X127505136Y-129295859D01*
X127635859Y-129165136D01*
X127744523Y-129015572D01*
X127828452Y-128850852D01*
X127885580Y-128675029D01*
X127887527Y-128662737D01*
X127917456Y-128599602D01*
X127976768Y-128562671D01*
X128046630Y-128563669D01*
X128104863Y-128602279D01*
X128132473Y-128662737D01*
X128134420Y-128675030D01*
X128191546Y-128850849D01*
X128191547Y-128850852D01*
X128209199Y-128885495D01*
X128271833Y-129008421D01*
X128275479Y-129015575D01*
X128384135Y-129165129D01*
X128384139Y-129165134D01*
X128514865Y-129295860D01*
X128514870Y-129295864D01*
X128645318Y-129390639D01*
X128664428Y-129404523D01*
X128772106Y-129459388D01*
X128829147Y-129488452D01*
X128829150Y-129488453D01*
X129004969Y-129545580D01*
X129187560Y-129574500D01*
X129187565Y-129574500D01*
X129372440Y-129574500D01*
X129555030Y-129545580D01*
X129730849Y-129488453D01*
X129730852Y-129488452D01*
X129895572Y-129404523D01*
X130045136Y-129295859D01*
X130175859Y-129165136D01*
X130284523Y-129015572D01*
X130368452Y-128850852D01*
X130425580Y-128675029D01*
X130427527Y-128662737D01*
X130457456Y-128599602D01*
X130516768Y-128562671D01*
X130586630Y-128563669D01*
X130644863Y-128602279D01*
X130672473Y-128662737D01*
X130674420Y-128675030D01*
X130731546Y-128850849D01*
X130731547Y-128850852D01*
X130749199Y-128885495D01*
X130811833Y-129008421D01*
X130815479Y-129015575D01*
X130924135Y-129165129D01*
X130924139Y-129165134D01*
X131054865Y-129295860D01*
X131054870Y-129295864D01*
X131185318Y-129390639D01*
X131204428Y-129404523D01*
X131312106Y-129459388D01*
X131369147Y-129488452D01*
X131369150Y-129488453D01*
X131544969Y-129545580D01*
X131727560Y-129574500D01*
X131727565Y-129574500D01*
X131912440Y-129574500D01*
X132095030Y-129545580D01*
X132270849Y-129488453D01*
X132270852Y-129488452D01*
X132435572Y-129404523D01*
X132585136Y-129295859D01*
X132715859Y-129165136D01*
X132824523Y-129015572D01*
X132908452Y-128850852D01*
X132965580Y-128675029D01*
X132967527Y-128662737D01*
X132997456Y-128599602D01*
X133056768Y-128562671D01*
X133126630Y-128563669D01*
X133184863Y-128602279D01*
X133212473Y-128662737D01*
X133214420Y-128675030D01*
X133271546Y-128850849D01*
X133271547Y-128850852D01*
X133289199Y-128885495D01*
X133351833Y-129008421D01*
X133355479Y-129015575D01*
X133464135Y-129165129D01*
X133464139Y-129165134D01*
X133594865Y-129295860D01*
X133594870Y-129295864D01*
X133725318Y-129390639D01*
X133744428Y-129404523D01*
X133852106Y-129459388D01*
X133909147Y-129488452D01*
X133909150Y-129488453D01*
X134084969Y-129545580D01*
X134267560Y-129574500D01*
X134267565Y-129574500D01*
X134452440Y-129574500D01*
X134635030Y-129545580D01*
X134810849Y-129488453D01*
X134810852Y-129488452D01*
X134975572Y-129404523D01*
X135125136Y-129295859D01*
X135255859Y-129165136D01*
X135364523Y-129015572D01*
X135448452Y-128850852D01*
X135505580Y-128675029D01*
X135507527Y-128662737D01*
X135537456Y-128599602D01*
X135596768Y-128562671D01*
X135666630Y-128563669D01*
X135724863Y-128602279D01*
X135752473Y-128662737D01*
X135754420Y-128675030D01*
X135811546Y-128850849D01*
X135811547Y-128850852D01*
X135829199Y-128885495D01*
X135891833Y-129008421D01*
X135895479Y-129015575D01*
X136004135Y-129165129D01*
X136004139Y-129165134D01*
X136134865Y-129295860D01*
X136134870Y-129295864D01*
X136265318Y-129390639D01*
X136284428Y-129404523D01*
X136392106Y-129459388D01*
X136449147Y-129488452D01*
X136449150Y-129488453D01*
X136624969Y-129545580D01*
X136807560Y-129574500D01*
X136807565Y-129574500D01*
X136992440Y-129574500D01*
X137175030Y-129545580D01*
X137350849Y-129488453D01*
X137350852Y-129488452D01*
X137515572Y-129404523D01*
X137665136Y-129295859D01*
X137795859Y-129165136D01*
X137904523Y-129015572D01*
X137988452Y-128850852D01*
X137988453Y-128850849D01*
X138045580Y-128675030D01*
X138074500Y-128492440D01*
X138074500Y-128307559D01*
X138045580Y-128124969D01*
X137988453Y-127949150D01*
X137988452Y-127949147D01*
X137923053Y-127820795D01*
X137910157Y-127752126D01*
X137936433Y-127687385D01*
X137993540Y-127647128D01*
X138033538Y-127640500D01*
X138979055Y-127640500D01*
X138979057Y-127640500D01*
X139131784Y-127599577D01*
X139268716Y-127520520D01*
X139380520Y-127408716D01*
X139459577Y-127271784D01*
X139500500Y-127119057D01*
X139500500Y-114851229D01*
X139520185Y-114784190D01*
X139572989Y-114738435D01*
X139642147Y-114728491D01*
X139705703Y-114757516D01*
X139712181Y-114763548D01*
X140213181Y-115264548D01*
X140246666Y-115325871D01*
X140249500Y-115352229D01*
X140249500Y-120553918D01*
X140249500Y-120553920D01*
X140249499Y-120553920D01*
X140278340Y-120698907D01*
X140278343Y-120698917D01*
X140334914Y-120835492D01*
X140358519Y-120870819D01*
X140358520Y-120870822D01*
X140417046Y-120958414D01*
X140417052Y-120958421D01*
X142559231Y-123100599D01*
X142592716Y-123161922D01*
X142594023Y-123207678D01*
X142559500Y-123425646D01*
X142559500Y-123654353D01*
X142595278Y-123880246D01*
X142595278Y-123880249D01*
X142665950Y-124097755D01*
X142665952Y-124097758D01*
X142769783Y-124301538D01*
X142904214Y-124486566D01*
X143065934Y-124648286D01*
X143250962Y-124782717D01*
X143254904Y-124785581D01*
X143254166Y-124786596D01*
X143297157Y-124834098D01*
X143309500Y-124888032D01*
X143309500Y-135025269D01*
X143289815Y-135092308D01*
X143273181Y-135112950D01*
X138480543Y-139905587D01*
X138419220Y-139939072D01*
X138349528Y-139934088D01*
X138345422Y-139932472D01*
X138280516Y-139905587D01*
X138174961Y-139861864D01*
X138174954Y-139861862D01*
X138174952Y-139861861D01*
X137889993Y-139785507D01*
X137841113Y-139779071D01*
X137597513Y-139747000D01*
X137597506Y-139747000D01*
X137302494Y-139747000D01*
X137302486Y-139747000D01*
X137024085Y-139783653D01*
X137010007Y-139785507D01*
X136771150Y-139849508D01*
X136725048Y-139861861D01*
X136725038Y-139861864D01*
X136452499Y-139974754D01*
X136452489Y-139974758D01*
X136197006Y-140122261D01*
X135962959Y-140301852D01*
X135962952Y-140301858D01*
X135754358Y-140510452D01*
X135754352Y-140510459D01*
X135574761Y-140744506D01*
X135427258Y-140999989D01*
X135427254Y-140999999D01*
X135356650Y-141170453D01*
X135312809Y-141224856D01*
X135246515Y-141246921D01*
X135242089Y-141247000D01*
X126517911Y-141247000D01*
X126450872Y-141227315D01*
X126405117Y-141174511D01*
X126403350Y-141170453D01*
X126332743Y-140999993D01*
X126185238Y-140744506D01*
X126005646Y-140510458D01*
X126005641Y-140510452D01*
X125797047Y-140301858D01*
X125797040Y-140301852D01*
X125562993Y-140122261D01*
X125307510Y-139974758D01*
X125307500Y-139974754D01*
X125034961Y-139861864D01*
X125034954Y-139861862D01*
X125034952Y-139861861D01*
X124749993Y-139785507D01*
X124701113Y-139779071D01*
X124457513Y-139747000D01*
X124457506Y-139747000D01*
X124162494Y-139747000D01*
X124162486Y-139747000D01*
X123884085Y-139783653D01*
X123870007Y-139785507D01*
X123631150Y-139849508D01*
X123585048Y-139861861D01*
X123585038Y-139861864D01*
X123312499Y-139974754D01*
X123312489Y-139974758D01*
X123057006Y-140122261D01*
X122822959Y-140301852D01*
X122822952Y-140301858D01*
X122614358Y-140510452D01*
X122614352Y-140510459D01*
X122434761Y-140744506D01*
X122287258Y-140999989D01*
X122287254Y-140999999D01*
X122174364Y-141272538D01*
X122174361Y-141272548D01*
X122098008Y-141557504D01*
X122098006Y-141557515D01*
X122059500Y-141849986D01*
X122059500Y-142145013D01*
X122091571Y-142388613D01*
X122098007Y-142437493D01*
X122098008Y-142437495D01*
X122174361Y-142722451D01*
X122174364Y-142722461D01*
X122287254Y-142995000D01*
X122287258Y-142995010D01*
X122434761Y-143250493D01*
X122614352Y-143484540D01*
X122614358Y-143484547D01*
X122822952Y-143693141D01*
X122822959Y-143693147D01*
X123057006Y-143872738D01*
X123312489Y-144020241D01*
X123312490Y-144020241D01*
X123312493Y-144020243D01*
X123585048Y-144133139D01*
X123870007Y-144209493D01*
X124162494Y-144248000D01*
X124162501Y-144248000D01*
X124457499Y-144248000D01*
X124457506Y-144248000D01*
X124749993Y-144209493D01*
X125034952Y-144133139D01*
X125307507Y-144020243D01*
X125562994Y-143872738D01*
X125797042Y-143693146D01*
X126005646Y-143484542D01*
X126185238Y-143250494D01*
X126332743Y-142995007D01*
X126403350Y-142824546D01*
X126447191Y-142770144D01*
X126513485Y-142748079D01*
X126517911Y-142748000D01*
X135242089Y-142748000D01*
X135309128Y-142767685D01*
X135354883Y-142820489D01*
X135356650Y-142824547D01*
X135427254Y-142995000D01*
X135427258Y-142995010D01*
X135574761Y-143250493D01*
X135754352Y-143484540D01*
X135754358Y-143484547D01*
X135962952Y-143693141D01*
X135962959Y-143693147D01*
X136197006Y-143872738D01*
X136452489Y-144020241D01*
X136452490Y-144020241D01*
X136452493Y-144020243D01*
X136725048Y-144133139D01*
X137010007Y-144209493D01*
X137302494Y-144248000D01*
X137302501Y-144248000D01*
X137597499Y-144248000D01*
X137597506Y-144248000D01*
X137889993Y-144209493D01*
X138174952Y-144133139D01*
X138447507Y-144020243D01*
X138702994Y-143872738D01*
X138937042Y-143693146D01*
X139145646Y-143484542D01*
X139325238Y-143250494D01*
X139472743Y-142995007D01*
X139585639Y-142722452D01*
X139661993Y-142437493D01*
X139700500Y-142145006D01*
X139700500Y-141849994D01*
X139661993Y-141557507D01*
X139585639Y-141272548D01*
X139515030Y-141102085D01*
X139507562Y-141032620D01*
X139538837Y-140970141D01*
X139541883Y-140966983D01*
X144642952Y-135865915D01*
X144670205Y-135825127D01*
X144725084Y-135742995D01*
X144748518Y-135686420D01*
X144781659Y-135606412D01*
X144810500Y-135461417D01*
X144810500Y-135313582D01*
X144810500Y-124888032D01*
X144830185Y-124820993D01*
X144865624Y-124786308D01*
X144865096Y-124785581D01*
X144869038Y-124782717D01*
X145054066Y-124648286D01*
X145215786Y-124486566D01*
X145275182Y-124404813D01*
X145330512Y-124362149D01*
X145400126Y-124356170D01*
X145461921Y-124388776D01*
X145496278Y-124449615D01*
X145499500Y-124477700D01*
X145499500Y-149745572D01*
X145499184Y-149754418D01*
X145499184Y-149754419D01*
X145484869Y-149954557D01*
X145482351Y-149972068D01*
X145440645Y-150163790D01*
X145435661Y-150180765D01*
X145367093Y-150364605D01*
X145359743Y-150380699D01*
X145265709Y-150552908D01*
X145256144Y-150567791D01*
X145138561Y-150724864D01*
X145126975Y-150738235D01*
X144988235Y-150876975D01*
X144974864Y-150888561D01*
X144817791Y-151006144D01*
X144802908Y-151015709D01*
X144630699Y-151109743D01*
X144614605Y-151117093D01*
X144430765Y-151185661D01*
X144413790Y-151190645D01*
X144222068Y-151232351D01*
X144204557Y-151234869D01*
X144023779Y-151247799D01*
X144004417Y-151249184D01*
X143995572Y-151249500D01*
X117204428Y-151249500D01*
X117195582Y-151249184D01*
X117173622Y-151247613D01*
X116995442Y-151234869D01*
X116977931Y-151232351D01*
X116786209Y-151190645D01*
X116769234Y-151185661D01*
X116585394Y-151117093D01*
X116569300Y-151109743D01*
X116397091Y-151015709D01*
X116382208Y-151006144D01*
X116225135Y-150888561D01*
X116211764Y-150876975D01*
X116073024Y-150738235D01*
X116061438Y-150724864D01*
X115943855Y-150567791D01*
X115934290Y-150552908D01*
X115840256Y-150380699D01*
X115832909Y-150364611D01*
X115764336Y-150180760D01*
X115759354Y-150163790D01*
X115717648Y-149972068D01*
X115715130Y-149954556D01*
X115700816Y-149754418D01*
X115700500Y-149745572D01*
X115700500Y-146678711D01*
X117749500Y-146678711D01*
X117749500Y-146921288D01*
X117781161Y-147161785D01*
X117843947Y-147396104D01*
X117936773Y-147620205D01*
X117936776Y-147620212D01*
X118058064Y-147830289D01*
X118058066Y-147830292D01*
X118058067Y-147830293D01*
X118205733Y-148022736D01*
X118205739Y-148022743D01*
X118377256Y-148194260D01*
X118377262Y-148194265D01*
X118569711Y-148341936D01*
X118779788Y-148463224D01*
X119003900Y-148556054D01*
X119238211Y-148618838D01*
X119418586Y-148642584D01*
X119478711Y-148650500D01*
X119478712Y-148650500D01*
X119721289Y-148650500D01*
X119769388Y-148644167D01*
X119961789Y-148618838D01*
X120196100Y-148556054D01*
X120420212Y-148463224D01*
X120630289Y-148341936D01*
X120822738Y-148194265D01*
X120994265Y-148022738D01*
X121141936Y-147830289D01*
X121263224Y-147620212D01*
X121342034Y-147429948D01*
X121385875Y-147375545D01*
X121452169Y-147353480D01*
X121519868Y-147370759D01*
X121567479Y-147421896D01*
X121580595Y-147477401D01*
X121580595Y-148409646D01*
X139956346Y-148409646D01*
X139956346Y-146678711D01*
X140349500Y-146678711D01*
X140349500Y-146921288D01*
X140381161Y-147161785D01*
X140443947Y-147396104D01*
X140536773Y-147620205D01*
X140536776Y-147620212D01*
X140658064Y-147830289D01*
X140658066Y-147830292D01*
X140658067Y-147830293D01*
X140805733Y-148022736D01*
X140805739Y-148022743D01*
X140977256Y-148194260D01*
X140977262Y-148194265D01*
X141169711Y-148341936D01*
X141379788Y-148463224D01*
X141603900Y-148556054D01*
X141838211Y-148618838D01*
X142018586Y-148642584D01*
X142078711Y-148650500D01*
X142078712Y-148650500D01*
X142321289Y-148650500D01*
X142369388Y-148644167D01*
X142561789Y-148618838D01*
X142796100Y-148556054D01*
X143020212Y-148463224D01*
X143230289Y-148341936D01*
X143422738Y-148194265D01*
X143594265Y-148022738D01*
X143741936Y-147830289D01*
X143863224Y-147620212D01*
X143956054Y-147396100D01*
X144018838Y-147161789D01*
X144050500Y-146921288D01*
X144050500Y-146678712D01*
X144018838Y-146438211D01*
X143956054Y-146203900D01*
X143863224Y-145979788D01*
X143741936Y-145769711D01*
X143594265Y-145577262D01*
X143594260Y-145577256D01*
X143422743Y-145405739D01*
X143422736Y-145405733D01*
X143230293Y-145258067D01*
X143230292Y-145258066D01*
X143230289Y-145258064D01*
X143020212Y-145136776D01*
X143020205Y-145136773D01*
X142796104Y-145043947D01*
X142561785Y-144981161D01*
X142321289Y-144949500D01*
X142321288Y-144949500D01*
X142078712Y-144949500D01*
X142078711Y-144949500D01*
X141838214Y-144981161D01*
X141603895Y-145043947D01*
X141379794Y-145136773D01*
X141379785Y-145136777D01*
X141169706Y-145258067D01*
X140977263Y-145405733D01*
X140977256Y-145405739D01*
X140805739Y-145577256D01*
X140805733Y-145577263D01*
X140658067Y-145769706D01*
X140536777Y-145979785D01*
X140536773Y-145979794D01*
X140443947Y-146203895D01*
X140381161Y-146438214D01*
X140349500Y-146678711D01*
X139956346Y-146678711D01*
X139956346Y-145359554D01*
X121580595Y-145359554D01*
X121580595Y-146122598D01*
X121560910Y-146189637D01*
X121508106Y-146235392D01*
X121438948Y-146245336D01*
X121375392Y-146216311D01*
X121342034Y-146170051D01*
X121263227Y-145979794D01*
X121263222Y-145979785D01*
X121141936Y-145769711D01*
X120994265Y-145577262D01*
X120994260Y-145577256D01*
X120822743Y-145405739D01*
X120822736Y-145405733D01*
X120630293Y-145258067D01*
X120630292Y-145258066D01*
X120630289Y-145258064D01*
X120420212Y-145136776D01*
X120420205Y-145136773D01*
X120196104Y-145043947D01*
X119961785Y-144981161D01*
X119721289Y-144949500D01*
X119721288Y-144949500D01*
X119478712Y-144949500D01*
X119478711Y-144949500D01*
X119238214Y-144981161D01*
X119003895Y-145043947D01*
X118779794Y-145136773D01*
X118779785Y-145136777D01*
X118569706Y-145258067D01*
X118377263Y-145405733D01*
X118377256Y-145405739D01*
X118205739Y-145577256D01*
X118205733Y-145577263D01*
X118058067Y-145769706D01*
X117936777Y-145979785D01*
X117936773Y-145979794D01*
X117843947Y-146203895D01*
X117781161Y-146438214D01*
X117749500Y-146678711D01*
X115700500Y-146678711D01*
X115700500Y-134638419D01*
X115720185Y-134571380D01*
X115772989Y-134525625D01*
X115842147Y-134515681D01*
X115905703Y-134544706D01*
X115922876Y-134562933D01*
X115938751Y-134583622D01*
X115938757Y-134583629D01*
X116096370Y-134741242D01*
X116096376Y-134741247D01*
X116273226Y-134876948D01*
X116466274Y-134988405D01*
X116672219Y-135073710D01*
X116887537Y-135131404D01*
X117108543Y-135160500D01*
X117108550Y-135160500D01*
X117331450Y-135160500D01*
X117331457Y-135160500D01*
X117552463Y-135131404D01*
X117767781Y-135073710D01*
X117973726Y-134988405D01*
X118166774Y-134876948D01*
X118343624Y-134741247D01*
X118501247Y-134583624D01*
X118636948Y-134406774D01*
X118748405Y-134213726D01*
X118833710Y-134007781D01*
X118891404Y-133792463D01*
X118920500Y-133571457D01*
X118920500Y-133348543D01*
X118891404Y-133127537D01*
X118833710Y-132912219D01*
X118748405Y-132706274D01*
X118636948Y-132513226D01*
X118525675Y-132368211D01*
X118501248Y-132336377D01*
X118501242Y-132336370D01*
X118343629Y-132178757D01*
X118343622Y-132178751D01*
X118166782Y-132043058D01*
X118166780Y-132043057D01*
X118166774Y-132043052D01*
X117973726Y-131931595D01*
X117973722Y-131931593D01*
X117767790Y-131846293D01*
X117767783Y-131846291D01*
X117767781Y-131846290D01*
X117552463Y-131788596D01*
X117552457Y-131788595D01*
X117552452Y-131788594D01*
X117331466Y-131759501D01*
X117331463Y-131759500D01*
X117331457Y-131759500D01*
X117108543Y-131759500D01*
X117108537Y-131759500D01*
X117108533Y-131759501D01*
X116887547Y-131788594D01*
X116887540Y-131788595D01*
X116887537Y-131788596D01*
X116672219Y-131846290D01*
X116672209Y-131846293D01*
X116466277Y-131931593D01*
X116466273Y-131931595D01*
X116273226Y-132043052D01*
X116273217Y-132043058D01*
X116096377Y-132178751D01*
X116096370Y-132178757D01*
X115938754Y-132336373D01*
X115922875Y-132357068D01*
X115866447Y-132398270D01*
X115796701Y-132402424D01*
X115735781Y-132368211D01*
X115703028Y-132306493D01*
X115700500Y-132281580D01*
X115700500Y-107878711D01*
X117749500Y-107878711D01*
X117749500Y-108121288D01*
X117781161Y-108361785D01*
X117843947Y-108596104D01*
X117936773Y-108820205D01*
X117936776Y-108820212D01*
X118058064Y-109030289D01*
X118058066Y-109030292D01*
X118058067Y-109030293D01*
X118205733Y-109222736D01*
X118205739Y-109222743D01*
X118377256Y-109394260D01*
X118377263Y-109394266D01*
X118421668Y-109428339D01*
X118569711Y-109541936D01*
X118779788Y-109663224D01*
X119003900Y-109756054D01*
X119238211Y-109818838D01*
X119418586Y-109842584D01*
X119478711Y-109850500D01*
X119478712Y-109850500D01*
X119721289Y-109850500D01*
X119769388Y-109844167D01*
X119961789Y-109818838D01*
X120196100Y-109756054D01*
X120420212Y-109663224D01*
X120630289Y-109541936D01*
X120822738Y-109394265D01*
X120994265Y-109222738D01*
X121141936Y-109030289D01*
X121263224Y-108820212D01*
X121356054Y-108596100D01*
X121418838Y-108361789D01*
X121450500Y-108121288D01*
X121450500Y-107878712D01*
X121418838Y-107638211D01*
X121356054Y-107403900D01*
X121263224Y-107179788D01*
X121141936Y-106969711D01*
X121030512Y-106824500D01*
X120994266Y-106777263D01*
X120994260Y-106777256D01*
X120822743Y-106605739D01*
X120822736Y-106605733D01*
X120630293Y-106458067D01*
X120630292Y-106458066D01*
X120630289Y-106458064D01*
X120420212Y-106336776D01*
X120420205Y-106336773D01*
X120196104Y-106243947D01*
X119961785Y-106181161D01*
X119721289Y-106149500D01*
X119721288Y-106149500D01*
X119478712Y-106149500D01*
X119478711Y-106149500D01*
X119238214Y-106181161D01*
X119003895Y-106243947D01*
X118779794Y-106336773D01*
X118779785Y-106336777D01*
X118569706Y-106458067D01*
X118377263Y-106605733D01*
X118377256Y-106605739D01*
X118205739Y-106777256D01*
X118205733Y-106777263D01*
X118058067Y-106969706D01*
X117936777Y-107179785D01*
X117936773Y-107179794D01*
X117843947Y-107403895D01*
X117781161Y-107638214D01*
X117749500Y-107878711D01*
X115700500Y-107878711D01*
X115700500Y-105904427D01*
X115700816Y-105895581D01*
X115700816Y-105895580D01*
X115715131Y-105695434D01*
X115717646Y-105677938D01*
X115759356Y-105486200D01*
X115764335Y-105469242D01*
X115832911Y-105285382D01*
X115840251Y-105269310D01*
X115934294Y-105097083D01*
X115943850Y-105082214D01*
X116061443Y-104925128D01*
X116073017Y-104911771D01*
X116211771Y-104773017D01*
X116225128Y-104761443D01*
X116382214Y-104643850D01*
X116397083Y-104634294D01*
X116569310Y-104540251D01*
X116585382Y-104532911D01*
X116769242Y-104464335D01*
X116786200Y-104459356D01*
X116977938Y-104417646D01*
X116995436Y-104415130D01*
X117195582Y-104400816D01*
X117204428Y-104400500D01*
X117265892Y-104400500D01*
X143934108Y-104400500D01*
X143995572Y-104400500D01*
X144004418Y-104400816D01*
G37*
%TD.AperFunction*%
M02*
