%TF.GenerationSoftware,KiCad,Pcbnew,10.0.1*%
%TF.CreationDate,2026-06-17T19:14:18+08:00*%
%TF.ProjectId,esphome-smart-dimmer-1x1,65737068-6f6d-4652-9d73-6d6172742d64,rev?*%
%TF.SameCoordinates,Original*%
%TF.FileFunction,Copper,L2,Bot*%
%TF.FilePolarity,Positive*%
%FSLAX46Y46*%
G04 Gerber Fmt 4.6, Leading zero omitted, Abs format (unit mm)*
G04 Created by KiCad (PCBNEW 10.0.1) date 2026-06-17 19:14:18*
%MOMM*%
%LPD*%
G01*
G04 APERTURE LIST*
G04 Aperture macros list*
%AMRoundRect*
0 Rectangle with rounded corners*
0 $1 Rounding radius*
0 $2 $3 $4 $5 $6 $7 $8 $9 X,Y pos of 4 corners*
0 Add a 4 corners polygon primitive as box body*
4,1,4,$2,$3,$4,$5,$6,$7,$8,$9,$2,$3,0*
0 Add four circle primitives for the rounded corners*
1,1,$1+$1,$2,$3*
1,1,$1+$1,$4,$5*
1,1,$1+$1,$6,$7*
1,1,$1+$1,$8,$9*
0 Add four rect primitives between the rounded corners*
20,1,$1+$1,$2,$3,$4,$5,0*
20,1,$1+$1,$4,$5,$6,$7,0*
20,1,$1+$1,$6,$7,$8,$9,0*
20,1,$1+$1,$8,$9,$2,$3,0*%
G04 Aperture macros list end*
%TA.AperFunction,Conductor*%
%ADD10C,0.200000*%
%TD*%
%TA.AperFunction,ComponentPad*%
%ADD11C,2.400000*%
%TD*%
%TA.AperFunction,ComponentPad*%
%ADD12C,1.348000*%
%TD*%
%TA.AperFunction,ComponentPad*%
%ADD13RoundRect,0.250000X-0.512000X-0.512000X0.512000X-0.512000X0.512000X0.512000X-0.512000X0.512000X0*%
%TD*%
%TA.AperFunction,ComponentPad*%
%ADD14C,1.524000*%
%TD*%
%TA.AperFunction,ComponentPad*%
%ADD15C,3.500000*%
%TD*%
%TA.AperFunction,ComponentPad*%
%ADD16O,1.900000X3.500000*%
%TD*%
%TA.AperFunction,ComponentPad*%
%ADD17R,2.000000X1.905000*%
%TD*%
%TA.AperFunction,ComponentPad*%
%ADD18O,2.000000X1.905000*%
%TD*%
%TA.AperFunction,ViaPad*%
%ADD19C,0.600000*%
%TD*%
%TA.AperFunction,Conductor*%
%ADD20C,0.500000*%
%TD*%
G04 APERTURE END LIST*
%TO.N,Out GND*%
D10*
X118070000Y-114410000D02*
X138900000Y-114410000D01*
X138900000Y-127040000D01*
X118070000Y-127040000D01*
X118070000Y-114410000D01*
%TA.AperFunction,Conductor*%
G36*
X118070000Y-114410000D02*
G01*
X138900000Y-114410000D01*
X138900000Y-127040000D01*
X118070000Y-127040000D01*
X118070000Y-114410000D01*
G37*
%TD.AperFunction*%
%TD*%
D11*
%TO.P,R1,1*%
%TO.N,Net-(Q1-G)*%
X137540000Y-133460000D03*
%TO.P,R1,2*%
%TO.N,GPIO4*%
X117220000Y-133460000D03*
%TD*%
D12*
%TO.P,U1,0,GPIO0_0*%
%TO.N,unconnected-(U1-GPIO0-Pad0)*%
X136900000Y-113160000D03*
%TO.P,U1,1,GPIO1_1*%
%TO.N,unconnected-(U1-GPIO1-Pad1)*%
X134360000Y-113160000D03*
%TO.P,U1,2,GPIO2_2*%
%TO.N,unconnected-(U1-GPIO2-Pad2)*%
X131820000Y-113160000D03*
%TO.P,U1,3,GPIO3_3*%
%TO.N,unconnected-(U1-GPIO3-Pad3)*%
X129280000Y-113160000D03*
%TO.P,U1,3.3,3V3_3.3*%
%TO.N,unconnected-(U1-3V3-Pad3.3)*%
X124200000Y-113160000D03*
%TO.P,U1,4,GPIO4_4*%
%TO.N,GPIO4*%
X126740000Y-113160000D03*
%TO.P,U1,5,GPIO5_5*%
%TO.N,unconnected-(U1-GPIO5-Pad5)*%
X119120000Y-128400000D03*
%TO.P,U1,5V,5V_5V*%
%TO.N,VBUS*%
X119120000Y-113160000D03*
%TO.P,U1,6,GPIO6_6*%
%TO.N,unconnected-(U1-GPIO6-Pad6)*%
X121660000Y-128400000D03*
%TO.P,U1,7,GPIO7_7*%
%TO.N,unconnected-(U1-GPIO7-Pad7)*%
X124200000Y-128400000D03*
%TO.P,U1,8,GPIO8_8*%
%TO.N,unconnected-(U1-GPIO8-Pad8)*%
X126740000Y-128400000D03*
%TO.P,U1,9,GPIO9_9*%
%TO.N,unconnected-(U1-GPIO9-Pad9)*%
X129280000Y-128400000D03*
%TO.P,U1,10,GPIO10_10*%
%TO.N,unconnected-(U1-GPIO10-Pad10)*%
X131820000Y-128400000D03*
%TO.P,U1,20,GPIO20_20*%
%TO.N,unconnected-(U1-GPIO20-Pad20)*%
X134360000Y-128400000D03*
%TO.P,U1,21,GPIO21_21*%
%TO.N,unconnected-(U1-GPIO21-Pad21)*%
X136900000Y-128400000D03*
%TO.P,U1,G,GND_G*%
%TO.N,GND*%
X121660000Y-113160000D03*
%TD*%
D13*
%TO.P,J2,1,VBUS_1*%
%TO.N,VBUS*%
X127380000Y-139287500D03*
D14*
%TO.P,J2,2,D-_2*%
%TO.N,unconnected-(J2-D--Pad2)*%
X129880000Y-139287500D03*
%TO.P,J2,3,D+_3*%
%TO.N,unconnected-(J2-D+-Pad3)*%
X131880000Y-139287500D03*
%TO.P,J2,4,GND_4*%
%TO.N,Out GND*%
X134380000Y-139287500D03*
D15*
%TO.P,J2,SH,Shield_SH*%
%TO.N,GND*%
X124310000Y-141997500D03*
X137450000Y-141997500D03*
%TD*%
D16*
%TO.P,J1,SH,Shield_SH*%
%TO.N,GND*%
X125180000Y-107000000D03*
X136580000Y-107000000D03*
%TD*%
D17*
%TO.P,Q1,1,G_1*%
%TO.N,Net-(Q1-G)*%
X144060000Y-118460000D03*
D18*
%TO.P,Q1,2,D_2*%
%TO.N,Out GND*%
X144060000Y-121000000D03*
%TO.P,Q1,3,S_3*%
%TO.N,GND*%
X144060000Y-123540000D03*
%TD*%
D19*
%TO.N,Out GND*%
X131000000Y-124250000D03*
X133000000Y-124250000D03*
X136000000Y-119250000D03*
X135000000Y-122250000D03*
X132000000Y-119250000D03*
X122000000Y-124250000D03*
X136000000Y-122250000D03*
X138000000Y-120250000D03*
X120000000Y-121250000D03*
X128000000Y-119250000D03*
X128000000Y-122250000D03*
X129000000Y-116250000D03*
X128000000Y-123250000D03*
X132000000Y-120250000D03*
X135000000Y-120250000D03*
X138000000Y-119250000D03*
X121000000Y-118250000D03*
X120000000Y-120250000D03*
X123000000Y-115250000D03*
X126000000Y-122250000D03*
X121000000Y-121250000D03*
X123000000Y-118250000D03*
X130000000Y-122250000D03*
X123000000Y-126250000D03*
X133000000Y-118250000D03*
X135000000Y-118250000D03*
X125000000Y-117250000D03*
X137000000Y-119250000D03*
X129000000Y-123250000D03*
X128000000Y-124250000D03*
X136000000Y-120250000D03*
X138000000Y-116250000D03*
X132000000Y-125250000D03*
X131000000Y-116250000D03*
X130000000Y-124250000D03*
X127000000Y-120250000D03*
X126000000Y-120250000D03*
X119000000Y-122250000D03*
X124000000Y-124250000D03*
X120000000Y-122250000D03*
X138000000Y-121250000D03*
X137000000Y-122250000D03*
X138000000Y-124250000D03*
X124000000Y-126250000D03*
X133000000Y-120250000D03*
X119000000Y-125250000D03*
X137000000Y-123250000D03*
X120000000Y-117250000D03*
X134000000Y-116250000D03*
X136000000Y-123250000D03*
X130000000Y-119250000D03*
X126000000Y-117250000D03*
X126000000Y-115250000D03*
X131000000Y-120250000D03*
X123000000Y-116250000D03*
X124000000Y-116250000D03*
X137000000Y-121250000D03*
X124000000Y-118250000D03*
X137000000Y-117250000D03*
X120000000Y-126250000D03*
X133000000Y-122250000D03*
X137000000Y-115250000D03*
X131000000Y-121250000D03*
X125000000Y-118250000D03*
X135000000Y-117250000D03*
X128000000Y-120250000D03*
X124000000Y-125250000D03*
X135000000Y-126250000D03*
X124000000Y-120250000D03*
X136000000Y-118250000D03*
X119000000Y-126250000D03*
X127000000Y-116250000D03*
X131000000Y-126250000D03*
X134000000Y-119250000D03*
X126000000Y-118250000D03*
X136000000Y-116250000D03*
X129000000Y-117250000D03*
X138000000Y-126250000D03*
X121000000Y-125250000D03*
X128000000Y-126250000D03*
X137000000Y-118250000D03*
X131000000Y-123250000D03*
X131000000Y-122250000D03*
X124000000Y-122250000D03*
X128000000Y-117250000D03*
X128000000Y-118250000D03*
X125000000Y-119250000D03*
X138000000Y-118250000D03*
X126000000Y-116250000D03*
X130000000Y-115250000D03*
X133000000Y-116250000D03*
X137000000Y-120250000D03*
X125000000Y-123250000D03*
X133000000Y-121250000D03*
X130000000Y-123250000D03*
X131000000Y-117250000D03*
X120000000Y-119250000D03*
X133000000Y-117250000D03*
X134000000Y-118250000D03*
X131000000Y-115250000D03*
X119000000Y-117250000D03*
X135000000Y-115250000D03*
X124000000Y-119250000D03*
X122000000Y-118250000D03*
X132000000Y-122250000D03*
X127000000Y-118250000D03*
X135000000Y-119250000D03*
X125000000Y-121250000D03*
X133000000Y-125250000D03*
X138000000Y-117250000D03*
X141800000Y-119500000D03*
X127000000Y-122250000D03*
X136000000Y-125250000D03*
X129000000Y-120250000D03*
X136000000Y-124250000D03*
X121000000Y-120250000D03*
X129000000Y-125250000D03*
X133000000Y-119250000D03*
X129000000Y-126250000D03*
X122000000Y-116250000D03*
X131000000Y-125250000D03*
X122000000Y-122250000D03*
X129000000Y-121250000D03*
X126000000Y-119250000D03*
X138000000Y-125250000D03*
X124000000Y-115250000D03*
X120000000Y-115250000D03*
X119000000Y-123250000D03*
X122000000Y-115250000D03*
X120000000Y-125250000D03*
X129000000Y-124250000D03*
X137000000Y-116250000D03*
X119000000Y-118250000D03*
X127000000Y-125250000D03*
X132000000Y-117250000D03*
X127000000Y-121250000D03*
X126000000Y-124250000D03*
X123000000Y-125250000D03*
X121000000Y-115250000D03*
X134000000Y-115250000D03*
X135000000Y-125250000D03*
X138000000Y-122250000D03*
X130000000Y-120250000D03*
X128000000Y-116250000D03*
X123000000Y-123250000D03*
X122000000Y-120250000D03*
X126000000Y-121250000D03*
X119000000Y-124250000D03*
X121000000Y-126250000D03*
X119000000Y-121250000D03*
X120000000Y-118250000D03*
X128000000Y-125250000D03*
X132000000Y-121250000D03*
X135000000Y-124250000D03*
X121000000Y-116250000D03*
X123000000Y-117250000D03*
X131000000Y-118250000D03*
X124000000Y-117250000D03*
X137000000Y-126250000D03*
X124000000Y-121250000D03*
X132000000Y-118250000D03*
X121000000Y-119250000D03*
X130000000Y-118250000D03*
X134000000Y-123250000D03*
X133000000Y-123250000D03*
X122000000Y-117250000D03*
X124000000Y-123250000D03*
X125000000Y-116250000D03*
X129000000Y-122250000D03*
X122000000Y-125250000D03*
X129000000Y-118250000D03*
X126000000Y-126250000D03*
X126000000Y-123250000D03*
X138000000Y-123250000D03*
X130000000Y-121250000D03*
X134000000Y-122250000D03*
X121000000Y-117250000D03*
X132000000Y-124250000D03*
X128000000Y-115250000D03*
X129000000Y-115250000D03*
X137000000Y-125250000D03*
X123000000Y-119250000D03*
X127000000Y-126250000D03*
X136000000Y-121250000D03*
X119000000Y-116250000D03*
X122000000Y-119250000D03*
X135000000Y-116250000D03*
X119000000Y-115250000D03*
X129000000Y-119250000D03*
X136000000Y-126250000D03*
X132000000Y-123250000D03*
X130000000Y-117250000D03*
X125000000Y-126250000D03*
X134000000Y-125250000D03*
X125000000Y-120250000D03*
X125000000Y-115250000D03*
X119000000Y-120250000D03*
X127000000Y-124250000D03*
X137000000Y-124250000D03*
X121000000Y-123250000D03*
X123000000Y-120250000D03*
X120000000Y-124250000D03*
X122000000Y-126250000D03*
X121000000Y-122250000D03*
X130000000Y-116250000D03*
X122000000Y-123250000D03*
X127000000Y-115250000D03*
X132000000Y-116250000D03*
X121000000Y-124250000D03*
X122000000Y-121250000D03*
X119000000Y-119250000D03*
X123000000Y-121250000D03*
X125000000Y-122250000D03*
X125000000Y-125250000D03*
X136000000Y-117250000D03*
X127000000Y-123250000D03*
X123000000Y-122250000D03*
X134000000Y-126250000D03*
X134000000Y-124250000D03*
X132000000Y-115250000D03*
X135000000Y-123250000D03*
X138000000Y-115250000D03*
X128000000Y-121250000D03*
X131000000Y-119250000D03*
X134000000Y-117250000D03*
X130000000Y-126250000D03*
X130000000Y-125250000D03*
X133000000Y-115250000D03*
X125000000Y-124250000D03*
X123000000Y-124250000D03*
X126000000Y-125250000D03*
X135000000Y-121250000D03*
X134000000Y-121250000D03*
X132000000Y-126250000D03*
X134000000Y-120250000D03*
X120000000Y-116250000D03*
X127000000Y-119250000D03*
X133000000Y-126250000D03*
X136000000Y-115250000D03*
X120000000Y-123250000D03*
X127000000Y-117250000D03*
%TD*%
%TO.N,Net-(Q1-G)*%
D20*
X142560000Y-128440000D02*
X142560000Y-119960000D01*
X142560000Y-119960000D02*
X144060000Y-118460000D01*
X137540000Y-133460000D02*
X142560000Y-128440000D01*
%TO.N,GPIO4*%
X117220000Y-112430000D02*
X117860000Y-111790000D01*
X125370000Y-111790000D02*
X126740000Y-113160000D01*
X117220000Y-133460000D02*
X117220000Y-112430000D01*
X117860000Y-111790000D02*
X125370000Y-111790000D01*
%TO.N,Out GND*%
X135726000Y-137941500D02*
X134380000Y-139287500D01*
X135726000Y-127966000D02*
X135726000Y-137941500D01*
X135726000Y-127966000D02*
X128485000Y-120725000D01*
X141800000Y-119500000D02*
X129710000Y-119500000D01*
X129710000Y-119500000D02*
X128485000Y-120725000D01*
%TD*%
%TA.AperFunction,NonConductor*%
G36*
X145461921Y-121848776D02*
G01*
X145496278Y-121909615D01*
X145499500Y-121937700D01*
X145499500Y-122602299D01*
X145479815Y-122669338D01*
X145427011Y-122715093D01*
X145357853Y-122725037D01*
X145294297Y-122696012D01*
X145275183Y-122675185D01*
X145215790Y-122593440D01*
X145215786Y-122593434D01*
X145054066Y-122431714D01*
X144969559Y-122370316D01*
X144926896Y-122314988D01*
X144920917Y-122245375D01*
X144953523Y-122183580D01*
X144969556Y-122169685D01*
X145054066Y-122108286D01*
X145215786Y-121946566D01*
X145275182Y-121864813D01*
X145330512Y-121822149D01*
X145400126Y-121816170D01*
X145461921Y-121848776D01*
G37*
%TD.AperFunction*%
%TA.AperFunction,NonConductor*%
G36*
X133293501Y-127660185D02*
G01*
X133339256Y-127712989D01*
X133349200Y-127782147D01*
X133336947Y-127820795D01*
X133271547Y-127949147D01*
X133271546Y-127949150D01*
X133214420Y-128124969D01*
X133212473Y-128137263D01*
X133182543Y-128200397D01*
X133123231Y-128237328D01*
X133053369Y-128236330D01*
X132995136Y-128197719D01*
X132967527Y-128137263D01*
X132966239Y-128129132D01*
X132965580Y-128124971D01*
X132908452Y-127949148D01*
X132908452Y-127949147D01*
X132843053Y-127820795D01*
X132830157Y-127752126D01*
X132856433Y-127687385D01*
X132913540Y-127647128D01*
X132953538Y-127640500D01*
X133226462Y-127640500D01*
X133293501Y-127660185D01*
G37*
%TD.AperFunction*%
%TA.AperFunction,NonConductor*%
G36*
X130753501Y-127660185D02*
G01*
X130799256Y-127712989D01*
X130809200Y-127782147D01*
X130796947Y-127820795D01*
X130731547Y-127949147D01*
X130731546Y-127949150D01*
X130674420Y-128124969D01*
X130672473Y-128137263D01*
X130642543Y-128200397D01*
X130583231Y-128237328D01*
X130513369Y-128236330D01*
X130455136Y-128197719D01*
X130427527Y-128137263D01*
X130426239Y-128129132D01*
X130425580Y-128124971D01*
X130368452Y-127949148D01*
X130368452Y-127949147D01*
X130303053Y-127820795D01*
X130290157Y-127752126D01*
X130316433Y-127687385D01*
X130373540Y-127647128D01*
X130413538Y-127640500D01*
X130686462Y-127640500D01*
X130753501Y-127660185D01*
G37*
%TD.AperFunction*%
%TA.AperFunction,NonConductor*%
G36*
X128213501Y-127660185D02*
G01*
X128259256Y-127712989D01*
X128269200Y-127782147D01*
X128256947Y-127820795D01*
X128191547Y-127949147D01*
X128191546Y-127949150D01*
X128134420Y-128124969D01*
X128132473Y-128137263D01*
X128102543Y-128200397D01*
X128043231Y-128237328D01*
X127973369Y-128236330D01*
X127915136Y-128197719D01*
X127887527Y-128137263D01*
X127886239Y-128129132D01*
X127885580Y-128124971D01*
X127828452Y-127949148D01*
X127828452Y-127949147D01*
X127763053Y-127820795D01*
X127750157Y-127752126D01*
X127776433Y-127687385D01*
X127833540Y-127647128D01*
X127873538Y-127640500D01*
X128146462Y-127640500D01*
X128213501Y-127660185D01*
G37*
%TD.AperFunction*%
%TA.AperFunction,NonConductor*%
G36*
X125673501Y-127660185D02*
G01*
X125719256Y-127712989D01*
X125729200Y-127782147D01*
X125716947Y-127820795D01*
X125651547Y-127949147D01*
X125651546Y-127949150D01*
X125594420Y-128124969D01*
X125592473Y-128137263D01*
X125562543Y-128200397D01*
X125503231Y-128237328D01*
X125433369Y-128236330D01*
X125375136Y-128197719D01*
X125347527Y-128137263D01*
X125346239Y-128129132D01*
X125345580Y-128124971D01*
X125288452Y-127949148D01*
X125288452Y-127949147D01*
X125223053Y-127820795D01*
X125210157Y-127752126D01*
X125236433Y-127687385D01*
X125293540Y-127647128D01*
X125333538Y-127640500D01*
X125606462Y-127640500D01*
X125673501Y-127660185D01*
G37*
%TD.AperFunction*%
%TA.AperFunction,NonConductor*%
G36*
X123133501Y-127660185D02*
G01*
X123179256Y-127712989D01*
X123189200Y-127782147D01*
X123176947Y-127820795D01*
X123111547Y-127949147D01*
X123111546Y-127949150D01*
X123054420Y-128124969D01*
X123052473Y-128137263D01*
X123022543Y-128200397D01*
X122963231Y-128237328D01*
X122893369Y-128236330D01*
X122835136Y-128197719D01*
X122807527Y-128137263D01*
X122806239Y-128129132D01*
X122805580Y-128124971D01*
X122748452Y-127949148D01*
X122748452Y-127949147D01*
X122683053Y-127820795D01*
X122670157Y-127752126D01*
X122696433Y-127687385D01*
X122753540Y-127647128D01*
X122793538Y-127640500D01*
X123066462Y-127640500D01*
X123133501Y-127660185D01*
G37*
%TD.AperFunction*%
%TA.AperFunction,NonConductor*%
G36*
X120593501Y-127660185D02*
G01*
X120639256Y-127712989D01*
X120649200Y-127782147D01*
X120636947Y-127820795D01*
X120571547Y-127949147D01*
X120571546Y-127949150D01*
X120514420Y-128124969D01*
X120512473Y-128137263D01*
X120482543Y-128200397D01*
X120423231Y-128237328D01*
X120353369Y-128236330D01*
X120295136Y-128197719D01*
X120267527Y-128137263D01*
X120266239Y-128129132D01*
X120265580Y-128124971D01*
X120208452Y-127949148D01*
X120208452Y-127949147D01*
X120143053Y-127820795D01*
X120130157Y-127752126D01*
X120156433Y-127687385D01*
X120213540Y-127647128D01*
X120253538Y-127640500D01*
X120526462Y-127640500D01*
X120593501Y-127660185D01*
G37*
%TD.AperFunction*%
%TA.AperFunction,NonConductor*%
G36*
X141502367Y-120251886D02*
G01*
X141524161Y-120253882D01*
X141533740Y-120256166D01*
X141566503Y-120269737D01*
X141712012Y-120298680D01*
X141714265Y-120299218D01*
X141742646Y-120315457D01*
X141771602Y-120330604D01*
X141772802Y-120332712D01*
X141774909Y-120333918D01*
X141790001Y-120362915D01*
X141806176Y-120391319D01*
X141806046Y-120393741D01*
X141807167Y-120395895D01*
X141809500Y-120419836D01*
X141809500Y-128077769D01*
X141789815Y-128144808D01*
X141773181Y-128165450D01*
X138142000Y-131796630D01*
X138080677Y-131830115D01*
X138022227Y-131828724D01*
X137902446Y-131796630D01*
X137872463Y-131788596D01*
X137872457Y-131788595D01*
X137872452Y-131788594D01*
X137651466Y-131759501D01*
X137651463Y-131759500D01*
X137651457Y-131759500D01*
X137428543Y-131759500D01*
X137428537Y-131759500D01*
X137428533Y-131759501D01*
X137207547Y-131788594D01*
X137207540Y-131788595D01*
X137207537Y-131788596D01*
X137207530Y-131788598D01*
X136992219Y-131846290D01*
X136992209Y-131846293D01*
X136786277Y-131931593D01*
X136786266Y-131931598D01*
X136662500Y-132003056D01*
X136594600Y-132019529D01*
X136528573Y-131996677D01*
X136485383Y-131941756D01*
X136476500Y-131895669D01*
X136476500Y-129667228D01*
X136496185Y-129600189D01*
X136548989Y-129554434D01*
X136618147Y-129544490D01*
X136620149Y-129544874D01*
X136620159Y-129544818D01*
X136807560Y-129574500D01*
X136807565Y-129574500D01*
X136992440Y-129574500D01*
X137175030Y-129545580D01*
X137350849Y-129488453D01*
X137350852Y-129488452D01*
X137356253Y-129485700D01*
X137515572Y-129404523D01*
X137665136Y-129295859D01*
X137795859Y-129165136D01*
X137904523Y-129015572D01*
X137988452Y-128850852D01*
X138006437Y-128795501D01*
X138045580Y-128675030D01*
X138074500Y-128492440D01*
X138074500Y-128307559D01*
X138045580Y-128124969D01*
X137988453Y-127949150D01*
X137988452Y-127949147D01*
X137923053Y-127820795D01*
X137910157Y-127752126D01*
X137936433Y-127687385D01*
X137993540Y-127647128D01*
X138033538Y-127640500D01*
X138979055Y-127640500D01*
X138979057Y-127640500D01*
X139131784Y-127599577D01*
X139268716Y-127520520D01*
X139380520Y-127408716D01*
X139459577Y-127271784D01*
X139500500Y-127119057D01*
X139500500Y-120374500D01*
X139520185Y-120307461D01*
X139572989Y-120261706D01*
X139624500Y-120250500D01*
X141495396Y-120250500D01*
X141502367Y-120251886D01*
G37*
%TD.AperFunction*%
%TA.AperFunction,NonConductor*%
G36*
X144004418Y-104400816D02*
G01*
X144204561Y-104415130D01*
X144222063Y-104417647D01*
X144413795Y-104459355D01*
X144430760Y-104464336D01*
X144614611Y-104532909D01*
X144630694Y-104540253D01*
X144747495Y-104604032D01*
X144802908Y-104634290D01*
X144817791Y-104643855D01*
X144974864Y-104761438D01*
X144988235Y-104773024D01*
X145126975Y-104911764D01*
X145138561Y-104925135D01*
X145256144Y-105082208D01*
X145265709Y-105097091D01*
X145359743Y-105269300D01*
X145367093Y-105285394D01*
X145435661Y-105469234D01*
X145440645Y-105486209D01*
X145482351Y-105677931D01*
X145484869Y-105695442D01*
X145499184Y-105895580D01*
X145499500Y-105904427D01*
X145499500Y-116963582D01*
X145479815Y-117030621D01*
X145427011Y-117076376D01*
X145357853Y-117086320D01*
X145310741Y-117066805D01*
X145310114Y-117067954D01*
X145302328Y-117063702D01*
X145167482Y-117013408D01*
X145167483Y-117013408D01*
X145107883Y-117007001D01*
X145107881Y-117007000D01*
X145107873Y-117007000D01*
X145107864Y-117007000D01*
X143012129Y-117007000D01*
X143012123Y-117007001D01*
X142952516Y-117013408D01*
X142817671Y-117063702D01*
X142817664Y-117063706D01*
X142702455Y-117149952D01*
X142702452Y-117149955D01*
X142616206Y-117265164D01*
X142616202Y-117265171D01*
X142565908Y-117400017D01*
X142559501Y-117459616D01*
X142559500Y-117459635D01*
X142559500Y-118828059D01*
X142539815Y-118895098D01*
X142487011Y-118940853D01*
X142417853Y-118950797D01*
X142354297Y-118921772D01*
X142347819Y-118915740D01*
X142310292Y-118878213D01*
X142310288Y-118878210D01*
X142179185Y-118790609D01*
X142179172Y-118790602D01*
X142033501Y-118730264D01*
X142033489Y-118730261D01*
X141878845Y-118699500D01*
X141878842Y-118699500D01*
X141721158Y-118699500D01*
X141721155Y-118699500D01*
X141566511Y-118730260D01*
X141566506Y-118730262D01*
X141566504Y-118730262D01*
X141566503Y-118730263D01*
X141542844Y-118740062D01*
X141495396Y-118749500D01*
X139624500Y-118749500D01*
X139557461Y-118729815D01*
X139511706Y-118677011D01*
X139500500Y-118625500D01*
X139500500Y-114330945D01*
X139500500Y-114330943D01*
X139459577Y-114178216D01*
X139459573Y-114178209D01*
X139380524Y-114041290D01*
X139380518Y-114041282D01*
X139268717Y-113929481D01*
X139268709Y-113929475D01*
X139131790Y-113850426D01*
X139131786Y-113850424D01*
X139131784Y-113850423D01*
X138979057Y-113809500D01*
X138979056Y-113809500D01*
X138089586Y-113809500D01*
X138022547Y-113789815D01*
X137976792Y-113737011D01*
X137966848Y-113667853D01*
X137979101Y-113629206D01*
X137988449Y-113610857D01*
X137988452Y-113610852D01*
X138045580Y-113435029D01*
X138049500Y-113410279D01*
X138074500Y-113252440D01*
X138074500Y-113067559D01*
X138045580Y-112884969D01*
X137988453Y-112709150D01*
X137988452Y-112709147D01*
X137957984Y-112649351D01*
X137904523Y-112544428D01*
X137890639Y-112525318D01*
X137795864Y-112394870D01*
X137795860Y-112394865D01*
X137665134Y-112264139D01*
X137665129Y-112264135D01*
X137515575Y-112155479D01*
X137515574Y-112155478D01*
X137515572Y-112155477D01*
X137462799Y-112128588D01*
X137350852Y-112071547D01*
X137350849Y-112071546D01*
X137175030Y-112014419D01*
X136992440Y-111985500D01*
X136992435Y-111985500D01*
X136807565Y-111985500D01*
X136807560Y-111985500D01*
X136624969Y-112014419D01*
X136449150Y-112071546D01*
X136449147Y-112071547D01*
X136284424Y-112155479D01*
X136134870Y-112264135D01*
X136134865Y-112264139D01*
X136004139Y-112394865D01*
X136004135Y-112394870D01*
X135895479Y-112544424D01*
X135811547Y-112709147D01*
X135811546Y-112709150D01*
X135754420Y-112884969D01*
X135752473Y-112897263D01*
X135722543Y-112960397D01*
X135663231Y-112997328D01*
X135593369Y-112996330D01*
X135535136Y-112957719D01*
X135507527Y-112897263D01*
X135507192Y-112895150D01*
X135505580Y-112884971D01*
X135448452Y-112709148D01*
X135448452Y-112709147D01*
X135417984Y-112649351D01*
X135364523Y-112544428D01*
X135350639Y-112525318D01*
X135255864Y-112394870D01*
X135255860Y-112394865D01*
X135125134Y-112264139D01*
X135125129Y-112264135D01*
X134975575Y-112155479D01*
X134975574Y-112155478D01*
X134975572Y-112155477D01*
X134922799Y-112128588D01*
X134810852Y-112071547D01*
X134810849Y-112071546D01*
X134635030Y-112014419D01*
X134452440Y-111985500D01*
X134452435Y-111985500D01*
X134267565Y-111985500D01*
X134267560Y-111985500D01*
X134084969Y-112014419D01*
X133909150Y-112071546D01*
X133909147Y-112071547D01*
X133744424Y-112155479D01*
X133594870Y-112264135D01*
X133594865Y-112264139D01*
X133464139Y-112394865D01*
X133464135Y-112394870D01*
X133355479Y-112544424D01*
X133271547Y-112709147D01*
X133271546Y-112709150D01*
X133214420Y-112884969D01*
X133212473Y-112897263D01*
X133182543Y-112960397D01*
X133123231Y-112997328D01*
X133053369Y-112996330D01*
X132995136Y-112957719D01*
X132967527Y-112897263D01*
X132967192Y-112895150D01*
X132965580Y-112884971D01*
X132908452Y-112709148D01*
X132908452Y-112709147D01*
X132877984Y-112649351D01*
X132824523Y-112544428D01*
X132810639Y-112525318D01*
X132715864Y-112394870D01*
X132715860Y-112394865D01*
X132585134Y-112264139D01*
X132585129Y-112264135D01*
X132435575Y-112155479D01*
X132435574Y-112155478D01*
X132435572Y-112155477D01*
X132382799Y-112128588D01*
X132270852Y-112071547D01*
X132270849Y-112071546D01*
X132095030Y-112014419D01*
X131912440Y-111985500D01*
X131912435Y-111985500D01*
X131727565Y-111985500D01*
X131727560Y-111985500D01*
X131544969Y-112014419D01*
X131369150Y-112071546D01*
X131369147Y-112071547D01*
X131204424Y-112155479D01*
X131054870Y-112264135D01*
X131054865Y-112264139D01*
X130924139Y-112394865D01*
X130924135Y-112394870D01*
X130815479Y-112544424D01*
X130731547Y-112709147D01*
X130731546Y-112709150D01*
X130674420Y-112884969D01*
X130672473Y-112897263D01*
X130642543Y-112960397D01*
X130583231Y-112997328D01*
X130513369Y-112996330D01*
X130455136Y-112957719D01*
X130427527Y-112897263D01*
X130427192Y-112895150D01*
X130425580Y-112884971D01*
X130368452Y-112709148D01*
X130368452Y-112709147D01*
X130337984Y-112649351D01*
X130284523Y-112544428D01*
X130270639Y-112525318D01*
X130175864Y-112394870D01*
X130175860Y-112394865D01*
X130045134Y-112264139D01*
X130045129Y-112264135D01*
X129895575Y-112155479D01*
X129895574Y-112155478D01*
X129895572Y-112155477D01*
X129842799Y-112128588D01*
X129730852Y-112071547D01*
X129730849Y-112071546D01*
X129555030Y-112014419D01*
X129372440Y-111985500D01*
X129372435Y-111985500D01*
X129187565Y-111985500D01*
X129187560Y-111985500D01*
X129004969Y-112014419D01*
X128829150Y-112071546D01*
X128829147Y-112071547D01*
X128664424Y-112155479D01*
X128514870Y-112264135D01*
X128514865Y-112264139D01*
X128384139Y-112394865D01*
X128384135Y-112394870D01*
X128275479Y-112544424D01*
X128191547Y-112709147D01*
X128191546Y-112709150D01*
X128134420Y-112884969D01*
X128132473Y-112897263D01*
X128102543Y-112960397D01*
X128043231Y-112997328D01*
X127973369Y-112996330D01*
X127915136Y-112957719D01*
X127887527Y-112897263D01*
X127887192Y-112895150D01*
X127885580Y-112884971D01*
X127828452Y-112709148D01*
X127828452Y-112709147D01*
X127797984Y-112649351D01*
X127744523Y-112544428D01*
X127730639Y-112525318D01*
X127635864Y-112394870D01*
X127635860Y-112394865D01*
X127505134Y-112264139D01*
X127505129Y-112264135D01*
X127355575Y-112155479D01*
X127355574Y-112155478D01*
X127355572Y-112155477D01*
X127302799Y-112128588D01*
X127190852Y-112071547D01*
X127190849Y-112071546D01*
X127015030Y-112014419D01*
X126832440Y-111985500D01*
X126832435Y-111985500D01*
X126678230Y-111985500D01*
X126611191Y-111965815D01*
X126590549Y-111949181D01*
X125848421Y-111207052D01*
X125848414Y-111207046D01*
X125774729Y-111157812D01*
X125774729Y-111157813D01*
X125725491Y-111124913D01*
X125588917Y-111068343D01*
X125588907Y-111068340D01*
X125443920Y-111039500D01*
X125443918Y-111039500D01*
X117786082Y-111039500D01*
X117786076Y-111039500D01*
X117757242Y-111045234D01*
X117757243Y-111045235D01*
X117641093Y-111068339D01*
X117641083Y-111068342D01*
X117561081Y-111101479D01*
X117561082Y-111101480D01*
X117504505Y-111124915D01*
X117422372Y-111179795D01*
X117381585Y-111207047D01*
X117381581Y-111207050D01*
X116637049Y-111951582D01*
X116637049Y-111951583D01*
X116614386Y-111985501D01*
X116554913Y-112074508D01*
X116498343Y-112211082D01*
X116498340Y-112211092D01*
X116469500Y-112356079D01*
X116469500Y-131858141D01*
X116449815Y-131925180D01*
X116407501Y-131965527D01*
X116342501Y-132003056D01*
X116273226Y-132043052D01*
X116273217Y-132043058D01*
X116096377Y-132178751D01*
X116096370Y-132178757D01*
X115938754Y-132336373D01*
X115922875Y-132357068D01*
X115866447Y-132398270D01*
X115796701Y-132402424D01*
X115735781Y-132368211D01*
X115703028Y-132306493D01*
X115700500Y-132281580D01*
X115700500Y-107878711D01*
X117749500Y-107878711D01*
X117749500Y-108121288D01*
X117781161Y-108361785D01*
X117843947Y-108596104D01*
X117936773Y-108820205D01*
X117936776Y-108820212D01*
X118058064Y-109030289D01*
X118058066Y-109030292D01*
X118058067Y-109030293D01*
X118205733Y-109222736D01*
X118205739Y-109222743D01*
X118377256Y-109394260D01*
X118377262Y-109394265D01*
X118569711Y-109541936D01*
X118779788Y-109663224D01*
X119003900Y-109756054D01*
X119238211Y-109818838D01*
X119418586Y-109842584D01*
X119478711Y-109850500D01*
X119478712Y-109850500D01*
X119721289Y-109850500D01*
X119769388Y-109844167D01*
X119961789Y-109818838D01*
X120196100Y-109756054D01*
X120420212Y-109663224D01*
X120630289Y-109541936D01*
X120822738Y-109394265D01*
X120994265Y-109222738D01*
X121141936Y-109030289D01*
X121263224Y-108820212D01*
X121356054Y-108596100D01*
X121418838Y-108361789D01*
X121450500Y-108121288D01*
X121450500Y-107878712D01*
X121418838Y-107638211D01*
X121356054Y-107403900D01*
X121263224Y-107179788D01*
X121141936Y-106969711D01*
X120994265Y-106777262D01*
X120994260Y-106777256D01*
X120822743Y-106605739D01*
X120822736Y-106605733D01*
X120630293Y-106458067D01*
X120630292Y-106458066D01*
X120630289Y-106458064D01*
X120420212Y-106336776D01*
X120420205Y-106336773D01*
X120196104Y-106243947D01*
X120175557Y-106238441D01*
X119961789Y-106181162D01*
X119961788Y-106181161D01*
X119961785Y-106181161D01*
X119721289Y-106149500D01*
X119721288Y-106149500D01*
X119478712Y-106149500D01*
X119478711Y-106149500D01*
X119238214Y-106181161D01*
X119003895Y-106243947D01*
X118779794Y-106336773D01*
X118779785Y-106336777D01*
X118569706Y-106458067D01*
X118377263Y-106605733D01*
X118377256Y-106605739D01*
X118205739Y-106777256D01*
X118205733Y-106777263D01*
X118058067Y-106969706D01*
X117936777Y-107179785D01*
X117936773Y-107179794D01*
X117843947Y-107403895D01*
X117781161Y-107638214D01*
X117749500Y-107878711D01*
X115700500Y-107878711D01*
X115700500Y-106085837D01*
X123729500Y-106085837D01*
X123729500Y-107914162D01*
X123765215Y-108139660D01*
X123835770Y-108356803D01*
X123939421Y-108560228D01*
X124073621Y-108744937D01*
X124235063Y-108906379D01*
X124419772Y-109040579D01*
X124515884Y-109089550D01*
X124623196Y-109144229D01*
X124623198Y-109144229D01*
X124623201Y-109144231D01*
X124739592Y-109182049D01*
X124840339Y-109214784D01*
X125065838Y-109250500D01*
X125065843Y-109250500D01*
X125294162Y-109250500D01*
X125519660Y-109214784D01*
X125736799Y-109144231D01*
X125940228Y-109040579D01*
X126124937Y-108906379D01*
X126286379Y-108744937D01*
X126420579Y-108560228D01*
X126524231Y-108356799D01*
X126594784Y-108139660D01*
X126597694Y-108121288D01*
X126630500Y-107914162D01*
X126630500Y-106921153D01*
X127779500Y-106921153D01*
X127779500Y-107078846D01*
X127810261Y-107233489D01*
X127810264Y-107233501D01*
X127870602Y-107379172D01*
X127870609Y-107379185D01*
X127958210Y-107510288D01*
X127958213Y-107510292D01*
X128069707Y-107621786D01*
X128069711Y-107621789D01*
X128200814Y-107709390D01*
X128200827Y-107709397D01*
X128346498Y-107769735D01*
X128346503Y-107769737D01*
X128501153Y-107800499D01*
X128501156Y-107800500D01*
X128501158Y-107800500D01*
X128658844Y-107800500D01*
X128658845Y-107800499D01*
X128813497Y-107769737D01*
X128959179Y-107709394D01*
X129090289Y-107621789D01*
X129201789Y-107510289D01*
X129289394Y-107379179D01*
X129349737Y-107233497D01*
X129380500Y-107078842D01*
X129380500Y-106921158D01*
X129380500Y-106921155D01*
X129380499Y-106921153D01*
X132379500Y-106921153D01*
X132379500Y-107078846D01*
X132410261Y-107233489D01*
X132410264Y-107233501D01*
X132470602Y-107379172D01*
X132470609Y-107379185D01*
X132558210Y-107510288D01*
X132558213Y-107510292D01*
X132669707Y-107621786D01*
X132669711Y-107621789D01*
X132800814Y-107709390D01*
X132800827Y-107709397D01*
X132946498Y-107769735D01*
X132946503Y-107769737D01*
X133101153Y-107800499D01*
X133101156Y-107800500D01*
X133101158Y-107800500D01*
X133258844Y-107800500D01*
X133258845Y-107800499D01*
X133413497Y-107769737D01*
X133559179Y-107709394D01*
X133690289Y-107621789D01*
X133801789Y-107510289D01*
X133889394Y-107379179D01*
X133949737Y-107233497D01*
X133980500Y-107078842D01*
X133980500Y-106921158D01*
X133980500Y-106921155D01*
X133980499Y-106921153D01*
X133949738Y-106766510D01*
X133949737Y-106766503D01*
X133949735Y-106766498D01*
X133889397Y-106620827D01*
X133889390Y-106620814D01*
X133801789Y-106489711D01*
X133801786Y-106489707D01*
X133690292Y-106378213D01*
X133690288Y-106378210D01*
X133559185Y-106290609D01*
X133559172Y-106290602D01*
X133413501Y-106230264D01*
X133413491Y-106230261D01*
X133274369Y-106202588D01*
X133274368Y-106202587D01*
X133258846Y-106199500D01*
X133258842Y-106199500D01*
X133101158Y-106199500D01*
X133101155Y-106199500D01*
X132946510Y-106230261D01*
X132946498Y-106230264D01*
X132800827Y-106290602D01*
X132800814Y-106290609D01*
X132669711Y-106378210D01*
X132669707Y-106378213D01*
X132558213Y-106489707D01*
X132558210Y-106489711D01*
X132470609Y-106620814D01*
X132470602Y-106620827D01*
X132410264Y-106766498D01*
X132410261Y-106766510D01*
X132379500Y-106921153D01*
X129380499Y-106921153D01*
X129349738Y-106766510D01*
X129349737Y-106766503D01*
X129349735Y-106766498D01*
X129289397Y-106620827D01*
X129289390Y-106620814D01*
X129201789Y-106489711D01*
X129201786Y-106489707D01*
X129090292Y-106378213D01*
X129090288Y-106378210D01*
X128959185Y-106290609D01*
X128959172Y-106290602D01*
X128813501Y-106230264D01*
X128813489Y-106230261D01*
X128658845Y-106199500D01*
X128658842Y-106199500D01*
X128501158Y-106199500D01*
X128501155Y-106199500D01*
X128346510Y-106230261D01*
X128346498Y-106230264D01*
X128200827Y-106290602D01*
X128200814Y-106290609D01*
X128069711Y-106378210D01*
X128069707Y-106378213D01*
X127958213Y-106489707D01*
X127958210Y-106489711D01*
X127870609Y-106620814D01*
X127870602Y-106620827D01*
X127810264Y-106766498D01*
X127810261Y-106766510D01*
X127779500Y-106921153D01*
X126630500Y-106921153D01*
X126630500Y-106085837D01*
X135129500Y-106085837D01*
X135129500Y-107914162D01*
X135165215Y-108139660D01*
X135235770Y-108356803D01*
X135339421Y-108560228D01*
X135473621Y-108744937D01*
X135635063Y-108906379D01*
X135819772Y-109040579D01*
X135915884Y-109089550D01*
X136023196Y-109144229D01*
X136023198Y-109144229D01*
X136023201Y-109144231D01*
X136139592Y-109182049D01*
X136240339Y-109214784D01*
X136465838Y-109250500D01*
X136465843Y-109250500D01*
X136694162Y-109250500D01*
X136919660Y-109214784D01*
X137136799Y-109144231D01*
X137340228Y-109040579D01*
X137524937Y-108906379D01*
X137686379Y-108744937D01*
X137820579Y-108560228D01*
X137924231Y-108356799D01*
X137994784Y-108139660D01*
X137997694Y-108121288D01*
X138030500Y-107914162D01*
X138030500Y-107878711D01*
X140349500Y-107878711D01*
X140349500Y-108121288D01*
X140381161Y-108361785D01*
X140443947Y-108596104D01*
X140536773Y-108820205D01*
X140536776Y-108820212D01*
X140658064Y-109030289D01*
X140658066Y-109030292D01*
X140658067Y-109030293D01*
X140805733Y-109222736D01*
X140805739Y-109222743D01*
X140977256Y-109394260D01*
X140977262Y-109394265D01*
X141169711Y-109541936D01*
X141379788Y-109663224D01*
X141603900Y-109756054D01*
X141838211Y-109818838D01*
X142018586Y-109842584D01*
X142078711Y-109850500D01*
X142078712Y-109850500D01*
X142321289Y-109850500D01*
X142369388Y-109844167D01*
X142561789Y-109818838D01*
X142796100Y-109756054D01*
X143020212Y-109663224D01*
X143230289Y-109541936D01*
X143422738Y-109394265D01*
X143594265Y-109222738D01*
X143741936Y-109030289D01*
X143863224Y-108820212D01*
X143956054Y-108596100D01*
X144018838Y-108361789D01*
X144050500Y-108121288D01*
X144050500Y-107878712D01*
X144018838Y-107638211D01*
X143956054Y-107403900D01*
X143863224Y-107179788D01*
X143741936Y-106969711D01*
X143594265Y-106777262D01*
X143594260Y-106777256D01*
X143422743Y-106605739D01*
X143422736Y-106605733D01*
X143230293Y-106458067D01*
X143230292Y-106458066D01*
X143230289Y-106458064D01*
X143020212Y-106336776D01*
X143020205Y-106336773D01*
X142796104Y-106243947D01*
X142561785Y-106181161D01*
X142321289Y-106149500D01*
X142321288Y-106149500D01*
X142078712Y-106149500D01*
X142078711Y-106149500D01*
X141838214Y-106181161D01*
X141603895Y-106243947D01*
X141379794Y-106336773D01*
X141379785Y-106336777D01*
X141169706Y-106458067D01*
X140977263Y-106605733D01*
X140977256Y-106605739D01*
X140805739Y-106777256D01*
X140805733Y-106777263D01*
X140658067Y-106969706D01*
X140536777Y-107179785D01*
X140536773Y-107179794D01*
X140443947Y-107403895D01*
X140381161Y-107638214D01*
X140349500Y-107878711D01*
X138030500Y-107878711D01*
X138030500Y-106085837D01*
X137994784Y-105860339D01*
X137958525Y-105748748D01*
X137924231Y-105643201D01*
X137924229Y-105643198D01*
X137924229Y-105643196D01*
X137844240Y-105486209D01*
X137820579Y-105439772D01*
X137686379Y-105255063D01*
X137524937Y-105093621D01*
X137340228Y-104959421D01*
X137272938Y-104925135D01*
X137136803Y-104855770D01*
X136919660Y-104785215D01*
X136694162Y-104749500D01*
X136694157Y-104749500D01*
X136465843Y-104749500D01*
X136465838Y-104749500D01*
X136240339Y-104785215D01*
X136023196Y-104855770D01*
X135819771Y-104959421D01*
X135635061Y-105093622D01*
X135473622Y-105255061D01*
X135339421Y-105439771D01*
X135235770Y-105643196D01*
X135165215Y-105860339D01*
X135129500Y-106085837D01*
X126630500Y-106085837D01*
X126594784Y-105860339D01*
X126558525Y-105748748D01*
X126524231Y-105643201D01*
X126524229Y-105643198D01*
X126524229Y-105643196D01*
X126444240Y-105486209D01*
X126420579Y-105439772D01*
X126286379Y-105255063D01*
X126124937Y-105093621D01*
X125940228Y-104959421D01*
X125872938Y-104925135D01*
X125736803Y-104855770D01*
X125519660Y-104785215D01*
X125294162Y-104749500D01*
X125294157Y-104749500D01*
X125065843Y-104749500D01*
X125065838Y-104749500D01*
X124840339Y-104785215D01*
X124623196Y-104855770D01*
X124419771Y-104959421D01*
X124235061Y-105093622D01*
X124073622Y-105255061D01*
X123939421Y-105439771D01*
X123835770Y-105643196D01*
X123765215Y-105860339D01*
X123729500Y-106085837D01*
X115700500Y-106085837D01*
X115700500Y-105904427D01*
X115700816Y-105895581D01*
X115700816Y-105895580D01*
X115715131Y-105695434D01*
X115717646Y-105677938D01*
X115759356Y-105486200D01*
X115764335Y-105469242D01*
X115832911Y-105285382D01*
X115840251Y-105269310D01*
X115934294Y-105097083D01*
X115943850Y-105082214D01*
X116061443Y-104925128D01*
X116073017Y-104911771D01*
X116211771Y-104773017D01*
X116225128Y-104761443D01*
X116382214Y-104643850D01*
X116397083Y-104634294D01*
X116569310Y-104540251D01*
X116585382Y-104532911D01*
X116769242Y-104464335D01*
X116786200Y-104459356D01*
X116977938Y-104417646D01*
X116995436Y-104415130D01*
X117195582Y-104400816D01*
X117204428Y-104400500D01*
X117265892Y-104400500D01*
X143934108Y-104400500D01*
X143995572Y-104400500D01*
X144004418Y-104400816D01*
G37*
%TD.AperFunction*%
%TA.AperFunction,NonConductor*%
G36*
X145461921Y-124388776D02*
G01*
X145496278Y-124449615D01*
X145499500Y-124477700D01*
X145499500Y-149745572D01*
X145499184Y-149754419D01*
X145484869Y-149954557D01*
X145482351Y-149972068D01*
X145440645Y-150163790D01*
X145435661Y-150180765D01*
X145367093Y-150364605D01*
X145359743Y-150380699D01*
X145265709Y-150552908D01*
X145256144Y-150567791D01*
X145138561Y-150724864D01*
X145126975Y-150738235D01*
X144988235Y-150876975D01*
X144974864Y-150888561D01*
X144817791Y-151006144D01*
X144802908Y-151015709D01*
X144630699Y-151109743D01*
X144614605Y-151117093D01*
X144430765Y-151185661D01*
X144413790Y-151190645D01*
X144222068Y-151232351D01*
X144204557Y-151234869D01*
X144023779Y-151247799D01*
X144004417Y-151249184D01*
X143995572Y-151249500D01*
X117204428Y-151249500D01*
X117195582Y-151249184D01*
X117173622Y-151247613D01*
X116995442Y-151234869D01*
X116977931Y-151232351D01*
X116786209Y-151190645D01*
X116769234Y-151185661D01*
X116585394Y-151117093D01*
X116569300Y-151109743D01*
X116397091Y-151015709D01*
X116382208Y-151006144D01*
X116225135Y-150888561D01*
X116211764Y-150876975D01*
X116073024Y-150738235D01*
X116061438Y-150724864D01*
X115943855Y-150567791D01*
X115934290Y-150552908D01*
X115840256Y-150380699D01*
X115832909Y-150364611D01*
X115764336Y-150180760D01*
X115759354Y-150163790D01*
X115717648Y-149972068D01*
X115715130Y-149954556D01*
X115700816Y-149754418D01*
X115700500Y-149745572D01*
X115700500Y-146678711D01*
X117749500Y-146678711D01*
X117749500Y-146921288D01*
X117781161Y-147161785D01*
X117843947Y-147396104D01*
X117936773Y-147620205D01*
X117936776Y-147620212D01*
X118058064Y-147830289D01*
X118058066Y-147830292D01*
X118058067Y-147830293D01*
X118205733Y-148022736D01*
X118205739Y-148022743D01*
X118377256Y-148194260D01*
X118377262Y-148194265D01*
X118569711Y-148341936D01*
X118779788Y-148463224D01*
X119003900Y-148556054D01*
X119238211Y-148618838D01*
X119418586Y-148642584D01*
X119478711Y-148650500D01*
X119478712Y-148650500D01*
X119721289Y-148650500D01*
X119769388Y-148644167D01*
X119961789Y-148618838D01*
X120196100Y-148556054D01*
X120420212Y-148463224D01*
X120630289Y-148341936D01*
X120822738Y-148194265D01*
X120994265Y-148022738D01*
X121141936Y-147830289D01*
X121263224Y-147620212D01*
X121356054Y-147396100D01*
X121418838Y-147161789D01*
X121450500Y-146921288D01*
X121450500Y-146678712D01*
X121450500Y-146678711D01*
X140349500Y-146678711D01*
X140349500Y-146921288D01*
X140381161Y-147161785D01*
X140443947Y-147396104D01*
X140536773Y-147620205D01*
X140536776Y-147620212D01*
X140658064Y-147830289D01*
X140658066Y-147830292D01*
X140658067Y-147830293D01*
X140805733Y-148022736D01*
X140805739Y-148022743D01*
X140977256Y-148194260D01*
X140977262Y-148194265D01*
X141169711Y-148341936D01*
X141379788Y-148463224D01*
X141603900Y-148556054D01*
X141838211Y-148618838D01*
X142018586Y-148642584D01*
X142078711Y-148650500D01*
X142078712Y-148650500D01*
X142321289Y-148650500D01*
X142369388Y-148644167D01*
X142561789Y-148618838D01*
X142796100Y-148556054D01*
X143020212Y-148463224D01*
X143230289Y-148341936D01*
X143422738Y-148194265D01*
X143594265Y-148022738D01*
X143741936Y-147830289D01*
X143863224Y-147620212D01*
X143956054Y-147396100D01*
X144018838Y-147161789D01*
X144050500Y-146921288D01*
X144050500Y-146678712D01*
X144018838Y-146438211D01*
X143956054Y-146203900D01*
X143863224Y-145979788D01*
X143741936Y-145769711D01*
X143594265Y-145577262D01*
X143594260Y-145577256D01*
X143422743Y-145405739D01*
X143422736Y-145405733D01*
X143230293Y-145258067D01*
X143230292Y-145258066D01*
X143230289Y-145258064D01*
X143020212Y-145136776D01*
X143020205Y-145136773D01*
X142796104Y-145043947D01*
X142561785Y-144981161D01*
X142321289Y-144949500D01*
X142321288Y-144949500D01*
X142078712Y-144949500D01*
X142078711Y-144949500D01*
X141838214Y-144981161D01*
X141603895Y-145043947D01*
X141379794Y-145136773D01*
X141379785Y-145136777D01*
X141169706Y-145258067D01*
X140977263Y-145405733D01*
X140977256Y-145405739D01*
X140805739Y-145577256D01*
X140805733Y-145577263D01*
X140658067Y-145769706D01*
X140536777Y-145979785D01*
X140536773Y-145979794D01*
X140443947Y-146203895D01*
X140381161Y-146438214D01*
X140349500Y-146678711D01*
X121450500Y-146678711D01*
X121418838Y-146438211D01*
X121356054Y-146203900D01*
X121263224Y-145979788D01*
X121141936Y-145769711D01*
X120994265Y-145577262D01*
X120994260Y-145577256D01*
X120822743Y-145405739D01*
X120822736Y-145405733D01*
X120630293Y-145258067D01*
X120630292Y-145258066D01*
X120630289Y-145258064D01*
X120420212Y-145136776D01*
X120420205Y-145136773D01*
X120196104Y-145043947D01*
X119961785Y-144981161D01*
X119721289Y-144949500D01*
X119721288Y-144949500D01*
X119478712Y-144949500D01*
X119478711Y-144949500D01*
X119238214Y-144981161D01*
X119003895Y-145043947D01*
X118779794Y-145136773D01*
X118779785Y-145136777D01*
X118569706Y-145258067D01*
X118377263Y-145405733D01*
X118377256Y-145405739D01*
X118205739Y-145577256D01*
X118205733Y-145577263D01*
X118058067Y-145769706D01*
X117936777Y-145979785D01*
X117936773Y-145979794D01*
X117843947Y-146203895D01*
X117781161Y-146438214D01*
X117749500Y-146678711D01*
X115700500Y-146678711D01*
X115700500Y-141849986D01*
X122059500Y-141849986D01*
X122059500Y-142145013D01*
X122091571Y-142388613D01*
X122098007Y-142437493D01*
X122098008Y-142437495D01*
X122174361Y-142722451D01*
X122174364Y-142722461D01*
X122287254Y-142995000D01*
X122287258Y-142995010D01*
X122434761Y-143250493D01*
X122614352Y-143484540D01*
X122614358Y-143484547D01*
X122822952Y-143693141D01*
X122822959Y-143693147D01*
X123057006Y-143872738D01*
X123312489Y-144020241D01*
X123312490Y-144020241D01*
X123312493Y-144020243D01*
X123585048Y-144133139D01*
X123870007Y-144209493D01*
X124162494Y-144248000D01*
X124162501Y-144248000D01*
X124457499Y-144248000D01*
X124457506Y-144248000D01*
X124749993Y-144209493D01*
X125034952Y-144133139D01*
X125307507Y-144020243D01*
X125562994Y-143872738D01*
X125797042Y-143693146D01*
X126005646Y-143484542D01*
X126185238Y-143250494D01*
X126332743Y-142995007D01*
X126445639Y-142722452D01*
X126521993Y-142437493D01*
X126560500Y-142145006D01*
X126560500Y-141849994D01*
X126560499Y-141849986D01*
X135199500Y-141849986D01*
X135199500Y-142145013D01*
X135231571Y-142388613D01*
X135238007Y-142437493D01*
X135238008Y-142437495D01*
X135314361Y-142722451D01*
X135314364Y-142722461D01*
X135427254Y-142995000D01*
X135427258Y-142995010D01*
X135574761Y-143250493D01*
X135754352Y-143484540D01*
X135754358Y-143484547D01*
X135962952Y-143693141D01*
X135962959Y-143693147D01*
X136197006Y-143872738D01*
X136452489Y-144020241D01*
X136452490Y-144020241D01*
X136452493Y-144020243D01*
X136725048Y-144133139D01*
X137010007Y-144209493D01*
X137302494Y-144248000D01*
X137302501Y-144248000D01*
X137597499Y-144248000D01*
X137597506Y-144248000D01*
X137889993Y-144209493D01*
X138174952Y-144133139D01*
X138447507Y-144020243D01*
X138702994Y-143872738D01*
X138937042Y-143693146D01*
X139145646Y-143484542D01*
X139325238Y-143250494D01*
X139472743Y-142995007D01*
X139585639Y-142722452D01*
X139661993Y-142437493D01*
X139700500Y-142145006D01*
X139700500Y-141849994D01*
X139661993Y-141557507D01*
X139585639Y-141272548D01*
X139472743Y-140999993D01*
X139325238Y-140744506D01*
X139145646Y-140510458D01*
X139145641Y-140510452D01*
X138937047Y-140301858D01*
X138937040Y-140301852D01*
X138702993Y-140122261D01*
X138447510Y-139974758D01*
X138447500Y-139974754D01*
X138174961Y-139861864D01*
X138174954Y-139861862D01*
X138174952Y-139861861D01*
X137889993Y-139785507D01*
X137841113Y-139779071D01*
X137597513Y-139747000D01*
X137597506Y-139747000D01*
X137302494Y-139747000D01*
X137302486Y-139747000D01*
X137024085Y-139783653D01*
X137010007Y-139785507D01*
X136771150Y-139849508D01*
X136725048Y-139861861D01*
X136725038Y-139861864D01*
X136452499Y-139974754D01*
X136452489Y-139974758D01*
X136197006Y-140122261D01*
X135962959Y-140301852D01*
X135962952Y-140301858D01*
X135754358Y-140510452D01*
X135754352Y-140510459D01*
X135574761Y-140744506D01*
X135427258Y-140999989D01*
X135427254Y-140999999D01*
X135314364Y-141272538D01*
X135314361Y-141272548D01*
X135238008Y-141557504D01*
X135238006Y-141557515D01*
X135199500Y-141849986D01*
X126560499Y-141849986D01*
X126521993Y-141557507D01*
X126445639Y-141272548D01*
X126332743Y-140999993D01*
X126185238Y-140744506D01*
X126005646Y-140510458D01*
X126005641Y-140510452D01*
X125797047Y-140301858D01*
X125797040Y-140301852D01*
X125562993Y-140122261D01*
X125307510Y-139974758D01*
X125307500Y-139974754D01*
X125034961Y-139861864D01*
X125034954Y-139861862D01*
X125034952Y-139861861D01*
X124749993Y-139785507D01*
X124701113Y-139779071D01*
X124457513Y-139747000D01*
X124457506Y-139747000D01*
X124162494Y-139747000D01*
X124162486Y-139747000D01*
X123884085Y-139783653D01*
X123870007Y-139785507D01*
X123631150Y-139849508D01*
X123585048Y-139861861D01*
X123585038Y-139861864D01*
X123312499Y-139974754D01*
X123312489Y-139974758D01*
X123057006Y-140122261D01*
X122822959Y-140301852D01*
X122822952Y-140301858D01*
X122614358Y-140510452D01*
X122614352Y-140510459D01*
X122434761Y-140744506D01*
X122287258Y-140999989D01*
X122287254Y-140999999D01*
X122174364Y-141272538D01*
X122174361Y-141272548D01*
X122098008Y-141557504D01*
X122098006Y-141557515D01*
X122059500Y-141849986D01*
X115700500Y-141849986D01*
X115700500Y-134638419D01*
X115720185Y-134571380D01*
X115772989Y-134525625D01*
X115842147Y-134515681D01*
X115905703Y-134544706D01*
X115922876Y-134562933D01*
X115938751Y-134583622D01*
X115938757Y-134583629D01*
X116096370Y-134741242D01*
X116096376Y-134741247D01*
X116273226Y-134876948D01*
X116466274Y-134988405D01*
X116672219Y-135073710D01*
X116887537Y-135131404D01*
X117108543Y-135160500D01*
X117108550Y-135160500D01*
X117331450Y-135160500D01*
X117331457Y-135160500D01*
X117552463Y-135131404D01*
X117767781Y-135073710D01*
X117973726Y-134988405D01*
X118166774Y-134876948D01*
X118343624Y-134741247D01*
X118501247Y-134583624D01*
X118636948Y-134406774D01*
X118748405Y-134213726D01*
X118833710Y-134007781D01*
X118891404Y-133792463D01*
X118920500Y-133571457D01*
X118920500Y-133348543D01*
X118891404Y-133127537D01*
X118833710Y-132912219D01*
X118748405Y-132706274D01*
X118636948Y-132513226D01*
X118525675Y-132368211D01*
X118501248Y-132336377D01*
X118501242Y-132336370D01*
X118343629Y-132178757D01*
X118343622Y-132178751D01*
X118166782Y-132043058D01*
X118166780Y-132043057D01*
X118166774Y-132043052D01*
X118032498Y-131965527D01*
X117984284Y-131914961D01*
X117970500Y-131858141D01*
X117970500Y-129197662D01*
X117990185Y-129130623D01*
X118042989Y-129084868D01*
X118112147Y-129074924D01*
X118175703Y-129103949D01*
X118194819Y-129124777D01*
X118224141Y-129165136D01*
X118354865Y-129295860D01*
X118354870Y-129295864D01*
X118485318Y-129390639D01*
X118504428Y-129404523D01*
X118612106Y-129459388D01*
X118669147Y-129488452D01*
X118669150Y-129488453D01*
X118844969Y-129545580D01*
X119027560Y-129574500D01*
X119027565Y-129574500D01*
X119212440Y-129574500D01*
X119395030Y-129545580D01*
X119570849Y-129488453D01*
X119570852Y-129488452D01*
X119576253Y-129485700D01*
X119735572Y-129404523D01*
X119885136Y-129295859D01*
X120015859Y-129165136D01*
X120124523Y-129015572D01*
X120208452Y-128850852D01*
X120265580Y-128675029D01*
X120267527Y-128662737D01*
X120297456Y-128599602D01*
X120356768Y-128562671D01*
X120426630Y-128563669D01*
X120484863Y-128602279D01*
X120512473Y-128662737D01*
X120514420Y-128675030D01*
X120571546Y-128850849D01*
X120571547Y-128850852D01*
X120655479Y-129015575D01*
X120764135Y-129165129D01*
X120764139Y-129165134D01*
X120894865Y-129295860D01*
X120894870Y-129295864D01*
X121025318Y-129390639D01*
X121044428Y-129404523D01*
X121152106Y-129459388D01*
X121209147Y-129488452D01*
X121209150Y-129488453D01*
X121384969Y-129545580D01*
X121567560Y-129574500D01*
X121567565Y-129574500D01*
X121752440Y-129574500D01*
X121935030Y-129545580D01*
X122110849Y-129488453D01*
X122110852Y-129488452D01*
X122116253Y-129485700D01*
X122275572Y-129404523D01*
X122425136Y-129295859D01*
X122555859Y-129165136D01*
X122664523Y-129015572D01*
X122748452Y-128850852D01*
X122805580Y-128675029D01*
X122807527Y-128662737D01*
X122837456Y-128599602D01*
X122896768Y-128562671D01*
X122966630Y-128563669D01*
X123024863Y-128602279D01*
X123052473Y-128662737D01*
X123054420Y-128675030D01*
X123111546Y-128850849D01*
X123111547Y-128850852D01*
X123195479Y-129015575D01*
X123304135Y-129165129D01*
X123304139Y-129165134D01*
X123434865Y-129295860D01*
X123434870Y-129295864D01*
X123565318Y-129390639D01*
X123584428Y-129404523D01*
X123692106Y-129459388D01*
X123749147Y-129488452D01*
X123749150Y-129488453D01*
X123924969Y-129545580D01*
X124107560Y-129574500D01*
X124107565Y-129574500D01*
X124292440Y-129574500D01*
X124475030Y-129545580D01*
X124650849Y-129488453D01*
X124650852Y-129488452D01*
X124656253Y-129485700D01*
X124815572Y-129404523D01*
X124965136Y-129295859D01*
X125095859Y-129165136D01*
X125204523Y-129015572D01*
X125288452Y-128850852D01*
X125345580Y-128675029D01*
X125347527Y-128662737D01*
X125377456Y-128599602D01*
X125436768Y-128562671D01*
X125506630Y-128563669D01*
X125564863Y-128602279D01*
X125592473Y-128662737D01*
X125594420Y-128675030D01*
X125651546Y-128850849D01*
X125651547Y-128850852D01*
X125735479Y-129015575D01*
X125844135Y-129165129D01*
X125844139Y-129165134D01*
X125974865Y-129295860D01*
X125974870Y-129295864D01*
X126105318Y-129390639D01*
X126124428Y-129404523D01*
X126232106Y-129459388D01*
X126289147Y-129488452D01*
X126289150Y-129488453D01*
X126464969Y-129545580D01*
X126647560Y-129574500D01*
X126647565Y-129574500D01*
X126832440Y-129574500D01*
X127015030Y-129545580D01*
X127190849Y-129488453D01*
X127190852Y-129488452D01*
X127196253Y-129485700D01*
X127355572Y-129404523D01*
X127505136Y-129295859D01*
X127635859Y-129165136D01*
X127744523Y-129015572D01*
X127828452Y-128850852D01*
X127885580Y-128675029D01*
X127887527Y-128662737D01*
X127917456Y-128599602D01*
X127976768Y-128562671D01*
X128046630Y-128563669D01*
X128104863Y-128602279D01*
X128132473Y-128662737D01*
X128134420Y-128675030D01*
X128191546Y-128850849D01*
X128191547Y-128850852D01*
X128275479Y-129015575D01*
X128384135Y-129165129D01*
X128384139Y-129165134D01*
X128514865Y-129295860D01*
X128514870Y-129295864D01*
X128645318Y-129390639D01*
X128664428Y-129404523D01*
X128772106Y-129459388D01*
X128829147Y-129488452D01*
X128829150Y-129488453D01*
X129004969Y-129545580D01*
X129187560Y-129574500D01*
X129187565Y-129574500D01*
X129372440Y-129574500D01*
X129555030Y-129545580D01*
X129730849Y-129488453D01*
X129730852Y-129488452D01*
X129736253Y-129485700D01*
X129895572Y-129404523D01*
X130045136Y-129295859D01*
X130175859Y-129165136D01*
X130284523Y-129015572D01*
X130368452Y-128850852D01*
X130425580Y-128675029D01*
X130427527Y-128662737D01*
X130457456Y-128599602D01*
X130516768Y-128562671D01*
X130586630Y-128563669D01*
X130644863Y-128602279D01*
X130672473Y-128662737D01*
X130674420Y-128675030D01*
X130731546Y-128850849D01*
X130731547Y-128850852D01*
X130815479Y-129015575D01*
X130924135Y-129165129D01*
X130924139Y-129165134D01*
X131054865Y-129295860D01*
X131054870Y-129295864D01*
X131185318Y-129390639D01*
X131204428Y-129404523D01*
X131312106Y-129459388D01*
X131369147Y-129488452D01*
X131369150Y-129488453D01*
X131544969Y-129545580D01*
X131727560Y-129574500D01*
X131727565Y-129574500D01*
X131912440Y-129574500D01*
X132095030Y-129545580D01*
X132270849Y-129488453D01*
X132270852Y-129488452D01*
X132276253Y-129485700D01*
X132435572Y-129404523D01*
X132585136Y-129295859D01*
X132715859Y-129165136D01*
X132824523Y-129015572D01*
X132908452Y-128850852D01*
X132965580Y-128675029D01*
X132967527Y-128662737D01*
X132997456Y-128599602D01*
X133056768Y-128562671D01*
X133126630Y-128563669D01*
X133184863Y-128602279D01*
X133212473Y-128662737D01*
X133214420Y-128675030D01*
X133271546Y-128850849D01*
X133271547Y-128850852D01*
X133355479Y-129015575D01*
X133464135Y-129165129D01*
X133464139Y-129165134D01*
X133594865Y-129295860D01*
X133594870Y-129295864D01*
X133725318Y-129390639D01*
X133744428Y-129404523D01*
X133852106Y-129459388D01*
X133909147Y-129488452D01*
X133909150Y-129488453D01*
X134084969Y-129545580D01*
X134267560Y-129574500D01*
X134267565Y-129574500D01*
X134452440Y-129574500D01*
X134635029Y-129545580D01*
X134813182Y-129487695D01*
X134883023Y-129485700D01*
X134942856Y-129521780D01*
X134973684Y-129584481D01*
X134975500Y-129605626D01*
X134975500Y-137579270D01*
X134955815Y-137646309D01*
X134939181Y-137666951D01*
X134611893Y-137994238D01*
X134550570Y-138027723D01*
X134504816Y-138029031D01*
X134479363Y-138025000D01*
X134479361Y-138025000D01*
X134280639Y-138025000D01*
X134215214Y-138035362D01*
X134084362Y-138056087D01*
X133895370Y-138117493D01*
X133895367Y-138117494D01*
X133718305Y-138207713D01*
X133557533Y-138324521D01*
X133417021Y-138465033D01*
X133300213Y-138625805D01*
X133240485Y-138743028D01*
X133192510Y-138793824D01*
X133124689Y-138810619D01*
X133058554Y-138788081D01*
X133019515Y-138743028D01*
X132965494Y-138637007D01*
X132959787Y-138625806D01*
X132842981Y-138465036D01*
X132702464Y-138324519D01*
X132541694Y-138207713D01*
X132364632Y-138117494D01*
X132364629Y-138117493D01*
X132175637Y-138056087D01*
X132077498Y-138040543D01*
X131979361Y-138025000D01*
X131780639Y-138025000D01*
X131715214Y-138035362D01*
X131584362Y-138056087D01*
X131395370Y-138117493D01*
X131395367Y-138117494D01*
X131218305Y-138207713D01*
X131057533Y-138324521D01*
X130967681Y-138414374D01*
X130906358Y-138447859D01*
X130836666Y-138442875D01*
X130792319Y-138414374D01*
X130702466Y-138324521D01*
X130702464Y-138324519D01*
X130541694Y-138207713D01*
X130364632Y-138117494D01*
X130364629Y-138117493D01*
X130175637Y-138056087D01*
X130077498Y-138040543D01*
X129979361Y-138025000D01*
X129780639Y-138025000D01*
X129715214Y-138035362D01*
X129584362Y-138056087D01*
X129395370Y-138117493D01*
X129395367Y-138117494D01*
X129218305Y-138207713D01*
X129057533Y-138324521D01*
X128917020Y-138465034D01*
X128827416Y-138588363D01*
X128772085Y-138631028D01*
X128702472Y-138637007D01*
X128640677Y-138604401D01*
X128609392Y-138554481D01*
X128579753Y-138465036D01*
X128576814Y-138456166D01*
X128484712Y-138306844D01*
X128360656Y-138182788D01*
X128211334Y-138090686D01*
X128044797Y-138035501D01*
X128044795Y-138035500D01*
X127942010Y-138025000D01*
X126817998Y-138025000D01*
X126817981Y-138025001D01*
X126715203Y-138035500D01*
X126715200Y-138035501D01*
X126548668Y-138090685D01*
X126548663Y-138090687D01*
X126399342Y-138182789D01*
X126275289Y-138306842D01*
X126183187Y-138456163D01*
X126183185Y-138456168D01*
X126163363Y-138515988D01*
X126128001Y-138622703D01*
X126128001Y-138622704D01*
X126128000Y-138622704D01*
X126117500Y-138725483D01*
X126117500Y-139849501D01*
X126117501Y-139849518D01*
X126128000Y-139952296D01*
X126128001Y-139952299D01*
X126180247Y-140109964D01*
X126183186Y-140118834D01*
X126275288Y-140268156D01*
X126399344Y-140392212D01*
X126548666Y-140484314D01*
X126715203Y-140539499D01*
X126817991Y-140550000D01*
X127942008Y-140549999D01*
X128044797Y-140539499D01*
X128211334Y-140484314D01*
X128360656Y-140392212D01*
X128484712Y-140268156D01*
X128576814Y-140118834D01*
X128609393Y-140020515D01*
X128649164Y-139963073D01*
X128713680Y-139936250D01*
X128782456Y-139948565D01*
X128827416Y-139986636D01*
X128917019Y-140109964D01*
X129057536Y-140250481D01*
X129218306Y-140367287D01*
X129267220Y-140392210D01*
X129395367Y-140457505D01*
X129395370Y-140457506D01*
X129477872Y-140484312D01*
X129584364Y-140518913D01*
X129780639Y-140550000D01*
X129780640Y-140550000D01*
X129979360Y-140550000D01*
X129979361Y-140550000D01*
X130175636Y-140518913D01*
X130364632Y-140457505D01*
X130541694Y-140367287D01*
X130702464Y-140250481D01*
X130792319Y-140160626D01*
X130853642Y-140127141D01*
X130923334Y-140132125D01*
X130967681Y-140160626D01*
X131057536Y-140250481D01*
X131218306Y-140367287D01*
X131267220Y-140392210D01*
X131395367Y-140457505D01*
X131395370Y-140457506D01*
X131477872Y-140484312D01*
X131584364Y-140518913D01*
X131780639Y-140550000D01*
X131780640Y-140550000D01*
X131979360Y-140550000D01*
X131979361Y-140550000D01*
X132175636Y-140518913D01*
X132364632Y-140457505D01*
X132541694Y-140367287D01*
X132702464Y-140250481D01*
X132842981Y-140109964D01*
X132959787Y-139949194D01*
X133019515Y-139831970D01*
X133067490Y-139781175D01*
X133135311Y-139764380D01*
X133201445Y-139786917D01*
X133240484Y-139831969D01*
X133300213Y-139949194D01*
X133417019Y-140109964D01*
X133557536Y-140250481D01*
X133718306Y-140367287D01*
X133767220Y-140392210D01*
X133895367Y-140457505D01*
X133895370Y-140457506D01*
X133977872Y-140484312D01*
X134084364Y-140518913D01*
X134280639Y-140550000D01*
X134280640Y-140550000D01*
X134479360Y-140550000D01*
X134479361Y-140550000D01*
X134675636Y-140518913D01*
X134864632Y-140457505D01*
X135041694Y-140367287D01*
X135202464Y-140250481D01*
X135342981Y-140109964D01*
X135459787Y-139949194D01*
X135550005Y-139772132D01*
X135611413Y-139583136D01*
X135642500Y-139386861D01*
X135642500Y-139188139D01*
X135638468Y-139162684D01*
X135647422Y-139093392D01*
X135673257Y-139055608D01*
X136308951Y-138419916D01*
X136391084Y-138296995D01*
X136447658Y-138160413D01*
X136456195Y-138117495D01*
X136472505Y-138035501D01*
X136476500Y-138015420D01*
X136476500Y-135024330D01*
X136496185Y-134957291D01*
X136548989Y-134911536D01*
X136618147Y-134901592D01*
X136662495Y-134916941D01*
X136786274Y-134988405D01*
X136992219Y-135073710D01*
X137207537Y-135131404D01*
X137428543Y-135160500D01*
X137428550Y-135160500D01*
X137651450Y-135160500D01*
X137651457Y-135160500D01*
X137872463Y-135131404D01*
X138087781Y-135073710D01*
X138293726Y-134988405D01*
X138486774Y-134876948D01*
X138663624Y-134741247D01*
X138821247Y-134583624D01*
X138956948Y-134406774D01*
X139068405Y-134213726D01*
X139153710Y-134007781D01*
X139211404Y-133792463D01*
X139240500Y-133571457D01*
X139240500Y-133348543D01*
X139211404Y-133127537D01*
X139171274Y-132977769D01*
X139172937Y-132907923D01*
X139203366Y-132858000D01*
X143142951Y-128918416D01*
X143225084Y-128795495D01*
X143281658Y-128658913D01*
X143291096Y-128611462D01*
X143310500Y-128513920D01*
X143310500Y-125010352D01*
X143330185Y-124943313D01*
X143382989Y-124897558D01*
X143452147Y-124887614D01*
X143472815Y-124892420D01*
X143672255Y-124957222D01*
X143898146Y-124993000D01*
X143898147Y-124993000D01*
X144221853Y-124993000D01*
X144221854Y-124993000D01*
X144447745Y-124957222D01*
X144447748Y-124957221D01*
X144447749Y-124957221D01*
X144665255Y-124886549D01*
X144665255Y-124886548D01*
X144665258Y-124886548D01*
X144869038Y-124782717D01*
X145054066Y-124648286D01*
X145215786Y-124486566D01*
X145275182Y-124404813D01*
X145330512Y-124362149D01*
X145400126Y-124356170D01*
X145461921Y-124388776D01*
G37*
%TD.AperFunction*%
M02*
