%TF.GenerationSoftware,KiCad,Pcbnew,10.0.1*%
%TF.CreationDate,2026-06-17T19:14:18+08:00*%
%TF.ProjectId,esphome-smart-dimmer-1x1,65737068-6f6d-4652-9d73-6d6172742d64,rev?*%
%TF.SameCoordinates,Original*%
%TF.FileFunction,Soldermask,Bot*%
%TF.FilePolarity,Negative*%
%FSLAX46Y46*%
G04 Gerber Fmt 4.6, Leading zero omitted, Abs format (unit mm)*
G04 Created by KiCad (PCBNEW 10.0.1) date 2026-06-17 19:14:18*
%MOMM*%
%LPD*%
G01*
G04 APERTURE LIST*
G04 Aperture macros list*
%AMRoundRect*
0 Rectangle with rounded corners*
0 $1 Rounding radius*
0 $2 $3 $4 $5 $6 $7 $8 $9 X,Y pos of 4 corners*
0 Add a 4 corners polygon primitive as box body*
4,1,4,$2,$3,$4,$5,$6,$7,$8,$9,$2,$3,0*
0 Add four circle primitives for the rounded corners*
1,1,$1+$1,$2,$3*
1,1,$1+$1,$4,$5*
1,1,$1+$1,$6,$7*
1,1,$1+$1,$8,$9*
0 Add four rect primitives between the rounded corners*
20,1,$1+$1,$2,$3,$4,$5,0*
20,1,$1+$1,$4,$5,$6,$7,0*
20,1,$1+$1,$6,$7,$8,$9,0*
20,1,$1+$1,$8,$9,$2,$3,0*%
G04 Aperture macros list end*
%ADD10C,0.200000*%
%ADD11C,2.400000*%
%ADD12C,3.200000*%
%ADD13C,1.552000*%
%ADD14RoundRect,0.250000X-0.512000X-0.512000X0.512000X-0.512000X0.512000X0.512000X-0.512000X0.512000X0*%
%ADD15C,1.524000*%
%ADD16C,3.500000*%
%ADD17C,1.100000*%
%ADD18O,1.900000X3.500000*%
%ADD19R,2.000000X1.905000*%
%ADD20O,2.000000X1.905000*%
G04 APERTURE END LIST*
D10*
X118070000Y-114410000D02*
X138900000Y-114410000D01*
X138900000Y-127040000D01*
X118070000Y-127040000D01*
X118070000Y-114410000D01*
G36*
X118070000Y-114410000D02*
G01*
X138900000Y-114410000D01*
X138900000Y-127040000D01*
X118070000Y-127040000D01*
X118070000Y-114410000D01*
G37*
D11*
%TO.C,R1*%
X137540000Y-133460000D03*
X117220000Y-133460000D03*
%TD*%
D12*
%TO.C,M3*%
X142200000Y-108000000D03*
%TD*%
D13*
%TO.C,U1*%
X136900000Y-113160000D03*
X134360000Y-113160000D03*
X131820000Y-113160000D03*
X129280000Y-113160000D03*
X124200000Y-113160000D03*
X126740000Y-113160000D03*
X119120000Y-128400000D03*
X119120000Y-113160000D03*
X121660000Y-128400000D03*
X124200000Y-128400000D03*
X126740000Y-128400000D03*
X129280000Y-128400000D03*
X131820000Y-128400000D03*
X134360000Y-128400000D03*
X136900000Y-128400000D03*
X121660000Y-113160000D03*
%TD*%
D12*
%TO.C,M3*%
X119600000Y-146800000D03*
%TD*%
%TO.C,M3*%
X119600000Y-108000000D03*
%TD*%
D14*
%TO.C,J2*%
X127380000Y-139287500D03*
D15*
X129880000Y-139287500D03*
X131880000Y-139287500D03*
X134380000Y-139287500D03*
D16*
X124310000Y-141997500D03*
X137450000Y-141997500D03*
%TD*%
D12*
%TO.C,M3*%
X142200000Y-146800000D03*
%TD*%
D17*
%TO.C,J1*%
X128580000Y-107000000D03*
X133180000Y-107000000D03*
D18*
X125180000Y-107000000D03*
X136580000Y-107000000D03*
%TD*%
D19*
%TO.C,Q1*%
X144060000Y-118460000D03*
D20*
X144060000Y-121000000D03*
X144060000Y-123540000D03*
%TD*%
M02*
