%TF.GenerationSoftware,KiCad,Pcbnew,10.0.1*%
%TF.CreationDate,2026-06-17T19:14:18+08:00*%
%TF.ProjectId,esphome-smart-dimmer-1x1,65737068-6f6d-4652-9d73-6d6172742d64,rev?*%
%TF.SameCoordinates,Original*%
%TF.FileFunction,Legend,Top*%
%TF.FilePolarity,Positive*%
%FSLAX46Y46*%
G04 Gerber Fmt 4.6, Leading zero omitted, Abs format (unit mm)*
G04 Created by KiCad (PCBNEW 10.0.1) date 2026-06-17 19:14:18*
%MOMM*%
%LPD*%
G01*
G04 APERTURE LIST*
%ADD10C,0.300000*%
%ADD11C,0.150000*%
%ADD12C,0.120000*%
%ADD13C,0.127000*%
G04 APERTURE END LIST*
D10*
G36*
X142256413Y-141295176D02*
G01*
X142256413Y-142193959D01*
X141748083Y-142193959D01*
X141748083Y-141372845D01*
X141542278Y-141372845D01*
X141542278Y-142193959D01*
X141073332Y-142193959D01*
X141073332Y-141333003D01*
X140865512Y-141333003D01*
X140865512Y-142616010D01*
X142468447Y-142616010D01*
X142468447Y-141381271D01*
X142256413Y-141295176D01*
G37*
G36*
X141073332Y-139715230D02*
G01*
X140867618Y-139715230D01*
X140867618Y-141136906D01*
X141753304Y-141136906D01*
X141753304Y-140149921D01*
X142260627Y-140149921D01*
X142260627Y-141193601D01*
X142468447Y-141120145D01*
X142468447Y-139721550D01*
X141547590Y-139721550D01*
X141547590Y-140714855D01*
X141073332Y-140714855D01*
X141073332Y-139715230D01*
G37*
G36*
X141841231Y-139016298D02*
G01*
X141666933Y-139131795D01*
X142467073Y-139131795D01*
X142467073Y-139549633D01*
X140868168Y-139549633D01*
X140868168Y-139131795D01*
X141044572Y-139131795D01*
X141080293Y-139131795D01*
X141633411Y-139131795D01*
X141633411Y-138663490D01*
X141080293Y-138663490D01*
X141080293Y-139131795D01*
X141044572Y-139131795D01*
X140868168Y-139007872D01*
X140868168Y-138241346D01*
X141841231Y-138241346D01*
X141841231Y-139016298D01*
G37*
G36*
X142470095Y-136616154D02*
G01*
X140867801Y-136616154D01*
X140867801Y-137031978D01*
X141548140Y-137031978D01*
X141548140Y-137655621D01*
X140867801Y-137655621D01*
X140867801Y-138077765D01*
X142470095Y-138077765D01*
X142470095Y-137655621D01*
X141762371Y-137655621D01*
X141762371Y-137031978D01*
X142470095Y-137031978D01*
X142470095Y-136616154D01*
G37*
G36*
X142468447Y-136442864D02*
G01*
X141342976Y-136442864D01*
X141342976Y-136041787D01*
X141542553Y-136041787D01*
X142273175Y-136041787D01*
X142273175Y-135659577D01*
X141542553Y-135659577D01*
X141542553Y-136041787D01*
X141342976Y-136041787D01*
X141342976Y-135260607D01*
X142468447Y-135260607D01*
X142468447Y-136442864D01*
G37*
G36*
X142467989Y-133448752D02*
G01*
X141346548Y-133448752D01*
X141346548Y-133952778D01*
X141512511Y-134076609D01*
X141346548Y-134076609D01*
X141346548Y-134595289D01*
X141512511Y-134704557D01*
X141346548Y-134704557D01*
X141346548Y-135088782D01*
X142467989Y-135088782D01*
X142467989Y-134704557D01*
X141548140Y-134704557D01*
X141548140Y-134465138D01*
X142467989Y-134465138D01*
X142467989Y-134076609D01*
X141548140Y-134076609D01*
X141548140Y-133837281D01*
X142467989Y-133837281D01*
X142467989Y-133448752D01*
G37*
G36*
X142468447Y-132141473D02*
G01*
X142468447Y-133277477D01*
X141346548Y-133277477D01*
X141346548Y-132874293D01*
X141550246Y-132874293D01*
X141836926Y-132874293D01*
X141836926Y-132506830D01*
X141550246Y-132506830D01*
X141550246Y-132874293D01*
X141346548Y-132874293D01*
X141346548Y-132105752D01*
X142040533Y-132105752D01*
X142040533Y-132758797D01*
X141870449Y-132874293D01*
X142271068Y-132874293D01*
X142271068Y-132057392D01*
X142468447Y-132141473D01*
G37*
G36*
X141992906Y-131969648D02*
G01*
X141992906Y-131348019D01*
X141780781Y-131348019D01*
X141780781Y-131969648D01*
X141992906Y-131969648D01*
G37*
G36*
X141073332Y-129783827D02*
G01*
X140867618Y-129783827D01*
X140867618Y-131205504D01*
X141753304Y-131205504D01*
X141753304Y-130218518D01*
X142260627Y-130218518D01*
X142260627Y-131262199D01*
X142468447Y-131188743D01*
X142468447Y-129790147D01*
X141547590Y-129790147D01*
X141547590Y-130783452D01*
X141073332Y-130783452D01*
X141073332Y-129783827D01*
G37*
G36*
X142467989Y-127978201D02*
G01*
X141346548Y-127978201D01*
X141346548Y-128482226D01*
X141512511Y-128606058D01*
X141346548Y-128606058D01*
X141346548Y-129124738D01*
X141512511Y-129234006D01*
X141346548Y-129234006D01*
X141346548Y-129618230D01*
X142467989Y-129618230D01*
X142467989Y-129234006D01*
X141548140Y-129234006D01*
X141548140Y-128994587D01*
X142467989Y-128994587D01*
X142467989Y-128606058D01*
X141548140Y-128606058D01*
X141548140Y-128366730D01*
X142467989Y-128366730D01*
X142467989Y-127978201D01*
G37*
G36*
X142468447Y-126630988D02*
G01*
X142468447Y-127038385D01*
X142317322Y-127038385D01*
X142468447Y-127145455D01*
X142468447Y-127806926D01*
X141348838Y-127806926D01*
X141348838Y-127414275D01*
X141535775Y-127414275D01*
X142283708Y-127414275D01*
X142283708Y-127038385D01*
X141535775Y-127038385D01*
X141535775Y-127414275D01*
X141348838Y-127414275D01*
X141348838Y-127141242D01*
X141500054Y-127038385D01*
X141348838Y-127038385D01*
X141348838Y-126649856D01*
X142283708Y-126649856D01*
X142283708Y-126534359D01*
X142468447Y-126630988D01*
G37*
G36*
X141548140Y-125497915D02*
G01*
X141346548Y-125497915D01*
X141346548Y-125896885D01*
X141512511Y-126020808D01*
X141346548Y-126020808D01*
X141346548Y-126432327D01*
X142470095Y-126432327D01*
X142470095Y-126020808D01*
X141548140Y-126020808D01*
X141548140Y-125497915D01*
G37*
G36*
X142275281Y-124453044D02*
G01*
X142275281Y-124799533D01*
X141546308Y-124799533D01*
X141546308Y-124497191D01*
X141348838Y-124497191D01*
X141348838Y-124799533D01*
X140979268Y-124799533D01*
X140979268Y-125200610D01*
X141348838Y-125200610D01*
X141348838Y-125416948D01*
X141546308Y-125416948D01*
X141546308Y-125200610D01*
X142468447Y-125200610D01*
X142468447Y-124539139D01*
X142275281Y-124453044D01*
G37*
G36*
X141992906Y-124380046D02*
G01*
X141992906Y-123758417D01*
X141780781Y-123758417D01*
X141780781Y-124380046D01*
X141992906Y-124380046D01*
G37*
G36*
X142468447Y-123084582D02*
G01*
X142287921Y-123219037D01*
X142468447Y-123219037D01*
X142468447Y-123634769D01*
X140868168Y-123634769D01*
X140868168Y-123219037D01*
X141050892Y-123219037D01*
X141084506Y-123219037D01*
X142254307Y-123219037D01*
X142254307Y-122593196D01*
X141084506Y-122593196D01*
X141084506Y-123219037D01*
X141050892Y-123219037D01*
X140868168Y-123069927D01*
X140868168Y-122173251D01*
X142468447Y-122173251D01*
X142468447Y-123084582D01*
G37*
G36*
X141216855Y-121535685D02*
G01*
X140868168Y-121535685D01*
X140868168Y-121936762D01*
X141216855Y-121936762D01*
X141216855Y-121535685D01*
G37*
G36*
X142470462Y-121535685D02*
G01*
X141347006Y-121535685D01*
X141347006Y-121936762D01*
X142470462Y-121936762D01*
X142470462Y-121535685D01*
G37*
G36*
X142467989Y-119654405D02*
G01*
X141346548Y-119654405D01*
X141346548Y-120158430D01*
X141512511Y-120282261D01*
X141346548Y-120282261D01*
X141346548Y-120800942D01*
X141512511Y-120910210D01*
X141346548Y-120910210D01*
X141346548Y-121294434D01*
X142467989Y-121294434D01*
X142467989Y-120910210D01*
X141548140Y-120910210D01*
X141548140Y-120670791D01*
X142467989Y-120670791D01*
X142467989Y-120282261D01*
X141548140Y-120282261D01*
X141548140Y-120042934D01*
X142467989Y-120042934D01*
X142467989Y-119654405D01*
G37*
G36*
X142467989Y-117843100D02*
G01*
X141346548Y-117843100D01*
X141346548Y-118347125D01*
X141512511Y-118470956D01*
X141346548Y-118470956D01*
X141346548Y-118989637D01*
X141512511Y-119098905D01*
X141346548Y-119098905D01*
X141346548Y-119483129D01*
X142467989Y-119483129D01*
X142467989Y-119098905D01*
X141548140Y-119098905D01*
X141548140Y-118859486D01*
X142467989Y-118859486D01*
X142467989Y-118470956D01*
X141548140Y-118470956D01*
X141548140Y-118231629D01*
X142467989Y-118231629D01*
X142467989Y-117843100D01*
G37*
G36*
X142468447Y-116535820D02*
G01*
X142468447Y-117671824D01*
X141346548Y-117671824D01*
X141346548Y-117268640D01*
X141550246Y-117268640D01*
X141836926Y-117268640D01*
X141836926Y-116901177D01*
X141550246Y-116901177D01*
X141550246Y-117268640D01*
X141346548Y-117268640D01*
X141346548Y-116500100D01*
X142040533Y-116500100D01*
X142040533Y-117153144D01*
X141870449Y-117268640D01*
X142271068Y-117268640D01*
X142271068Y-116451740D01*
X142468447Y-116535820D01*
G37*
G36*
X141548140Y-115383330D02*
G01*
X141346548Y-115383330D01*
X141346548Y-115782301D01*
X141512511Y-115906223D01*
X141346548Y-115906223D01*
X141346548Y-116317742D01*
X142470095Y-116317742D01*
X142470095Y-115906223D01*
X141548140Y-115906223D01*
X141548140Y-115383330D01*
G37*
G36*
X141992906Y-115304470D02*
G01*
X141992906Y-114682841D01*
X141780781Y-114682841D01*
X141780781Y-115304470D01*
X141992906Y-115304470D01*
G37*
G36*
X142470462Y-113738171D02*
G01*
X140868168Y-113738171D01*
X140868168Y-114429043D01*
X141076079Y-114429043D01*
X141076079Y-114156010D01*
X142470462Y-114156010D01*
X142470462Y-113738171D01*
G37*
G36*
X142470279Y-112334630D02*
G01*
X142470279Y-111853777D01*
X141878051Y-112307336D01*
X141346731Y-111908365D01*
X141346731Y-112380792D01*
X141569389Y-112544648D01*
X141346731Y-112710519D01*
X141346731Y-113191464D01*
X141878051Y-112788189D01*
X142470279Y-113239733D01*
X142470279Y-112765108D01*
X142188819Y-112550968D01*
X142470279Y-112334630D01*
G37*
G36*
X142470462Y-110936217D02*
G01*
X140868168Y-110936217D01*
X140868168Y-111627089D01*
X141076079Y-111627089D01*
X141076079Y-111354056D01*
X142470462Y-111354056D01*
X142470462Y-110936217D01*
G37*
D11*
X133983333Y-137384819D02*
X133650000Y-136908628D01*
X133411905Y-137384819D02*
X133411905Y-136384819D01*
X133411905Y-136384819D02*
X133792857Y-136384819D01*
X133792857Y-136384819D02*
X133888095Y-136432438D01*
X133888095Y-136432438D02*
X133935714Y-136480057D01*
X133935714Y-136480057D02*
X133983333Y-136575295D01*
X133983333Y-136575295D02*
X133983333Y-136718152D01*
X133983333Y-136718152D02*
X133935714Y-136813390D01*
X133935714Y-136813390D02*
X133888095Y-136861009D01*
X133888095Y-136861009D02*
X133792857Y-136908628D01*
X133792857Y-136908628D02*
X133411905Y-136908628D01*
X134935714Y-137384819D02*
X134364286Y-137384819D01*
X134650000Y-137384819D02*
X134650000Y-136384819D01*
X134650000Y-136384819D02*
X134554762Y-136527676D01*
X134554762Y-136527676D02*
X134459524Y-136622914D01*
X134459524Y-136622914D02*
X134364286Y-136670533D01*
X141390476Y-105954819D02*
X141390476Y-104954819D01*
X141390476Y-104954819D02*
X141723809Y-105669104D01*
X141723809Y-105669104D02*
X142057142Y-104954819D01*
X142057142Y-104954819D02*
X142057142Y-105954819D01*
X142438095Y-104954819D02*
X143057142Y-104954819D01*
X143057142Y-104954819D02*
X142723809Y-105335771D01*
X142723809Y-105335771D02*
X142866666Y-105335771D01*
X142866666Y-105335771D02*
X142961904Y-105383390D01*
X142961904Y-105383390D02*
X143009523Y-105431009D01*
X143009523Y-105431009D02*
X143057142Y-105526247D01*
X143057142Y-105526247D02*
X143057142Y-105764342D01*
X143057142Y-105764342D02*
X143009523Y-105859580D01*
X143009523Y-105859580D02*
X142961904Y-105907200D01*
X142961904Y-105907200D02*
X142866666Y-105954819D01*
X142866666Y-105954819D02*
X142580952Y-105954819D01*
X142580952Y-105954819D02*
X142485714Y-105907200D01*
X142485714Y-105907200D02*
X142438095Y-105859580D01*
X138238095Y-127704819D02*
X138238095Y-128514342D01*
X138238095Y-128514342D02*
X138285714Y-128609580D01*
X138285714Y-128609580D02*
X138333333Y-128657200D01*
X138333333Y-128657200D02*
X138428571Y-128704819D01*
X138428571Y-128704819D02*
X138619047Y-128704819D01*
X138619047Y-128704819D02*
X138714285Y-128657200D01*
X138714285Y-128657200D02*
X138761904Y-128609580D01*
X138761904Y-128609580D02*
X138809523Y-128514342D01*
X138809523Y-128514342D02*
X138809523Y-127704819D01*
X139809523Y-128704819D02*
X139238095Y-128704819D01*
X139523809Y-128704819D02*
X139523809Y-127704819D01*
X139523809Y-127704819D02*
X139428571Y-127847676D01*
X139428571Y-127847676D02*
X139333333Y-127942914D01*
X139333333Y-127942914D02*
X139238095Y-127990533D01*
X118890476Y-145054819D02*
X118890476Y-144054819D01*
X118890476Y-144054819D02*
X119223809Y-144769104D01*
X119223809Y-144769104D02*
X119557142Y-144054819D01*
X119557142Y-144054819D02*
X119557142Y-145054819D01*
X119938095Y-144054819D02*
X120557142Y-144054819D01*
X120557142Y-144054819D02*
X120223809Y-144435771D01*
X120223809Y-144435771D02*
X120366666Y-144435771D01*
X120366666Y-144435771D02*
X120461904Y-144483390D01*
X120461904Y-144483390D02*
X120509523Y-144531009D01*
X120509523Y-144531009D02*
X120557142Y-144626247D01*
X120557142Y-144626247D02*
X120557142Y-144864342D01*
X120557142Y-144864342D02*
X120509523Y-144959580D01*
X120509523Y-144959580D02*
X120461904Y-145007200D01*
X120461904Y-145007200D02*
X120366666Y-145054819D01*
X120366666Y-145054819D02*
X120080952Y-145054819D01*
X120080952Y-145054819D02*
X119985714Y-145007200D01*
X119985714Y-145007200D02*
X119938095Y-144959580D01*
X118890476Y-106254819D02*
X118890476Y-105254819D01*
X118890476Y-105254819D02*
X119223809Y-105969104D01*
X119223809Y-105969104D02*
X119557142Y-105254819D01*
X119557142Y-105254819D02*
X119557142Y-106254819D01*
X119938095Y-105254819D02*
X120557142Y-105254819D01*
X120557142Y-105254819D02*
X120223809Y-105635771D01*
X120223809Y-105635771D02*
X120366666Y-105635771D01*
X120366666Y-105635771D02*
X120461904Y-105683390D01*
X120461904Y-105683390D02*
X120509523Y-105731009D01*
X120509523Y-105731009D02*
X120557142Y-105826247D01*
X120557142Y-105826247D02*
X120557142Y-106064342D01*
X120557142Y-106064342D02*
X120509523Y-106159580D01*
X120509523Y-106159580D02*
X120461904Y-106207200D01*
X120461904Y-106207200D02*
X120366666Y-106254819D01*
X120366666Y-106254819D02*
X120080952Y-106254819D01*
X120080952Y-106254819D02*
X119985714Y-106207200D01*
X119985714Y-106207200D02*
X119938095Y-106159580D01*
X126826666Y-136424819D02*
X126826666Y-137139104D01*
X126826666Y-137139104D02*
X126779047Y-137281961D01*
X126779047Y-137281961D02*
X126683809Y-137377200D01*
X126683809Y-137377200D02*
X126540952Y-137424819D01*
X126540952Y-137424819D02*
X126445714Y-137424819D01*
X127255238Y-136520057D02*
X127302857Y-136472438D01*
X127302857Y-136472438D02*
X127398095Y-136424819D01*
X127398095Y-136424819D02*
X127636190Y-136424819D01*
X127636190Y-136424819D02*
X127731428Y-136472438D01*
X127731428Y-136472438D02*
X127779047Y-136520057D01*
X127779047Y-136520057D02*
X127826666Y-136615295D01*
X127826666Y-136615295D02*
X127826666Y-136710533D01*
X127826666Y-136710533D02*
X127779047Y-136853390D01*
X127779047Y-136853390D02*
X127207619Y-137424819D01*
X127207619Y-137424819D02*
X127826666Y-137424819D01*
X141390476Y-144754819D02*
X141390476Y-143754819D01*
X141390476Y-143754819D02*
X141723809Y-144469104D01*
X141723809Y-144469104D02*
X142057142Y-143754819D01*
X142057142Y-143754819D02*
X142057142Y-144754819D01*
X142438095Y-143754819D02*
X143057142Y-143754819D01*
X143057142Y-143754819D02*
X142723809Y-144135771D01*
X142723809Y-144135771D02*
X142866666Y-144135771D01*
X142866666Y-144135771D02*
X142961904Y-144183390D01*
X142961904Y-144183390D02*
X143009523Y-144231009D01*
X143009523Y-144231009D02*
X143057142Y-144326247D01*
X143057142Y-144326247D02*
X143057142Y-144564342D01*
X143057142Y-144564342D02*
X143009523Y-144659580D01*
X143009523Y-144659580D02*
X142961904Y-144707200D01*
X142961904Y-144707200D02*
X142866666Y-144754819D01*
X142866666Y-144754819D02*
X142580952Y-144754819D01*
X142580952Y-144754819D02*
X142485714Y-144707200D01*
X142485714Y-144707200D02*
X142438095Y-144659580D01*
X122376666Y-106384819D02*
X122376666Y-107099104D01*
X122376666Y-107099104D02*
X122329047Y-107241961D01*
X122329047Y-107241961D02*
X122233809Y-107337200D01*
X122233809Y-107337200D02*
X122090952Y-107384819D01*
X122090952Y-107384819D02*
X121995714Y-107384819D01*
X123376666Y-107384819D02*
X122805238Y-107384819D01*
X123090952Y-107384819D02*
X123090952Y-106384819D01*
X123090952Y-106384819D02*
X122995714Y-106527676D01*
X122995714Y-106527676D02*
X122900476Y-106622914D01*
X122900476Y-106622914D02*
X122805238Y-106670533D01*
%TO.C,R1*%
D12*
X118660000Y-133460000D02*
X119510000Y-133460000D01*
X136100000Y-133460000D02*
X135250000Y-133460000D01*
X119510000Y-130840000D02*
X135250000Y-130840000D01*
X135250000Y-136080000D01*
X119510000Y-136080000D01*
X119510000Y-130840000D01*
%TO.C,U1*%
D13*
X116370000Y-116280000D02*
X116370000Y-125280000D01*
X116370000Y-116280000D02*
X117670000Y-116280000D01*
X116370000Y-125280000D02*
X117670000Y-125280000D01*
X117670000Y-111780000D02*
X117670000Y-116280000D01*
X117670000Y-125280000D02*
X117670000Y-129780000D01*
X140370000Y-111780000D02*
X117670000Y-111780000D01*
X140370000Y-111780000D02*
X140370000Y-129780000D01*
X140370000Y-129780000D02*
X117670000Y-129780000D01*
%TO.C,J2*%
D12*
X124120000Y-138167500D02*
X127080000Y-138167500D01*
X124120000Y-139987500D02*
X124120000Y-138167500D01*
X127680000Y-138167500D02*
X137640000Y-138167500D01*
X137640000Y-139987500D02*
X137640000Y-138167500D01*
X127380000Y-138167500D02*
X127040000Y-137697500D01*
X127720000Y-137697500D01*
X127380000Y-138167500D01*
G36*
X127380000Y-138167500D02*
G01*
X127040000Y-137697500D01*
X127720000Y-137697500D01*
X127380000Y-138167500D01*
G37*
%TO.C,J1*%
X124735000Y-104950000D02*
X124735000Y-103900000D01*
X126480000Y-108120000D02*
X126480000Y-108875000D01*
X126480000Y-108120000D02*
X135280000Y-108120000D01*
X137025000Y-104950000D02*
X137025000Y-103900000D01*
%TD*%
M02*
